<svg width="1921" height="794" viewBox="0 0 1921 794" fill="none" xmlns="http://www.w3.org/2000/svg">
<g clip-path="url(#clip0_157_2)">
<path d="M361.416 -165.225C361.416 -186.031 372.194 -205.351 389.898 -216.281L774.067 -453.44C814.041 -478.117 865.585 -449.362 865.585 -402.385V-106.527C865.585 -85.7217 854.807 -66.4012 837.103 -55.4721L452.934 181.687C412.96 206.365 361.416 177.61 361.416 130.632V-165.225Z" fill="#006094" fill-opacity="0.06"/>
<path d="M1597.09 162.63C1597.09 141.824 1607.87 122.504 1625.57 111.575L1689.06 72.3851C1729.03 47.708 1780.57 76.463 1780.57 123.44V141.411C1780.57 162.216 1769.8 181.537 1752.09 192.466L1688.61 231.656C1648.64 256.333 1597.09 227.578 1597.09 180.6V162.63Z" fill="#006094" fill-opacity="0.06"/>
</g>
<defs>
<clipPath id="clip0_157_2">
<rect width="1921" height="794" fill="white"/>
</clipPath>
</defs>
</svg>
