<svg width="178" height="58" viewBox="0 0 178 58" fill="none" xmlns="http://www.w3.org/2000/svg">
<path fill-rule="evenodd" clip-rule="evenodd" d="M113.06 30.3738C112.135 30.7213 111.448 30.4747 110.916 31.293C110.697 31.6293 110.557 32.3068 110.637 32.8241C110.708 33.2869 110.695 33.62 110.887 33.9387C111.448 34.8596 113.456 35.2023 114.756 34.6898C115.873 34.2526 116.579 32.6575 115.759 31.3203C115.325 30.614 114.217 30.3498 113.059 30.3738H113.06ZM177.066 39.7858C176.866 38.9386 176.473 38.2531 176.007 37.6702C174.35 35.5931 169.067 35.4489 167.962 38.1154C167.934 38.1346 167.905 38.1522 167.878 38.1715H167.656C168.067 35.9854 167.888 33.2917 167.878 30.8206H162.755V51.1756H167.878V46.219C167.878 44.4477 167.825 42.6524 168.352 41.4289C168.674 40.681 169.348 39.8867 170.607 40.1205C172.02 40.3831 172.084 41.999 172.082 43.6854V51.1756H177.232V43.9352C177.232 42.5323 177.343 40.9581 177.066 39.7858ZM66.9546 31.9609C64.8663 38.3652 62.778 44.7712 60.6897 51.1756H66.3685C66.6936 49.9969 67.0186 48.8182 67.3421 47.6395V47.5835H73.551C73.8665 48.7622 74.182 49.9409 74.4974 51.1196V51.1756H80.149C78.0511 44.7808 75.9548 38.3845 73.8569 31.9897C71.5556 31.9801 69.2543 31.9705 66.953 31.9625L66.9546 31.9609ZM68.4295 43.3507C68.6153 42.646 68.8011 41.9398 68.9868 41.2351C69.3215 39.853 69.6546 38.4693 69.9893 37.0856C70.1287 36.445 70.268 35.8044 70.4073 35.1639C70.6027 35.9998 70.7965 36.8342 70.9919 37.6702C71.4931 39.5632 71.9944 41.4577 72.4956 43.3507H68.4311H68.4295ZM125.67 47.055C125.243 46.6898 125.308 45.8442 125.308 45.0499V40.1765H128.955V36.3618C127.739 36.3522 126.524 36.3426 125.308 36.3345V33.383H121.939C121.511 34.4128 121.085 35.4441 120.658 36.4739C119.915 36.9944 119.173 37.5132 118.43 38.0337C118.187 38.4517 118.337 39.5904 118.347 40.1781H120.157V45.0227C120.157 48.8086 120.522 50.6503 123.693 51.3165C124.44 51.4735 125.669 51.5199 126.505 51.3726C127.485 51.1996 128.282 50.8249 129.121 50.6487C129.346 50.1539 129.182 47.6459 129.177 46.89C128.239 47.0758 126.594 47.8461 125.67 47.0566V47.055ZM87.3619 36.0831C86.7678 36.1568 86.1736 36.2321 85.5795 36.3057C84.3576 36.61 83.2222 37.1497 82.5447 38.0049C80.8104 40.1958 81.3388 44.5518 83.9364 45.3846C83.946 45.4038 83.9556 45.4214 83.9636 45.4407C83.307 45.7674 82.4775 46.3439 82.1812 47.0277C81.5983 48.3714 82.6681 49.7519 83.6562 50.0626C83.6658 50.0818 83.6754 50.0994 83.6834 50.1186C80.9593 50.5446 79.2634 53.3841 81.2332 55.8552C82.2821 57.1716 85.6964 57.9852 88.3596 57.5816C91.5209 57.1028 94.2578 56.5198 95.3484 54.0167C95.6254 53.3809 95.8801 52.4328 95.7375 51.5103C95.3324 48.8743 94.3475 48.1408 91.7563 47.7228C90.3342 47.4938 86.6012 48.1023 86.132 47.1094C85.9943 46.8195 86.2073 46.4752 86.2713 46.2734C90.086 46.669 93.2521 45.7241 94.0944 42.7646C94.2434 42.2425 94.3827 41.4401 94.261 40.7595C94.1793 40.3079 94.0432 39.9155 93.8718 39.5616C94.5396 39.3197 95.209 39.0795 95.8769 38.8377C95.8865 38.0113 95.8961 37.1849 95.9041 36.3602C94.6614 36.3506 93.417 36.341 92.1727 36.3329C90.3999 36.3329 89.0675 36.0735 87.3555 36.0831H87.3619ZM86.582 51.6769C88.057 51.6593 91.8284 51.355 91.2871 53.0686C90.8643 54.409 86.5404 54.8398 85.2176 53.9318C84.9565 53.7524 84.7772 53.4834 84.7435 53.0686C84.6555 51.9395 85.7429 51.986 86.5804 51.6769H86.582ZM88.0858 43.49C86.4587 43.7687 86.0792 41.6659 86.4155 40.2326C86.6092 39.4094 86.9712 39.2301 87.6966 38.9242C90.126 38.8729 89.9755 43.1681 88.0858 43.4916V43.49ZM103.064 38.6455C102.981 38.6871 102.906 38.7032 102.758 38.7016C102.499 37.9216 102.238 37.1417 101.978 36.3618C100.707 36.3522 99.4353 36.3426 98.1637 36.3345V51.1772H103.258V45.2741C103.258 44.0057 103.218 42.8046 103.703 42.0439C104.278 41.1406 105.351 40.9292 106.848 40.9292C107.332 40.9292 107.782 40.9501 108.157 41.0686C108.323 39.4623 108.492 37.8576 108.658 36.2513C106.136 35.7228 103.753 36.8855 103.063 38.6455H103.064ZM142.905 37.2538C140.783 35.7788 136.398 35.7708 134.163 37.1417C133.26 37.6958 132.55 38.5254 132.018 39.4527C131.591 40.1974 131.389 41.147 131.211 42.1256C131.083 42.8286 131.035 43.8744 131.155 44.6319C131.335 45.7626 131.389 46.6354 131.767 47.5002C133.083 50.5126 137.076 52.1974 141.734 51.2589C142.759 51.0523 143.647 50.7336 144.463 50.3396V46.6914C143.852 46.9236 143.238 47.1559 142.627 47.3881C139.92 48.2144 136.515 48.1104 136.278 45.1332H145.439C145.451 41.2079 145.221 38.8617 142.905 37.2522V37.2538ZM140.79 41.9318H136.39C136.443 40.2838 138.074 38.8137 139.76 39.8434C140.461 40.2726 140.564 40.9148 140.79 41.8485V41.9318ZM158.803 40.9853C159.304 39.7233 159.805 38.4597 160.307 37.1978C158.868 36.5748 157.304 36.0463 155.184 36.0831C154.878 36.1023 154.572 36.1199 154.264 36.1392C153.763 36.232 153.262 36.3249 152.761 36.4178C150.41 37.1337 148.791 38.5238 148.055 40.846C147.796 41.6643 147.533 42.9936 147.694 44.0201C147.82 44.8273 147.724 45.5223 147.889 46.2206C148.481 48.7205 149.879 50.33 152.232 51.0651C154.485 51.7698 158.441 51.4479 159.749 50.1459C159.893 49.9809 159.805 49.3387 159.805 49.06V46.0813C159.304 46.3311 158.803 46.5825 158.302 46.8324C156.393 47.6075 153.962 47.7308 153.178 45.857C152.994 45.4166 152.961 44.8913 152.873 44.3532C152.748 43.6037 152.916 42.7229 153.068 42.1816C153.864 39.3486 156.582 39.9731 158.803 40.9837V40.9853ZM110.75 51.1772H115.873V36.3634C114.165 36.3538 112.457 36.3442 110.75 36.3361V51.1788V51.1772Z" fill="black"/>
<path fill-rule="evenodd" clip-rule="evenodd" d="M104.69 25.379H109.813V5.02723C108.116 5.01762 106.416 5.00801 104.719 5C104.709 11.7919 104.7 18.5871 104.692 25.379H104.69ZM113.376 5C113.367 11.7919 113.357 18.5871 113.349 25.379H118.472V5.02723C116.775 5.01762 115.075 5.00801 113.378 5H113.376ZM80.4152 15.3569H80.3591V15.2175C81.6163 14.7883 82.5403 14.0613 83.0319 12.8794C83.8631 10.8775 83.0496 8.57614 81.8341 7.64567C79.331 5.72868 73.4216 6.22354 69 6.25397V25.379C73.3399 25.3838 78.6664 25.8691 81.36 24.1811C83.1056 23.0873 84.7311 19.8347 83.1697 17.2482C82.4602 16.0727 81.6435 15.9831 80.4136 15.3553L80.4152 15.3569ZM74.1519 10.1792C74.5234 10.1696 74.895 10.16 75.2649 10.152C76.6662 10.152 78.3269 10.3762 78.0482 11.9889C77.7568 13.6833 76.1569 13.6112 74.1503 13.576V10.1792H74.1519ZM78.1891 20.2847C77.5726 21.5226 76.0208 21.3977 74.1519 21.3705V17.362C76.4404 17.3331 78.1267 17.2531 78.4118 19.2549C78.4646 19.6313 78.3061 20.0525 78.1891 20.2847ZM96.0342 12.7961C96.0342 15.4914 96.473 19.3558 95.2542 20.9253C94.9484 21.3193 94.4359 21.4922 93.8338 21.5931C92.7416 21.7773 92.2771 21.0374 92.0513 20.3119C91.7503 19.3446 91.8287 17.9081 91.8287 16.6365V10.5396H86.7345C86.7249 11.8576 86.7153 13.1756 86.7073 14.4921C86.7073 18.3485 86.214 22.8022 88.3776 24.5142C90.6004 26.2727 95.0605 25.9043 96.34 23.5405H96.6747C96.8781 24.1251 97.0831 24.7096 97.2865 25.2942C97.405 25.4591 97.9943 25.3774 98.2602 25.3774H101.156V10.5396H96.0614C96.0518 11.2907 96.0422 12.0434 96.0342 12.7945V12.7961Z" fill="black"/>
<path fill-rule="evenodd" clip-rule="evenodd" d="M51.2525 4.22425C49.3588 2.79367 47.1658 1.71356 44.5712 0.975722C42.9828 0.522773 41.3801 1.00442 40.921 2.12142C40.0972 4.11767 41.7367 5.41094 42.5606 6.45416C43.7924 8.00976 44.6245 9.53257 45.0364 11.9613C45.4771 14.5601 43.8108 16.6793 42.8086 17.9337C40.1361 21.2744 35.3423 22.9161 29.3824 22.9161C28.0093 22.9161 26.7017 22.9509 25.4843 22.7296C20.1146 21.752 14.3494 20.2988 12.9865 15.4271C12.0253 11.9941 14.3719 8.21471 15.7082 6.32913C16.2903 5.50932 17.0814 4.78583 17.5015 3.82254C18.2906 2.02099 16.8375 0.662142 15.1508 0.635498C14.8413 0.645746 14.5318 0.655993 14.2223 0.666241C13.3452 0.944979 12.47 1.22372 11.5928 1.50246C7.64757 3.03961 4.02817 5.29206 2.06476 8.80498C1.37613 10.0388 0.783827 11.3977 0.394423 12.9205C-0.495055 16.3903 0.238662 20.7579 1.41507 23.3793C4.23927 29.6652 8.44277 33.5348 15.1508 35.9102C17.6983 36.812 20.5532 37.2342 23.4717 37.7978C24.7403 37.9413 26.009 38.0868 27.2776 38.2303C29.3086 38.4066 31.3417 38.5808 33.3728 38.757C35.3034 39.087 38.7609 39.0112 39.3429 40.5524C38.9761 40.9685 38.0866 40.9951 37.5168 41.2021C36.0351 41.7412 32.5673 42.4647 31.6389 43.3992H31.5774C32.0365 43.9649 35.1722 44.9344 36.0945 45.2254C36.5187 45.3586 37.4595 45.4344 37.6726 45.7829C37.7587 46.242 36.5761 48.3345 36.3117 48.7834C35.5186 50.13 34.7726 51.6733 33.4343 52.4664C31.7885 53.442 27.3493 52.9645 25.8245 52.2492C25.1092 51.9131 24.7649 51.0891 24.3714 50.423C23.445 48.8572 22.7708 47.0802 22.0206 45.3176C22.2789 44.9753 22.7277 45.0286 23.1643 44.8544C23.9574 44.5757 24.7526 44.2969 25.5458 44.0182C26.0725 43.7805 26.5972 43.5448 27.1239 43.307C27.1649 43.2271 27.1792 43.1984 27.1854 43.059C26.4393 42.3048 24.8674 42.0527 23.7197 41.7289C21.2644 41.0341 18.7456 40.4561 16.0156 39.997C15.9951 40.0073 15.9746 40.0175 15.9542 40.0277C16.6264 44.5162 18.3705 49.0662 20.3155 52.4049C21.0963 53.7453 22.1682 55.7662 23.5947 56.3975C24.644 56.8607 25.9249 57.0062 27.2141 57.2337C28.0707 57.2644 28.9254 57.2952 29.7821 57.3259H31.5754C32.8379 57.1189 34.088 57.1312 35.164 56.7377C38.3407 55.5756 40.7304 50.2796 42.0626 47.0536C42.7246 45.4508 44.4482 42.1142 44.0732 39.8761C42.9316 33.0593 32.1308 34.7522 25.2957 33.4713C23.279 33.0921 21.2521 32.9343 19.3871 32.4198C13.3779 30.7597 9.1191 28.1219 6.30106 23.2912C5.02422 21.1002 3.96874 17.3987 4.78443 14.0395C5.28451 11.9859 6.26416 10.4856 7.5369 9.21284C8.08821 8.66151 8.73585 7.96467 9.48596 7.63469H9.51671C9.77289 8.08969 9.1478 9.04273 8.98999 9.49158C8.59443 10.6229 8.00828 12.8282 8.27881 14.4433C8.42023 15.2938 8.46532 16.0993 8.68051 16.8576C9.60278 20.1123 11.8654 22.2254 14.4027 23.8814C18.969 26.8594 29.2164 28.7204 36.2749 26.7282C41.7941 25.1706 46.2128 22.3996 48.4324 17.5381C49.0124 16.2653 49.9245 13.9206 49.576 11.8445C49.3588 10.5471 49.117 9.37476 48.8956 8.2557H48.9264C51.6399 10.129 54.5768 15.6669 53.134 20.5386C52.3552 23.1661 51.023 25.064 49.3281 26.7569C48.6374 27.4476 47.9078 28.1322 47.1003 28.7061C46.5612 29.0893 45.9648 29.3107 45.6144 29.8825C44.9852 30.9134 45.4955 32.1206 46.2641 32.6371C47.3483 33.3647 48.664 32.922 49.574 32.3583C51.7711 30.9975 53.5398 29.0606 55.0195 26.9742C55.991 25.6051 56.7493 24.07 57.3395 22.3012C59.8542 14.7692 55.3474 7.32931 51.2443 4.2304L51.2525 4.22425Z" fill="#66BB6A"/>
</svg>
