<svg width="407" height="199" viewBox="0 0 407 199" fill="none" xmlns="http://www.w3.org/2000/svg">
<g opacity="0.5">
<path d="M61.635 99.7702L58.4226 96.8923L105.182 44.7031L134.694 74.4883L190.954 23.8018L212.537 54.6405L231.289 38.2252L234.129 41.4703L211.76 61.0525L190.217 30.2704L134.525 80.4456L105.34 50.99L61.635 99.7702Z" fill="#1E2346"/>
<path d="M236.953 48.9942L243.189 30.6738L224.204 34.4316L236.953 48.9942Z" fill="#1E2346"/>
</g>
<path d="M109.622 187.126H10.1167V197.274H109.622V187.126Z" fill="#FFCC00"/>
<path opacity="0.5" d="M44.2165 187.126H10.1167V197.274H44.2165V187.126Z" fill="#FFCC00"/>
<path opacity="0.5" d="M109.623 187.126H76.9539V197.274H109.623V187.126Z" fill="#FFCC00"/>
<path d="M105.997 177.009H6.49143V187.157H105.997V177.009Z" fill="#FFCC00"/>
<path opacity="0.5" d="M32.8978 177.009H6.49143V187.157H32.8978V177.009Z" fill="#FFCC00"/>
<path opacity="0.5" d="M105.998 177.009H64.0783V187.157H105.998V177.009Z" fill="#FFCC00"/>
<path d="M116.845 166.821H17.3395V176.969H116.845V166.821Z" fill="#FFCC00"/>
<path opacity="0.5" d="M56.2439 166.821H17.3395V176.969H56.2439V166.821Z" fill="#FFCC00"/>
<path opacity="0.5" d="M116.845 166.821H88.5504V176.969H116.845V166.821Z" fill="#FFCC00"/>
<path d="M110.666 156.751H11.1606V166.899H110.666V156.751Z" fill="#FFCC00"/>
<path opacity="0.5" d="M40.8133 156.751H11.1606V166.899H40.8133V156.751Z" fill="#FFCC00"/>
<path opacity="0.5" d="M110.667 156.751H70.3018V166.899H110.667V156.751Z" fill="#FFCC00"/>
<path opacity="0.5" d="M105.624 187.126H10.1167V188.64H105.624V187.126Z" fill="#E8B900"/>
<path opacity="0.5" d="M110.666 166.899H17.3395V168.47H110.666V166.899Z" fill="#FFCC00"/>
<path d="M369.21 181.434H267.153C261.22 181.434 256.41 176.624 256.41 170.691V10.7428C256.41 4.80979 261.22 0 267.153 0H369.21C375.143 0 379.952 4.80979 379.952 10.7428V170.691C379.952 176.624 375.143 181.434 369.21 181.434Z" fill="#D7D7D7"/>
<path d="M368.015 156.964V11.9365L268.346 11.9365V156.964L368.015 156.964Z" fill="white"/>
<path opacity="0.5" d="M279.387 47.4473H274.016V79.6756H279.387V47.4473Z" fill="#F3A100"/>
<path opacity="0.5" d="M287.743 41.479H282.371V79.6756H287.743V41.479Z" fill="#1E2346"/>
<path opacity="0.5" d="M296.099 30.1394H290.727V79.6756H296.099V30.1394Z" fill="#F3A100"/>
<path opacity="0.5" d="M304.454 43.2695H299.082V79.6757H304.454V43.2695Z" fill="#1E2346"/>
<path opacity="0.5" d="M312.81 56.9966H307.439V79.6758H312.81V56.9966Z" fill="#F3A100"/>
<path opacity="0.5" d="M321.166 40.584H315.794V79.6758H321.166V40.584Z" fill="#F3A100"/>
<path opacity="0.5" d="M329.52 64.7551H324.149V79.6757H329.52V64.7551Z" fill="#1E2346"/>
<path opacity="0.5" d="M337.876 69.2312H332.505V79.6756H337.876V69.2312Z" fill="#F3A100"/>
<path opacity="0.5" d="M346.232 58.1899H340.861V79.6755H346.232V58.1899Z" fill="#F3A100"/>
<path opacity="0.5" d="M354.587 52.2219H349.216V79.6757H354.587V52.2219Z" fill="#1E2346"/>
<path opacity="0.5" d="M362.943 47.4473H357.571V79.6756H362.943V47.4473Z" fill="#F3A100"/>
<path opacity="0.5" d="M357.57 143.535H362.942V111.307H357.57V143.535Z" fill="#F3A100"/>
<path opacity="0.5" d="M349.215 143.535H354.587V105.338H349.215V143.535Z" fill="#1E2346"/>
<path opacity="0.5" d="M340.86 143.535H346.232V93.9987H340.86V143.535Z" fill="#F3A100"/>
<path opacity="0.5" d="M332.504 143.535H337.875V107.129H332.504V143.535Z" fill="#1E2346"/>
<path opacity="0.5" d="M324.148 143.535H329.52V120.856H324.148V143.535Z" fill="#F3A100"/>
<path opacity="0.5" d="M315.794 143.535H321.165V104.443H315.794V143.535Z" fill="#F3A100"/>
<path opacity="0.5" d="M307.438 143.535H312.809V128.614H307.438V143.535Z" fill="#1E2346"/>
<path opacity="0.5" d="M299.082 143.535H304.454V133.091H299.082V143.535Z" fill="#F3A100"/>
<path opacity="0.5" d="M290.727 143.535H296.099V122.049H290.727V143.535Z" fill="#F3A100"/>
<path opacity="0.5" d="M282.372 143.535H287.743V116.081H282.372V143.535Z" fill="#1E2346"/>
<path opacity="0.5" d="M274.016 143.535H279.387V111.307H274.016V143.535Z" fill="#F3A100"/>
<path d="M318.181 173.973C321.642 173.973 324.448 171.168 324.448 167.707C324.448 164.246 321.642 161.44 318.181 161.44C314.72 161.44 311.915 164.246 311.915 167.707C311.915 171.168 314.72 173.973 318.181 173.973Z" fill="white"/>
<path d="M399.221 77.0591H279.051V139.082H399.221V77.0591Z" fill="#6CACAC"/>
<path d="M382.675 132.298H295.596V131.329C295.596 125.45 291.299 120.668 286.017 120.668H285.146V95.4715H286.017C291.299 95.4715 295.596 90.6891 295.596 84.811V83.8418H382.675V84.811C382.675 90.6891 386.972 95.4715 392.254 95.4715H393.125V120.668H392.254C386.973 120.668 382.675 125.45 382.675 131.329V132.298ZM297.305 130.36H380.967C381.392 124.184 385.835 119.239 391.384 118.767V97.3729C385.835 96.9009 381.392 91.9562 380.967 85.7803H297.305C296.88 91.9562 292.437 96.9009 286.888 97.3729V118.767C292.437 119.239 296.88 124.184 297.305 130.36Z" fill="#5A9997"/>
<path d="M350.801 97.3838H347.729C347.383 96.5124 346.92 95.7008 346.356 94.9691H349.522L352.198 91.0444L350.801 89.9802H329.229L326.553 93.9049L327.949 94.9691H338.401V94.9697C339.474 94.9697 340.482 95.2472 341.357 95.733C341.83 96.2134 342.226 96.7697 342.522 97.3844H328.75L326.074 101.309L327.471 102.373H342.66C341.741 104.592 339.556 106.155 337.004 106.155H326.798L326.791 110.649L335.007 125.097L336.404 126.161H342.04L333.692 111.143H338.281C338.321 111.145 338.361 111.145 338.401 111.145C338.431 111.145 338.462 111.145 338.49 111.143C343.566 111.1 347.734 107.289 348.36 102.374H349.522L352.198 98.4491L350.801 97.3838Z" fill="#5A9997"/>
<path d="M344.959 93.9049H348.125L350.801 89.9802H329.229L326.553 93.9049H337.005C339.438 93.9049 341.533 95.3283 342.522 97.3838H328.75L326.074 101.309H342.993C342.405 104.077 339.948 106.155 337.004 106.155H326.798L326.791 110.649L335.007 125.096H340.644L332.295 110.078H336.885C336.924 110.08 336.965 110.08 337.004 110.08C337.035 110.08 337.065 110.08 337.093 110.078C342.169 110.035 346.337 106.225 346.963 101.309H348.125L350.801 97.3844H346.69C346.341 96.1036 345.748 94.9273 344.959 93.9049Z" fill="#A2C2C0"/>
<path d="M396.682 73.8655H276.512V135.888H396.682V73.8655Z" fill="#7BC3C3"/>
<path d="M380.136 129.105H293.057V128.136C293.057 122.258 288.759 117.475 283.478 117.475H282.607V92.2786H283.478C288.76 92.2786 293.057 87.4963 293.057 81.6182V80.6489H380.136V81.6182C380.136 87.4963 384.433 92.2786 389.714 92.2786H390.585V117.475H389.714C384.433 117.475 380.136 122.258 380.136 128.136V129.105H380.136ZM294.765 127.166H378.428C378.852 120.991 383.295 116.046 388.844 115.574V94.1795C383.295 93.7074 378.852 88.7627 378.428 82.5874H294.765C294.341 88.7633 289.898 93.708 284.349 94.1795V115.574C289.898 116.046 294.341 120.991 294.765 127.166Z" fill="#68B0AE"/>
<path d="M348.263 94.1909H345.19C344.844 93.3196 344.382 92.5079 343.817 91.7762H346.983L349.659 87.8515L348.263 86.7874H326.69L324.014 90.7121L325.41 91.7762H335.863C336.936 91.7762 337.943 92.0543 338.819 92.5401C339.291 93.0206 339.688 93.5768 339.983 94.1909H326.211L323.535 98.1156L324.932 99.1798H340.122C339.202 101.399 337.017 102.962 334.465 102.962H324.26L324.253 107.456L332.468 121.903L333.865 122.967H339.501L331.153 107.949H335.743C335.782 107.951 335.823 107.951 335.862 107.951C335.892 107.951 335.923 107.951 335.951 107.949C341.027 107.906 345.195 104.096 345.821 99.1804H346.983L349.659 95.2557L348.263 94.1909Z" fill="#68B0AE"/>
<path d="M342.42 90.7121H345.587L348.263 86.7874H326.69L324.014 90.7121H334.466V90.7127C336.899 90.7127 338.995 92.1355 339.983 94.1909H326.211L323.535 98.1156H340.455C339.866 100.884 337.41 102.962 334.465 102.962H324.26L324.253 107.456L332.468 121.903H338.105L329.756 106.885H334.346C334.385 106.887 334.426 106.887 334.465 106.887C334.496 106.887 334.526 106.887 334.554 106.885C339.63 106.842 343.799 103.032 344.425 98.1162H345.586L348.262 94.1915H344.151C343.803 92.9107 343.209 91.7344 342.42 90.7121Z" fill="#B5D9D7"/>
<path d="M392.482 70.4202H272.312V132.443H392.482V70.4202Z" fill="#86D4D4"/>
<path d="M375.936 125.659H288.857V124.69C288.857 118.812 284.56 114.029 279.278 114.029H278.408V88.8328H279.278C284.56 88.8328 288.857 84.0505 288.857 78.1724V77.2031H375.936V78.1724C375.936 84.0505 380.233 88.8328 385.514 88.8328H386.385V114.029H385.514C380.233 114.029 375.936 118.812 375.936 124.69V125.659ZM290.565 123.721H374.228C374.652 117.545 379.096 112.601 384.644 112.129V90.7349C379.095 90.2628 374.652 85.3181 374.228 79.1422H290.565C290.141 85.3181 285.698 90.2628 280.149 90.7349V112.129C285.698 112.601 290.141 117.545 290.565 123.721Z" fill="#72C1BF"/>
<path d="M344.062 90.7456H340.99C340.643 89.8743 340.181 89.0626 339.617 88.3309H342.783L345.459 84.4062L344.062 83.342H322.49L319.813 87.2667L321.21 88.3309H331.662V88.3315C332.735 88.3315 333.743 88.609 334.618 89.0948C335.091 89.5752 335.487 90.1315 335.783 90.7456H322.011L319.335 94.6703L320.731 95.7344H335.921C335.001 97.954 332.817 99.5165 330.265 99.5165H320.059L320.052 104.011L328.268 118.458L329.665 119.522H335.301L326.953 104.504H331.542C331.582 104.506 331.622 104.506 331.662 104.506C331.692 104.506 331.722 104.506 331.751 104.504C336.827 104.461 340.995 100.651 341.621 95.735H342.783L345.459 91.8103L344.062 90.7456Z" fill="#72C1BF"/>
<path d="M338.221 87.2667H341.387L344.063 83.342H322.49L319.814 87.2667H330.266C332.7 87.2667 334.795 88.6902 335.783 90.7456H322.012L319.335 94.6703H336.255C335.666 97.439 333.21 99.5165 330.266 99.5165H320.06L320.053 104.011L328.269 118.458H333.905L325.557 103.44H330.146C330.186 103.442 330.226 103.442 330.266 103.442C330.296 103.442 330.327 103.442 330.355 103.44C335.431 103.397 339.599 99.5869 340.225 94.6709H341.386L344.062 90.7462H339.951C339.602 89.4654 339.009 88.2891 338.221 87.2667Z" fill="#C3EAE8"/>
<path d="M360.257 196.457C380.449 196.457 396.817 180.088 396.817 159.897C396.817 139.705 380.449 123.337 360.257 123.337C340.066 123.337 323.697 139.705 323.697 159.897C323.697 180.088 340.066 196.457 360.257 196.457Z" fill="#FFCC00"/>
<path d="M360.258 187.955C375.754 187.955 388.316 175.393 388.316 159.897C388.316 144.401 375.754 131.839 360.258 131.839C344.762 131.839 332.2 144.401 332.2 159.897C332.2 175.393 344.762 187.955 360.258 187.955Z" fill="#D68900"/>
<path d="M360.257 186.892C375.166 186.892 387.252 174.806 387.252 159.897C387.252 144.988 375.166 132.902 360.257 132.902C345.348 132.902 333.262 144.988 333.262 159.897C333.262 174.806 345.348 186.892 360.257 186.892Z" fill="#F3A100"/>
<path d="M373.429 149.079H370.156C369.786 148.151 369.294 147.286 368.693 146.506H372.066L374.917 142.325L373.429 141.191H350.447L347.596 145.373L349.084 146.506H360.219V146.507C361.362 146.507 362.435 146.802 363.368 147.32C363.872 147.831 364.294 148.424 364.608 149.079H349.937L347.086 153.26L348.574 154.393H364.756C363.776 156.757 361.449 158.423 358.73 158.423H347.857L347.85 163.21L356.603 178.601L358.09 179.735H364.095L355.201 163.735H360.09C360.132 163.737 360.176 163.737 360.218 163.737C360.25 163.737 360.282 163.737 360.312 163.735C365.72 163.69 370.161 159.63 370.827 154.393H372.064L374.915 150.212L373.429 149.079Z" fill="#D68900"/>
<path d="M367.205 145.373H370.578L373.429 141.191H350.447L347.596 145.373H358.731C361.323 145.373 363.556 146.888 364.608 149.079H349.937L347.086 153.26H365.111C364.484 156.21 361.867 158.423 358.731 158.423H347.858L347.851 163.21L356.604 178.601H362.608L353.715 162.602H358.604C358.645 162.603 358.689 162.603 358.731 162.603C358.763 162.603 358.795 162.603 358.826 162.602C364.233 162.556 368.674 158.497 369.341 153.26H370.578L373.429 149.078H369.049C368.677 147.715 368.045 146.462 367.205 145.373Z" fill="#FFCC00"/>
<path d="M235.854 145.423H168.776V185.453H235.854V145.423Z" fill="#F9A91C"/>
<path d="M218.184 79.513C218.184 79.513 215.257 78.2326 211.598 78.8728L215.623 68.6294L220.287 71.0073L218.184 79.513Z" fill="#141930"/>
<path d="M215.577 74.0251C217.623 74.0251 219.282 72.3666 219.282 70.3207C219.282 68.2747 217.623 66.6162 215.577 66.6162C213.531 66.6162 211.873 68.2747 211.873 70.3207C211.873 72.3666 213.531 74.0251 215.577 74.0251Z" fill="#EB9C72"/>
<path d="M202.544 66.5257C202.544 66.5257 201.355 72.6534 200.166 74.0253C198.977 75.3972 197.331 76.6776 198.246 78.141C199.16 79.6043 201.264 79.9563 203.002 79.6958C204.831 79.4214 206.751 78.9641 207.94 79.5129C209.129 80.0616 208.306 72.3791 208.306 72.3791L205.928 64.4221C205.928 64.4221 202.179 66.4342 202.544 66.5257Z" fill="#141930"/>
<path d="M171.784 115.456C171.784 115.456 168.125 117.163 163.247 118.505C163.247 118.505 168.369 122.286 173.857 118.017L171.784 115.456Z" fill="#E6976D"/>
<path d="M199.221 84.8474C199.221 84.8474 193.124 105.334 171.784 115.455L173.613 119.236C173.613 119.236 188.246 117.041 203.734 97.1637L199.221 84.8474Z" fill="#D32731"/>
<path d="M165.228 172.435C165.228 172.435 161.113 178.563 156.905 180.209C156.905 180.209 161.478 180.575 164.039 178.197C166.6 175.819 165.228 172.435 165.228 172.435Z" fill="#E6976D"/>
<path d="M177.489 144.499C177.489 144.499 190.601 173.484 191.291 179.005C191.981 184.526 186.92 192.578 186.92 192.578H189.221L196.812 183.146L188.3 147.489L195.891 146.569L191.981 136.676L177.718 136.447L177.489 144.499Z" fill="#F4816E"/>
<path d="M178.308 125.175C178.308 125.175 172.097 123.795 170.717 129.316C169.336 134.837 162.768 178.315 162.768 178.315L168.749 176.704L178.871 138.287L195.664 138.977C195.663 138.978 187.279 128.166 178.308 125.175Z" fill="#FFB58B"/>
<path d="M168.748 176.705C168.748 176.705 169.668 179.465 168.058 181.536C166.447 183.607 163.796 186.795 163.796 186.795L163.106 185.644L164.608 181.306L155.246 182.457L149.956 179.466C149.956 179.466 156.418 180.332 162.768 178.316L168.748 176.705Z" fill="#0D1326"/>
<path d="M189.221 192.578L196.812 183.146C198.653 185.369 198.192 187.363 198.192 187.363L197.886 195.184H196.506L195.892 188.436L189.911 194.418H183.623L186.92 192.578H189.221Z" fill="#0D1326"/>
<path d="M215.09 82.5494L221.722 85.4446C223.353 86.1565 224.214 87.955 223.746 89.6722C222.454 94.4215 220.736 106.836 222.475 118.785H201.128C201.128 118.785 198.06 99.8973 198.349 86.3789C198.385 84.6756 199.622 83.2364 201.299 82.9357L207.205 81.8755L215.09 82.5494Z" fill="#E12F3A"/>
<path d="M218.301 86.9216C218.111 89.4788 214.434 91.2904 210.088 90.9685C205.741 90.6458 202.372 88.3118 202.562 85.7546C202.751 83.1974 206.428 81.3858 210.775 81.7077C215.121 82.0296 218.49 84.3644 218.301 86.9216Z" fill="#FF9685"/>
<path d="M214.276 73.906C214.276 73.906 214.388 79.5187 215.286 82.8858C215.286 82.8858 211.245 83.8963 206.418 82.8858C206.418 82.8858 208.326 80.9776 208.663 75.0284L214.276 73.906Z" fill="#FF9685"/>
<path d="M200.178 89.4233L195.576 98.2912C195.576 98.2912 197.035 103.118 203.321 102.557L209.832 98.2912L200.178 89.4233Z" fill="#E12F3A"/>
<path d="M222.476 118.786C222.476 118.786 225.716 127.53 225.899 133.172C226.073 138.567 224.506 145.355 212.266 146.282C200.755 147.155 198.924 147.443 190.107 147.443C190.107 147.443 187.67 129.808 181.638 124.935C181.638 124.935 190.745 122.035 201.129 118.786H222.476Z" fill="#0D1326"/>
<path d="M223.636 87.4868C223.291 87.2417 222.977 87.069 222.759 86.9615C219.776 85.4849 216.656 90.2372 216.656 90.2372C216.656 90.2372 211.894 100.038 199.759 108.764C200.149 112.065 200.534 114.828 200.796 116.613C206.777 114.069 213.582 110.145 219.123 104.179C220.261 102.954 221.22 101.814 222.034 100.748C222.424 95.9091 223.133 91.9266 223.746 89.6723C223.949 88.9253 223.889 88.168 223.636 87.4868Z" fill="#AD131C"/>
<path d="M217.147 89.1162C217.147 89.1162 207.879 106.554 183.917 114.664L185.624 118.688C185.624 118.688 205.622 116.615 219.098 103.14C231.17 91.0676 224.9 86.8993 223.365 86.0681C220.439 84.4818 217.147 89.1162 217.147 89.1162Z" fill="#ED3641"/>
<path d="M183.916 114.663L174.953 118.017L176.66 122.163C176.66 122.163 181.173 122.895 185.623 118.688L183.916 114.663Z" fill="#E6976D"/>
<path opacity="0.4" d="M214.62 79.0013C214.551 78.3816 214.495 77.7721 214.45 77.2014L208.718 75.0173L208.664 75.0283C208.433 79.095 207.47 81.2709 206.882 82.2426C210.908 81.966 213.355 80.2495 214.62 79.0013Z" fill="#E37463"/>
<path d="M209.736 80.0796H209.161C206.034 80.0796 203.5 77.5451 203.5 74.4179V64.1401H215.398V74.4179C215.398 77.5451 212.863 80.0796 209.736 80.0796Z" fill="#FFB58B"/>
<path d="M212.422 64.4222C212.422 64.4222 212.513 68.172 214.983 70.4585C214.983 70.4585 215.989 67.8061 217.269 69.5439C218.549 71.2816 217.36 73.1108 215.257 73.3852C215.257 73.3852 214.617 78.2325 216.629 80.336C218.641 82.4396 218.641 78.5983 221.293 78.9642C223.945 79.33 225.683 78.5983 224.22 76.2204C222.757 73.8424 220.287 67.8061 220.013 64.8794C219.738 61.9528 218.824 57.2883 215.531 58.3858C215.531 58.3858 215.074 55.3677 211.781 55.1848C208.489 55.0019 206.202 58.1115 203.642 57.6542C201.081 57.1969 198.52 58.2029 198.154 61.3125C197.704 65.137 199.069 67.8976 203.824 67.2574C203.824 67.2574 210.867 66.1599 212.422 64.4222Z" fill="#1E2346"/>
<path d="M241.264 122.703H137.401V127.031H241.264V122.703Z" fill="#1A427D"/>
<path d="M242.345 124.867H136.319V125.949H242.345V124.867Z" fill="#838CA3"/>
<path d="M57.8079 161.056C83.1616 161.056 103.715 140.502 103.715 115.149C103.715 89.795 83.1616 69.2417 57.8079 69.2417C32.4541 69.2417 11.9009 89.795 11.9009 115.149C11.9009 140.502 32.4541 161.056 57.8079 161.056Z" fill="#FFCC00"/>
<path d="M92.2022 122.803C96.4343 103.81 84.4685 84.9831 65.4758 80.7511C46.4832 76.5191 27.6559 88.4849 23.4238 107.478C19.1918 126.47 31.1576 145.297 50.1502 149.529C69.1429 153.762 87.9702 141.796 92.2022 122.803Z" fill="#D68900"/>
<path d="M90.8455 122.76C95.0483 104.517 83.6664 86.321 65.4233 82.1182C47.1802 77.9155 28.9843 89.2974 24.7815 107.541C20.5788 125.784 31.9607 143.98 50.2038 148.182C68.4469 152.385 86.6428 141.003 90.8455 122.76Z" fill="#F3A100"/>
<path d="M74.3464 101.565H70.2367C69.773 100.4 69.1547 99.3139 68.3998 98.3346H72.635L76.2148 93.0842L74.3464 91.6609H45.4884L41.9086 96.9113L43.777 98.3346H57.7587C59.1943 98.3346 60.5415 98.7061 61.7132 99.356C62.3457 99.9983 62.8755 100.743 63.2706 101.564H44.8485L41.2686 106.815L43.1371 108.238H63.4567C62.2263 111.207 59.305 113.297 55.8909 113.297H42.2387L42.2294 119.31L53.2199 138.636L55.0883 140.059H62.6282L51.4609 119.969H57.6004C57.653 119.972 57.708 119.972 57.7605 119.972C57.8013 119.972 57.8415 119.972 57.8799 119.969C64.6698 119.912 70.246 114.815 71.0831 108.239H72.6369L76.2167 102.988L74.3464 101.565Z" fill="#D68900"/>
<path d="M66.5319 96.9113H70.7671L74.3469 91.6609H45.4889L41.9091 96.9113H55.8908C59.146 96.9113 61.9493 98.815 63.2705 101.565H44.8484L41.2686 106.815H63.9018C63.1147 110.519 59.8286 113.298 55.8902 113.298H42.238L42.2287 119.31L53.2192 138.636H60.7591L49.5918 118.546H55.7313C55.7838 118.548 55.8389 118.548 55.8908 118.548C55.9316 118.548 55.9718 118.548 56.0101 118.546C62.8 118.489 68.3762 113.391 69.2134 106.815H70.7671L74.3469 101.565H68.848C68.3812 99.8524 67.5873 98.2789 66.5319 96.9113Z" fill="#FFCC00"/>
<path d="M239.1 127.031H139.565V129.195H239.1V127.031Z" fill="#102F54"/>
<path d="M133.15 197.354H129.828L142.067 129.195H147.138L133.15 197.354Z" fill="#E6976D"/>
<path d="M243.351 197.354H246.673L234.433 129.195H229.363L243.351 197.354Z" fill="#E6976D"/>
<path d="M179.174 121.26H145.334L139.404 99.2278H173.244L179.174 121.26Z" fill="#F0F1F5"/>
<path d="M179.252 121.26H178.246L172.316 99.2278L173.322 100.275L179.252 121.26Z" fill="#CBCED8"/>
<path d="M193.442 121.26H145.334V123.079H193.442V121.26Z" fill="#CBCED8"/>
<path d="M159.902 110.51C160.259 112.431 159.205 114.236 157.549 114.543C155.894 114.85 154.263 113.542 153.907 111.622C153.551 109.701 154.604 107.896 156.26 107.589C157.916 107.282 159.547 108.59 159.902 110.51Z" fill="#CBCED8"/>
<path d="M405.895 198.151H0.460454C0.207157 198.151 0 197.944 0 197.69V197.533C0 197.28 0.207 197.072 0.460454 197.072H405.895C406.148 197.072 406.355 197.28 406.355 197.533V197.69C406.355 197.943 406.148 198.151 405.895 198.151Z" fill="#2E3552"/>
</svg>
