<svg width="376" height="198" viewBox="0 0 376 198" fill="none" xmlns="http://www.w3.org/2000/svg">
<path d="M23.2567 197.041C23.2567 197.041 -20.448 150.095 15.8656 99.2696C48.0855 54.1739 85.6507 57.2564 113.212 75.5567C124.95 83.3509 158.793 76.5173 187.599 30.6307C226.881 -31.9463 363.048 6.00687 338.221 102.283C326.206 148.874 374.786 150.567 350.033 197.139L23.2567 197.041Z" fill="#E8E8E8"/>
<path d="M229.826 146.97L233.178 147.521C233.445 147.565 233.681 147.677 233.868 147.834C234.063 147.998 234.204 148.212 234.263 148.444C234.282 148.515 234.293 148.589 234.296 148.662C234.299 148.73 234.295 148.797 234.283 148.865L226.571 195.631C226.471 196.234 225.844 196.641 225.159 196.559C225.137 196.556 225.114 196.553 225.092 196.55L221.74 195.998C221.718 195.995 221.696 195.99 221.674 195.986C220.999 195.844 220.535 195.257 220.635 194.654L228.347 147.889C228.358 147.82 228.377 147.755 228.401 147.692C228.427 147.623 228.46 147.558 228.501 147.496C228.633 147.295 228.834 147.138 229.073 147.045C229.299 146.956 229.559 146.926 229.826 146.97Z" fill="#FFB93E"/>
<path d="M230.683 170.698L226.55 195.752C226.462 196.29 225.843 196.644 225.159 196.56C225.136 196.557 225.114 196.554 225.092 196.55L221.739 195.999C221.717 195.995 221.695 195.991 221.673 195.986C220.998 195.847 220.526 195.314 220.614 194.776L224.239 172.798C226.044 172.735 228.596 172.314 230.683 170.698Z" fill="#FFA412"/>
<path d="M227.604 152.457L227.516 152.989L233.452 153.97L233.54 153.439L227.604 152.457Z" fill="#FFA412"/>
<path d="M227.303 154.247L227.216 154.779L233.152 155.757L233.239 155.226L227.303 154.247Z" fill="#FFA412"/>
<path d="M226.944 156.422L226.856 156.953L232.792 157.934L232.879 157.402L226.944 156.422Z" fill="#FFA412"/>
<path d="M226.406 159.7L226.318 160.232L232.254 161.212L232.342 160.68L226.406 159.7Z" fill="#FFA412"/>
<path d="M225.823 163.191L225.735 163.723L231.671 164.702L231.759 164.171L225.823 163.191Z" fill="#FFA412"/>
<path d="M224.937 168.566L224.85 169.098L230.786 170.077L230.873 169.545L224.937 168.566Z" fill="#FFA412"/>
<path d="M224.116 173.599L224.028 174.13L229.964 175.112L230.051 174.58L224.116 173.599Z" fill="#FFA412"/>
<path d="M223.378 178.061L223.291 178.592L229.227 179.572L229.315 179.04L223.378 178.061Z" fill="#FFA412"/>
<path d="M227.879 150.731L227.791 151.263L233.727 152.242L233.814 151.71L227.879 150.731Z" fill="#FFA412"/>
<path d="M228.066 149.586L227.978 150.118L233.914 151.098L234.002 150.566L228.066 149.586Z" fill="#FFA412"/>
<path d="M228.245 148.508L228.158 149.039L234.094 150.018L234.181 149.486L228.245 148.508Z" fill="#FFA412"/>
<path d="M228.292 148.221L234.229 149.197L234.283 148.865C234.295 148.797 234.298 148.73 234.296 148.662L228.401 147.693C228.376 147.756 228.358 147.821 228.347 147.889L228.292 148.221Z" fill="#FFA412"/>
<path d="M228.501 147.497L234.263 148.444C234.203 148.212 234.063 147.998 233.867 147.834L229.072 147.045C228.834 147.138 228.633 147.295 228.501 147.497Z" fill="#FFA412"/>
<path d="M235.908 146.97L239.26 147.521C239.527 147.565 239.763 147.677 239.949 147.834C240.145 147.998 240.285 148.212 240.345 148.444C240.364 148.515 240.375 148.589 240.377 148.662C240.38 148.73 240.376 148.797 240.365 148.865L232.652 195.631C232.553 196.234 231.925 196.641 231.241 196.559C231.218 196.556 231.196 196.553 231.174 196.55L227.822 195.998C227.799 195.995 227.777 195.99 227.755 195.986C227.081 195.844 226.617 195.257 226.716 194.654L234.429 147.889C234.44 147.82 234.458 147.755 234.483 147.692C234.509 147.623 234.542 147.558 234.583 147.496C234.715 147.295 234.916 147.138 235.154 147.045C235.381 146.956 235.64 146.926 235.908 146.97Z" fill="#FFB93E"/>
<path d="M236.764 170.698L232.632 195.752C232.544 196.29 231.925 196.644 231.24 196.56C231.218 196.557 231.196 196.554 231.174 196.55L227.821 195.999C227.799 195.995 227.777 195.991 227.755 195.986C227.08 195.847 226.607 195.314 226.696 194.776L230.32 172.798C232.126 172.735 234.678 172.314 236.764 170.698Z" fill="#FFA412"/>
<path d="M233.686 152.457L233.598 152.989L239.534 153.97L239.622 153.439L233.686 152.457Z" fill="#FFA412"/>
<path d="M233.392 154.253L233.304 154.784L239.24 155.763L239.328 155.232L233.392 154.253Z" fill="#FFA412"/>
<path d="M233.026 156.422L232.938 156.954L238.874 157.934L238.961 157.403L233.026 156.422Z" fill="#FFA412"/>
<path d="M232.481 159.694L232.393 160.225L238.329 161.205L238.417 160.674L232.481 159.694Z" fill="#FFA412"/>
<path d="M231.905 163.191L231.817 163.722L237.753 164.702L237.841 164.171L231.905 163.191Z" fill="#FFA412"/>
<path d="M231.019 168.588L230.931 169.119L236.866 170.1L236.954 169.568L231.019 168.588Z" fill="#FFA412"/>
<path d="M230.192 173.571L230.104 174.102L236.04 175.082L236.128 174.55L230.192 173.571Z" fill="#FFA412"/>
<path d="M229.454 178.054L229.366 178.585L235.302 179.565L235.39 179.034L229.454 178.054Z" fill="#FFA412"/>
<path d="M233.961 150.753L233.873 151.284L239.809 152.265L239.897 151.733L233.961 150.753Z" fill="#FFA412"/>
<path d="M234.157 149.609L234.07 150.141L240.006 151.12L240.093 150.588L234.157 149.609Z" fill="#FFA412"/>
<path d="M234.327 148.508L234.239 149.039L240.175 150.018L240.263 149.486L234.327 148.508Z" fill="#FFA412"/>
<path d="M234.374 148.221L240.31 149.197L240.365 148.865C240.376 148.797 240.38 148.73 240.377 148.662L234.482 147.693C234.458 147.756 234.44 147.821 234.429 147.889L234.374 148.221Z" fill="#FFA412"/>
<path d="M234.583 147.497L240.345 148.444C240.285 148.212 240.145 147.998 239.949 147.834L235.154 147.045C234.916 147.138 234.714 147.295 234.583 147.497Z" fill="#FFA412"/>
<path d="M213.666 191.866L213.66 195.265C213.659 195.535 213.587 195.787 213.462 195.996C213.331 196.215 213.143 196.388 212.923 196.484C212.856 196.515 212.786 196.537 212.714 196.551C212.648 196.565 212.581 196.572 212.511 196.572L165.134 196.459C164.524 196.458 164.021 195.904 163.992 195.214C163.991 195.192 163.991 195.169 163.991 195.147L163.997 191.748C163.997 191.725 163.997 191.703 163.998 191.68C164.031 190.991 164.535 190.439 165.145 190.441L212.522 190.553C212.591 190.553 212.659 190.561 212.724 190.574C212.797 190.589 212.867 190.612 212.934 190.642C213.154 190.74 213.341 190.913 213.471 191.134C213.595 191.343 213.667 191.595 213.666 191.866Z" fill="#FFB93E"/>
<path d="M190.393 196.519L165.011 196.459C164.466 196.458 164.018 195.904 163.992 195.214C163.991 195.192 163.99 195.169 163.99 195.147L163.997 191.748C163.997 191.725 163.997 191.703 163.998 191.68C164.027 190.991 164.477 190.439 165.023 190.44L187.287 190.493C187.639 192.266 188.464 194.718 190.393 196.519Z" fill="#FFA412"/>
<path d="M207.375 190.547L207.36 196.565L207.899 196.567L207.913 190.548L207.375 190.547Z" fill="#FFA412"/>
<path d="M205.552 190.542L205.538 196.561L206.076 196.563L206.091 190.544L205.552 190.542Z" fill="#FFA412"/>
<path d="M203.35 190.522L203.334 196.541L203.873 196.542L203.889 190.524L203.35 190.522Z" fill="#FFA412"/>
<path d="M199.998 190.514L199.984 196.532L200.523 196.534L200.536 190.515L199.998 190.514Z" fill="#FFA412"/>
<path d="M196.473 190.521L196.458 196.54L196.997 196.541L197.011 190.522L196.473 190.521Z" fill="#FFA412"/>
<path d="M191.041 190.508L191.027 196.527L191.565 196.528L191.58 190.509L191.041 190.508Z" fill="#FFA412"/>
<path d="M185.956 190.496L185.942 196.515L186.48 196.516L186.495 190.497L185.956 190.496Z" fill="#FFA412"/>
<path d="M181.406 190.476L181.391 196.495L181.929 196.496L181.945 190.477L181.406 190.476Z" fill="#FFA412"/>
<path d="M209.11 190.551L209.096 196.57L209.634 196.571L209.648 190.552L209.11 190.551Z" fill="#FFA412"/>
<path d="M210.247 190.547L210.235 196.566L210.773 196.567L210.786 190.548L210.247 190.547Z" fill="#FFA412"/>
<path d="M211.363 190.556L211.349 196.575L211.887 196.576L211.901 190.558L211.363 190.556Z" fill="#FFA412"/>
<path d="M212.186 190.552L212.175 196.571L212.511 196.572C212.581 196.572 212.648 196.565 212.714 196.552L212.724 190.575C212.659 190.561 212.591 190.554 212.522 190.553L212.186 190.552Z" fill="#FFA412"/>
<path d="M212.934 190.643L212.923 196.485C213.144 196.388 213.332 196.216 213.462 195.996L213.471 191.134C213.341 190.914 213.154 190.74 212.934 190.643Z" fill="#FFA412"/>
<path d="M208.612 185.835L208.606 189.234C208.605 189.505 208.532 189.756 208.408 189.965C208.277 190.185 208.089 190.357 207.869 190.454C207.802 190.484 207.731 190.506 207.659 190.521C207.593 190.534 207.526 190.541 207.457 190.541L160.08 190.429C159.469 190.427 158.967 189.873 158.937 189.183C158.937 189.161 158.936 189.138 158.936 189.116L158.942 185.717C158.942 185.695 158.943 185.672 158.944 185.65C158.976 184.961 159.48 184.408 160.091 184.41L207.468 184.522C207.498 184.523 207.529 184.524 207.558 184.527C207.571 184.528 207.584 184.529 207.597 184.531C207.611 184.533 207.626 184.535 207.64 184.538C207.65 184.539 207.66 184.542 207.67 184.544C207.742 184.559 207.812 184.581 207.88 184.612C207.89 184.616 207.899 184.62 207.909 184.626C207.919 184.63 207.929 184.635 207.938 184.64C207.957 184.65 207.977 184.661 207.996 184.672C208.007 184.679 208.018 184.686 208.029 184.693C208.039 184.7 208.049 184.706 208.058 184.713C208.076 184.725 208.094 184.738 208.112 184.752C208.132 184.768 208.152 184.785 208.171 184.802C208.186 184.816 208.2 184.829 208.215 184.844C208.215 184.845 208.217 184.845 208.218 184.847C208.227 184.856 208.237 184.866 208.247 184.876C208.276 184.907 208.304 184.94 208.329 184.974C208.338 184.985 208.345 184.995 208.352 185.005C208.36 185.015 208.367 185.026 208.374 185.037C208.389 185.059 208.403 185.081 208.416 185.104C208.541 185.313 208.612 185.564 208.612 185.835Z" fill="#FFB93E"/>
<path d="M185.339 190.489L159.957 190.428C159.412 190.427 158.964 189.873 158.937 189.183C158.937 189.161 158.936 189.138 158.936 189.116L158.942 185.717C158.942 185.695 158.943 185.672 158.944 185.65C158.973 184.961 159.423 184.408 159.968 184.41L182.232 184.463C182.242 184.512 182.252 184.561 182.263 184.611C182.632 186.37 183.462 188.738 185.339 190.489Z" fill="#FFA412"/>
<path d="M202.302 184.501L202.288 190.52L202.827 190.521L202.841 184.502L202.302 184.501Z" fill="#FFA412"/>
<path d="M200.479 184.496L200.466 190.515L201.004 190.516L201.018 184.498L200.479 184.496Z" fill="#FFA412"/>
<path d="M198.312 184.506L198.297 190.525L198.836 190.526L198.85 184.508L198.312 184.506Z" fill="#FFA412"/>
<path d="M194.961 184.498L194.947 190.517L195.485 190.518L195.499 184.5L194.961 184.498Z" fill="#FFA412"/>
<path d="M191.41 184.484L191.398 190.503L191.936 190.504L191.949 184.485L191.41 184.484Z" fill="#FFA412"/>
<path d="M185.978 184.468L185.962 190.487L186.501 190.488L186.516 184.469L185.978 184.468Z" fill="#FFA412"/>
<path d="M180.901 184.465L180.887 190.484L181.425 190.485L181.44 184.466L180.901 184.465Z" fill="#FFA412"/>
<path d="M176.353 184.448L176.34 190.467L176.879 190.468L176.891 184.449L176.353 184.448Z" fill="#FFA412"/>
<path d="M204.037 184.505L204.023 190.524L204.562 190.525L204.576 184.506L204.037 184.505Z" fill="#FFA412"/>
<path d="M205.201 184.522L205.187 190.541L205.725 190.543L205.74 184.524L205.201 184.522Z" fill="#FFA412"/>
<path d="M206.308 184.525L206.294 190.544L206.832 190.545L206.847 184.527L206.308 184.525Z" fill="#FFA412"/>
<path d="M207.131 184.522L207.12 190.541L207.457 190.541C207.526 190.542 207.593 190.534 207.659 190.521L207.67 184.544C207.604 184.53 207.537 184.523 207.468 184.523L207.131 184.522Z" fill="#FFA412"/>
<path d="M207.88 184.612L207.869 190.454C208.089 190.357 208.277 190.185 208.408 189.965L208.417 185.103C208.287 184.883 208.099 184.709 207.88 184.612Z" fill="#FFA412"/>
<path d="M211.07 179.971L211.064 183.37C211.064 183.64 210.991 183.892 210.866 184.1C210.735 184.32 210.547 184.493 210.328 184.589C210.26 184.62 210.19 184.642 210.118 184.656C210.052 184.67 209.984 184.677 209.915 184.677L162.538 184.564C162.348 184.564 162.168 184.51 162.01 184.415C161.675 184.213 161.437 183.828 161.399 183.378C161.397 183.358 161.396 183.339 161.396 183.319C161.395 183.297 161.394 183.274 161.395 183.252L161.401 179.853C161.401 179.83 161.401 179.808 161.402 179.785C161.435 179.096 161.939 178.544 162.549 178.546L209.926 178.658C209.995 178.658 210.062 178.666 210.128 178.679C210.201 178.694 210.271 178.717 210.338 178.747C210.558 178.845 210.745 179.018 210.875 179.239C210.999 179.448 211.071 179.7 211.07 179.971Z" fill="#FFB93E"/>
<path d="M187.797 184.624L162.416 184.564C162.246 184.563 162.086 184.51 161.944 184.414C161.645 184.213 161.432 183.827 161.399 183.377C161.397 183.358 161.396 183.338 161.396 183.319C161.395 183.297 161.394 183.274 161.395 183.251L161.401 179.853C161.401 179.83 161.401 179.808 161.402 179.785C161.431 179.096 161.882 178.544 162.427 178.545L184.691 178.598C185.034 180.322 185.823 182.69 187.642 184.475C187.693 184.525 187.745 184.575 187.797 184.624Z" fill="#FFA412"/>
<path d="M212.216 173.955L212.21 177.354C212.209 177.624 212.137 177.876 212.012 178.084C211.881 178.304 211.693 178.477 211.473 178.573C211.406 178.604 211.336 178.626 211.263 178.64C211.197 178.654 211.13 178.661 211.061 178.661L163.685 178.548C163.074 178.547 162.571 177.992 162.542 177.303C162.541 177.281 162.54 177.258 162.54 177.236L162.547 173.837C162.547 173.814 162.547 173.792 162.548 173.769C162.578 173.131 163.011 172.612 163.56 172.539C163.604 172.532 163.649 172.53 163.696 172.53L211.072 172.642C211.141 172.642 211.208 172.65 211.274 172.663C211.347 172.678 211.417 172.701 211.484 172.731C211.704 172.829 211.891 173.002 212.021 173.223C212.145 173.432 212.217 173.684 212.216 173.955Z" fill="#FFB93E"/>
<path d="M188.943 178.608L163.561 178.548C163.016 178.547 162.568 177.992 162.541 177.303C162.541 177.281 162.54 177.258 162.54 177.236L162.547 173.837C162.547 173.814 162.547 173.792 162.548 173.769C162.574 173.132 162.962 172.612 163.451 172.538C163.491 172.532 163.531 172.529 163.572 172.529L185.837 172.582C185.838 172.585 185.838 172.589 185.839 172.592C186.192 174.363 187.017 176.81 188.943 178.608Z" fill="#FFA412"/>
<path d="M208.744 167.937L208.738 171.336C208.737 171.607 208.664 171.858 208.54 172.067C208.409 172.287 208.221 172.459 208.001 172.556C207.934 172.586 207.863 172.608 207.791 172.623C207.769 172.627 207.747 172.631 207.725 172.634C207.713 172.636 207.7 172.637 207.687 172.638C207.675 172.64 207.662 172.64 207.65 172.641C207.629 172.643 207.609 172.643 207.589 172.643L160.212 172.531C159.601 172.529 159.099 171.975 159.069 171.285C159.069 171.263 159.068 171.24 159.068 171.218L159.074 167.819C159.074 167.797 159.075 167.774 159.076 167.752C159.076 167.733 159.078 167.715 159.079 167.697C159.125 167.142 159.479 166.685 159.94 166.552C159.952 166.548 159.964 166.545 159.975 166.542C160.055 166.522 160.138 166.512 160.223 166.512L207.6 166.624C207.635 166.625 207.669 166.627 207.702 166.63C207.718 166.632 207.733 166.633 207.748 166.636H207.749C207.766 166.639 207.784 166.642 207.802 166.646C207.874 166.661 207.944 166.683 208.011 166.714C208.231 166.811 208.418 166.985 208.548 167.205C208.672 167.415 208.744 167.666 208.744 167.937Z" fill="#FFB93E"/>
<path d="M185.471 172.59L160.089 172.53C159.544 172.529 159.096 171.975 159.069 171.285C159.069 171.263 159.068 171.24 159.068 171.218L159.074 167.819C159.074 167.797 159.075 167.774 159.076 167.752C159.076 167.733 159.078 167.715 159.079 167.697C159.121 167.13 159.45 166.666 159.875 166.544C159.89 166.538 159.904 166.535 159.919 166.532C159.978 166.518 160.038 166.511 160.1 166.511L182.365 166.564C182.367 166.579 182.37 166.592 182.373 166.607C182.73 168.373 183.554 170.795 185.46 172.581C185.464 172.584 185.467 172.588 185.471 172.59Z" fill="#FFA412"/>
<path d="M208.655 161.961L208.649 165.36C208.648 165.63 208.576 165.882 208.451 166.09C208.32 166.31 208.132 166.483 207.912 166.58C207.86 166.603 207.805 166.622 207.749 166.636H207.748C207.732 166.64 207.718 166.644 207.702 166.646C207.637 166.66 207.569 166.667 207.5 166.667L160.123 166.554C160.073 166.554 160.023 166.551 159.975 166.542C159.956 166.54 159.937 166.537 159.919 166.532C159.404 166.425 159.007 165.92 158.981 165.309C158.98 165.287 158.979 165.264 158.979 165.242L158.985 161.843C158.985 161.82 158.986 161.798 158.987 161.776C159.019 161.086 159.523 160.534 160.134 160.536L207.511 160.648C207.542 160.648 207.572 160.65 207.602 160.653C207.614 160.654 207.628 160.656 207.64 160.657C207.654 160.659 207.669 160.661 207.683 160.664C207.693 160.665 207.703 160.667 207.713 160.67C207.786 160.684 207.856 160.707 207.923 160.737C207.933 160.742 207.942 160.746 207.953 160.751C207.962 160.756 207.972 160.761 207.982 160.766C208.001 160.776 208.02 160.787 208.039 160.798C208.06 160.811 208.081 160.824 208.101 160.839C208.12 160.851 208.137 160.864 208.155 160.878C208.175 160.894 208.195 160.911 208.214 160.928C208.229 160.941 208.243 160.955 208.258 160.969C208.259 160.97 208.26 160.971 208.261 160.972C208.27 160.982 208.28 160.992 208.29 161.002C208.319 161.033 208.347 161.066 208.373 161.1C208.381 161.11 208.388 161.12 208.395 161.131C208.403 161.141 208.41 161.152 208.417 161.163C208.432 161.184 208.446 161.207 208.46 161.229C208.584 161.439 208.656 161.69 208.655 161.961Z" fill="#FFB93E"/>
<path d="M185.382 166.615L160 166.554C159.98 166.554 159.96 166.553 159.94 166.552C159.918 166.55 159.896 166.548 159.875 166.544C159.387 166.466 159.005 165.945 158.981 165.309C158.98 165.287 158.979 165.264 158.979 165.242L158.985 161.843C158.985 161.82 158.986 161.798 158.987 161.776C159.016 161.086 159.466 160.534 160.011 160.535L182.275 160.588C182.285 160.637 182.296 160.687 182.306 160.737C182.672 162.481 183.492 164.824 185.337 166.571C185.352 166.586 185.367 166.6 185.382 166.615Z" fill="#FFA412"/>
<path d="M211.114 156.096L211.108 159.495C211.107 159.766 211.034 160.017 210.91 160.226C210.779 160.446 210.591 160.619 210.371 160.715C210.303 160.745 210.233 160.768 210.161 160.782C210.095 160.796 210.028 160.803 209.959 160.803L162.582 160.69C162.392 160.69 162.212 160.636 162.054 160.54C161.719 160.339 161.48 159.953 161.443 159.503C161.441 159.484 161.44 159.464 161.439 159.445C161.439 159.422 161.438 159.4 161.438 159.377L161.444 155.979C161.444 155.956 161.445 155.934 161.446 155.911C161.478 155.222 161.982 154.67 162.593 154.671L209.97 154.784C210.039 154.784 210.106 154.791 210.172 154.805C210.244 154.82 210.314 154.842 210.381 154.873C210.601 154.971 210.789 155.144 210.918 155.365C211.042 155.574 211.114 155.826 211.114 156.096Z" fill="#FFB93E"/>
<path d="M187.841 160.75L162.459 160.69C162.289 160.689 162.129 160.635 161.988 160.54C161.688 160.339 161.476 159.953 161.443 159.503C161.441 159.484 161.44 159.464 161.439 159.445C161.439 159.422 161.438 159.4 161.438 159.377L161.444 155.978C161.444 155.956 161.445 155.933 161.446 155.911C161.475 155.222 161.925 154.67 162.47 154.671L184.735 154.724C185.077 156.448 185.866 158.815 187.685 160.601C187.736 160.651 187.788 160.701 187.841 160.75Z" fill="#FFA412"/>
<path d="M214.996 150.087L214.99 153.486C214.99 153.757 214.917 154.008 214.792 154.217C214.662 154.437 214.474 154.609 214.254 154.706C214.186 154.736 214.116 154.758 214.044 154.773C213.978 154.786 213.91 154.793 213.841 154.793L166.465 154.68C165.854 154.679 165.352 154.125 165.322 153.435C165.321 153.413 165.321 153.39 165.321 153.368L165.327 149.969C165.327 149.947 165.327 149.924 165.328 149.902C165.358 149.264 165.791 148.744 166.34 148.671C166.384 148.665 166.43 148.662 166.476 148.662L213.852 148.774C213.922 148.774 213.989 148.782 214.055 148.796C214.127 148.81 214.197 148.833 214.264 148.864C214.484 148.961 214.671 149.135 214.801 149.355C214.925 149.565 214.997 149.816 214.996 150.087Z" fill="#FFB93E"/>
<path d="M191.723 154.741L166.341 154.68C165.796 154.679 165.348 154.125 165.322 153.435C165.321 153.413 165.32 153.39 165.32 153.368L165.327 149.969C165.327 149.947 165.327 149.924 165.328 149.902C165.355 149.264 165.742 148.744 166.231 148.671C166.271 148.664 166.311 148.661 166.353 148.661L188.617 148.714C188.618 148.717 188.618 148.721 188.619 148.724C188.972 150.496 189.797 152.942 191.723 154.741Z" fill="#FFA412"/>
<path d="M208.787 144.063L208.781 147.462C208.78 147.733 208.708 147.984 208.583 148.193C208.452 148.412 208.265 148.585 208.044 148.681C207.977 148.712 207.907 148.734 207.835 148.748C207.813 148.753 207.79 148.757 207.768 148.76C207.75 148.763 207.733 148.764 207.715 148.765C207.706 148.766 207.697 148.767 207.688 148.768C207.67 148.768 207.651 148.769 207.632 148.769L160.255 148.656C159.645 148.655 159.143 148.101 159.113 147.411C159.112 147.389 159.112 147.366 159.112 147.344L159.118 143.945C159.118 143.922 159.119 143.9 159.119 143.877C159.152 143.188 159.656 142.636 160.266 142.638L207.643 142.75C207.664 142.75 207.684 142.751 207.704 142.752C207.752 142.756 207.799 142.762 207.845 142.772C207.918 142.786 207.988 142.809 208.055 142.84C208.089 142.855 208.123 142.872 208.154 142.891C208.175 142.902 208.194 142.914 208.213 142.927C208.215 142.928 208.218 142.929 208.22 142.931C208.239 142.944 208.258 142.958 208.277 142.973C208.281 142.975 208.284 142.978 208.287 142.98C208.304 142.993 208.321 143.007 208.338 143.023C208.378 143.058 208.416 143.095 208.452 143.137C208.463 143.149 208.474 143.162 208.484 143.175C208.486 143.177 208.488 143.18 208.49 143.182C208.497 143.19 208.503 143.198 208.509 143.207C208.511 143.209 208.512 143.211 208.513 143.212C208.524 143.227 208.536 143.243 208.547 143.26C208.562 143.283 208.577 143.306 208.592 143.331C208.716 143.541 208.788 143.792 208.787 144.063Z" fill="#FFB93E"/>
<path d="M185.514 148.716L160.132 148.656C159.588 148.655 159.139 148.1 159.113 147.411C159.112 147.389 159.112 147.366 159.112 147.344L159.118 143.945C159.118 143.922 159.119 143.9 159.119 143.877C159.148 143.188 159.599 142.636 160.144 142.637L182.408 142.69C182.417 142.736 182.426 142.782 182.437 142.829C182.803 144.586 183.632 146.953 185.504 148.707C185.507 148.71 185.511 148.713 185.514 148.716Z" fill="#FFA412"/>
<path d="M212.281 138.191L212.275 141.59C212.274 141.861 212.202 142.112 212.077 142.321C211.946 142.541 211.758 142.714 211.538 142.81C211.471 142.84 211.401 142.862 211.329 142.877C211.263 142.891 211.195 142.898 211.126 142.897L163.749 142.785C163.566 142.785 163.391 142.734 163.238 142.645C162.893 142.446 162.646 142.052 162.61 141.593C162.609 141.576 162.607 141.558 162.607 141.54C162.606 141.517 162.605 141.495 162.605 141.472L162.612 138.073C162.612 138.051 162.612 138.028 162.613 138.006C162.643 137.368 163.076 136.849 163.625 136.776C163.669 136.769 163.714 136.766 163.761 136.766L211.137 136.879C211.206 136.879 211.274 136.887 211.339 136.9C211.412 136.915 211.482 136.938 211.549 136.968C211.769 137.066 211.956 137.239 212.086 137.46C212.21 137.669 212.282 137.921 212.281 138.191Z" fill="#FFB93E"/>
<path d="M189.008 142.845L163.626 142.785C163.462 142.784 163.307 142.734 163.17 142.644C162.862 142.446 162.642 142.052 162.61 141.593C162.608 141.576 162.607 141.558 162.607 141.54C162.606 141.517 162.605 141.495 162.605 141.472L162.612 138.073C162.612 138.051 162.612 138.028 162.613 138.006C162.64 137.369 163.027 136.848 163.516 136.775C163.556 136.769 163.596 136.766 163.637 136.766L185.902 136.819C185.903 136.822 185.903 136.825 185.904 136.828C186.248 138.554 187.04 140.922 188.862 142.705C188.91 142.753 188.959 142.799 189.008 142.845Z" fill="#FFA412"/>
<path d="M208.809 132.174L208.803 135.573C208.802 135.843 208.729 136.095 208.605 136.303C208.474 136.523 208.286 136.696 208.066 136.792C207.999 136.823 207.928 136.845 207.856 136.859C207.834 136.864 207.812 136.868 207.79 136.871C207.778 136.872 207.765 136.874 207.752 136.875C207.74 136.876 207.728 136.877 207.715 136.878C207.694 136.879 207.674 136.88 207.654 136.88L160.277 136.767C159.666 136.766 159.164 136.212 159.134 135.522C159.134 135.5 159.133 135.477 159.133 135.455L159.139 132.056C159.139 132.033 159.14 132.011 159.141 131.988C159.173 131.299 159.677 130.747 160.288 130.749L207.665 130.861C207.734 130.861 207.801 130.869 207.867 130.882C207.939 130.897 208.009 130.92 208.077 130.95C208.296 131.048 208.484 131.221 208.614 131.442C208.738 131.651 208.809 131.903 208.809 132.174Z" fill="#FFB93E"/>
<path d="M185.536 136.827L160.154 136.767C159.609 136.766 159.161 136.212 159.134 135.522C159.134 135.5 159.133 135.477 159.133 135.455L159.139 132.056C159.139 132.033 159.14 132.011 159.141 131.988C159.17 131.299 159.62 130.747 160.165 130.748L182.43 130.801C182.781 132.571 183.603 135.018 185.526 136.818C185.529 136.821 185.533 136.824 185.536 136.827Z" fill="#FFA412"/>
<path d="M204.779 178.651L204.764 184.67L205.302 184.671L205.317 178.652L204.779 178.651Z" fill="#FFA412"/>
<path d="M202.948 178.641L202.935 184.66L203.473 184.661L203.486 178.642L202.948 178.641Z" fill="#FFA412"/>
<path d="M200.755 178.63L200.743 184.649L201.281 184.65L201.294 178.631L200.755 178.63Z" fill="#FFA412"/>
<path d="M197.42 178.634L197.405 184.652L197.944 184.654L197.958 178.635L197.42 178.634Z" fill="#FFA412"/>
<path d="M193.877 178.625L193.863 184.644L194.401 184.645L194.415 178.627L193.877 178.625Z" fill="#FFA412"/>
<path d="M188.445 178.612L188.431 184.631L188.969 184.632L188.984 178.614L188.445 178.612Z" fill="#FFA412"/>
<path d="M183.352 178.594L183.339 184.613L183.878 184.614L183.891 178.596L183.352 178.594Z" fill="#FFA412"/>
<path d="M178.819 178.59L178.805 184.608L179.343 184.609L179.357 178.591L178.819 178.59Z" fill="#FFA412"/>
<path d="M206.514 178.655L206.499 184.674L207.038 184.675L207.052 178.656L206.514 178.655Z" fill="#FFA412"/>
<path d="M207.651 178.652L207.639 184.671L208.177 184.672L208.19 178.653L207.651 178.652Z" fill="#FFA412"/>
<path d="M208.767 178.661L208.752 184.679L209.291 184.68L209.305 178.662L208.767 178.661Z" fill="#FFA412"/>
<path d="M209.59 178.657L209.579 184.676L209.915 184.677C209.984 184.677 210.052 184.67 210.118 184.656L210.129 178.679C210.063 178.665 209.995 178.658 209.926 178.658L209.59 178.657Z" fill="#FFA412"/>
<path d="M210.338 178.747L210.328 184.589C210.547 184.493 210.736 184.32 210.866 184.101L210.875 179.239C210.745 179.018 210.558 178.845 210.338 178.747Z" fill="#FFA412"/>
<path d="M189.591 172.596L189.577 178.615L190.115 178.616L190.13 172.597L189.591 172.596Z" fill="#FFA412"/>
<path d="M184.489 172.57L184.475 178.588L185.014 178.59L185.027 172.571L184.489 172.57Z" fill="#FFA412"/>
<path d="M179.965 172.573L179.95 178.592L180.489 178.594L180.503 172.575L179.965 172.573Z" fill="#FFA412"/>
<path d="M208.177 178.654L208.189 172.635L207.716 172.634C207.741 172.631 207.766 172.627 207.791 172.622L207.802 166.646C207.769 166.639 207.736 166.633 207.702 166.63L207.713 160.797L207.923 160.798L207.912 166.58C208.132 166.483 208.32 166.311 208.451 166.091L208.46 161.229C208.353 161.047 208.205 160.9 208.033 160.798L208.221 160.799L208.232 154.78L207.694 154.779L207.683 160.665C207.627 160.655 207.57 160.649 207.511 160.648L207.175 160.647L207.164 166.666L207.264 166.667L207.253 172.642L207.589 172.643C207.61 172.643 207.63 172.641 207.65 172.64L207.639 178.653L208.177 178.654Z" fill="#FFA412"/>
<path d="M208.806 172.642L208.792 178.66L209.33 178.662L209.344 172.643L208.806 172.642Z" fill="#FFA412"/>
<path d="M209.903 172.636L209.887 178.655L210.426 178.656L210.441 172.637L209.903 172.636Z" fill="#FFA412"/>
<path d="M210.736 172.641L210.725 178.66L211.061 178.661C211.13 178.661 211.197 178.654 211.263 178.64L211.274 172.663C211.208 172.649 211.141 172.642 211.072 172.642L210.736 172.641Z" fill="#FFA412"/>
<path d="M211.484 172.731L211.473 178.573C211.693 178.477 211.881 178.304 212.012 178.084L212.021 173.223C211.891 173.002 211.703 172.829 211.484 172.731Z" fill="#FFA412"/>
<path d="M202.97 172.632L202.981 166.614L202.882 166.613L202.893 160.638L202.354 160.636L202.343 166.655L202.443 166.655L202.432 172.621L201.906 172.62L201.896 178.639L202.434 178.64L202.445 172.631L202.97 172.632Z" fill="#FFA412"/>
<path d="M198.973 166.604L198.873 166.604L198.884 160.628L198.346 160.627L198.335 166.645L198.434 166.645L198.424 172.621L198.556 172.622L198.545 178.631L199.084 178.632L199.095 172.613L198.962 172.613L198.973 166.604Z" fill="#FFA412"/>
<path d="M208.012 166.714L208.001 172.556C208.221 172.459 208.409 172.287 208.54 172.067L208.549 167.205C208.419 166.985 208.231 166.811 208.012 166.714Z" fill="#FFA412"/>
<path d="M195.534 160.62L194.995 160.619L194.984 166.638L195.084 166.638L195.073 172.604L195.013 172.604L195.003 178.623L195.541 178.624L195.552 172.615L195.612 172.615L195.622 166.596L195.523 166.596L195.534 160.62Z" fill="#FFA412"/>
<path d="M191.991 160.612L191.453 160.61L191.442 166.629L191.541 166.629L191.53 172.605L192.069 172.606L192.08 166.587L191.98 166.587L191.991 160.612Z" fill="#FFA412"/>
<path d="M186.56 160.599L186.021 160.598L186.01 166.616L186.11 166.616L186.099 172.592L186.638 172.593L186.648 166.575L186.549 166.574L186.56 160.599Z" fill="#FFA412"/>
<path d="M181.474 160.587L180.936 160.585L180.925 166.604L181.025 166.604L181.014 172.58L181.552 172.581L181.563 166.563L181.463 166.562L181.474 160.587Z" fill="#FFA412"/>
<path d="M176.933 160.576L176.395 160.574L176.384 166.593L176.484 166.593L176.473 172.569L177.011 172.57L177.022 166.552L176.923 166.552L176.933 160.576Z" fill="#FFA412"/>
<path d="M204.627 160.642L204.089 160.641L204.078 166.659L204.178 166.659L204.167 172.626H204.092L204.081 178.644L204.62 178.645L204.631 172.636L204.705 172.636L204.716 166.618L204.617 166.617L204.627 160.642Z" fill="#FFA412"/>
<path d="M205.774 160.645L205.34 160.643L205.351 154.773L204.813 154.772L204.802 160.791L205.235 160.792L205.224 166.662L205.324 166.662L205.313 172.638L205.851 172.639L205.863 166.621L205.763 166.62L205.774 160.645Z" fill="#FFA412"/>
<path d="M202.999 154.772L202.985 160.791L203.523 160.792L203.538 154.773L202.999 154.772Z" fill="#FFA412"/>
<path d="M200.794 160.633L200.531 160.632L200.521 166.651L200.62 166.651L200.609 172.627L201.148 172.628L201.159 166.609L201.059 166.609L201.07 160.782L201.332 160.782L201.343 154.764L200.804 154.762L200.794 160.633Z" fill="#FFA412"/>
<path d="M197.447 154.746L197.432 160.765L197.97 160.767L197.986 154.748L197.447 154.746Z" fill="#FFA412"/>
<path d="M193.92 154.751L193.906 160.769L194.445 160.771L194.459 154.752L193.92 154.751Z" fill="#FFA412"/>
<path d="M188.472 154.725L188.458 160.743L188.996 160.745L189.01 154.726L188.472 154.725Z" fill="#FFA412"/>
<path d="M183.39 154.715L183.377 160.734L183.915 160.735L183.928 154.717L183.39 154.715Z" fill="#FFA412"/>
<path d="M178.862 154.715L178.848 160.734L179.386 160.735L179.401 154.716L178.862 154.715Z" fill="#FFA412"/>
<path d="M206.537 160.646L206.342 160.646L206.331 166.664L206.431 166.665L206.42 172.631L205.915 172.63L205.904 178.648L206.443 178.65L206.453 172.64L206.958 172.642L206.969 166.623L206.87 166.623L206.88 160.796L207.075 160.796L207.086 154.777L206.548 154.776L206.537 160.646Z" fill="#FFA412"/>
<path d="M208.81 154.786L208.796 160.805L209.334 160.806L209.349 154.787L208.81 154.786Z" fill="#FFA412"/>
<path d="M210.161 160.782L210.172 154.805C210.106 154.791 210.039 154.784 209.97 154.784L209.633 154.783L209.622 160.802L209.959 160.803C210.028 160.803 210.095 160.796 210.161 160.782Z" fill="#FFA412"/>
<path d="M210.91 160.226L210.919 155.365C210.789 155.144 210.601 154.971 210.382 154.873L210.371 160.715C210.591 160.619 210.779 160.446 210.91 160.226Z" fill="#FFA412"/>
<path d="M208.705 148.766L208.69 154.785L209.229 154.786L209.243 148.768L208.705 148.766Z" fill="#FFA412"/>
<path d="M201.346 148.749L201.332 154.768L201.87 154.769L201.884 148.75L201.346 148.749Z" fill="#FFA412"/>
<path d="M197.803 148.741L197.789 154.76L198.327 154.761L198.342 148.742L197.803 148.741Z" fill="#FFA412"/>
<path d="M192.372 148.728L192.357 154.746L192.895 154.748L192.91 148.729L192.372 148.728Z" fill="#FFA412"/>
<path d="M187.286 148.716L187.272 154.734L187.81 154.736L187.825 148.717L187.286 148.716Z" fill="#FFA412"/>
<path d="M182.737 148.7L182.725 154.719L183.263 154.72L183.276 148.701L182.737 148.7Z" fill="#FFA412"/>
<path d="M210.44 148.771L210.426 154.79L210.964 154.791L210.979 148.772L210.44 148.771Z" fill="#FFA412"/>
<path d="M211.586 148.773L211.572 154.792L212.11 154.793L212.125 148.775L211.586 148.773Z" fill="#FFA412"/>
<path d="M212.674 148.763L212.66 154.782L213.199 154.783L213.212 148.765L212.674 148.763Z" fill="#FFA412"/>
<path d="M213.516 148.773L213.505 154.792L213.842 154.793C213.911 154.793 213.978 154.786 214.044 154.772L214.055 148.795C213.989 148.782 213.922 148.774 213.853 148.774L213.516 148.773Z" fill="#FFA412"/>
<path d="M214.264 148.864L214.254 154.706C214.474 154.609 214.662 154.437 214.793 154.217L214.802 149.355C214.671 149.135 214.484 148.961 214.264 148.864Z" fill="#FFA412"/>
<path d="M202.475 148.757L203.014 148.758L203.025 142.74L202.499 142.738L202.51 136.868L203.035 136.869L203.046 130.85L202.508 130.849L202.497 136.858L201.972 136.857L201.961 142.876L202.486 142.877L202.475 148.757Z" fill="#FFA412"/>
<path d="M200.657 142.726L200.641 148.745L201.18 148.746L201.195 142.728L200.657 142.726Z" fill="#FFA412"/>
<path d="M191.594 142.717L191.579 148.735L192.118 148.737L192.132 142.718L191.594 142.717Z" fill="#FFA412"/>
<path d="M186.145 142.691L186.132 148.71L186.67 148.711L186.684 142.693L186.145 142.691Z" fill="#FFA412"/>
<path d="M181.077 142.692L181.062 148.71L181.601 148.711L181.615 142.693L181.077 142.692Z" fill="#FFA412"/>
<path d="M176.52 142.669L176.506 148.687L177.044 148.688L177.058 142.67L176.52 142.669Z" fill="#FFA412"/>
<path d="M204.21 148.761L204.687 148.762L204.676 154.771L205.215 154.773L205.226 148.754L204.749 148.753L204.76 142.744L204.685 142.743L204.696 136.873L204.77 136.873L204.781 130.855L204.243 130.853L204.232 136.862L204.158 136.862L204.146 142.881L204.221 142.881L204.21 148.761Z" fill="#FFA412"/>
<path d="M205.359 142.739L205.348 148.758L205.887 148.759L205.897 142.74L205.359 142.739Z" fill="#FFA412"/>
<path d="M208.148 142.89L208.243 142.891L208.253 136.872L207.781 136.871C207.806 136.868 207.832 136.864 207.856 136.859L207.867 130.882C207.801 130.869 207.734 130.861 207.665 130.861L207.328 130.86L207.318 136.879L207.654 136.88C207.675 136.88 207.695 136.878 207.715 136.877L207.704 142.753C207.684 142.752 207.664 142.75 207.643 142.75L207.307 142.749L207.296 148.759L207.002 148.758L207.013 142.749L206.508 142.748L206.519 136.877L207.023 136.878L207.034 130.86L206.496 130.858L206.485 136.868L205.98 136.866L205.969 142.885L206.474 142.886L206.463 148.766L206.873 148.767L206.862 154.777L207.4 154.778L207.411 148.768L207.632 148.769C207.702 148.769 207.769 148.762 207.835 148.748L207.845 142.89L208.055 142.89L208.044 148.682C208.265 148.585 208.452 148.413 208.583 148.193L208.592 143.331C208.481 143.143 208.327 142.992 208.148 142.89Z" fill="#FFA412"/>
<path d="M189.648 136.827L189.635 142.846L190.174 142.847L190.186 136.828L189.648 136.827Z" fill="#FFA412"/>
<path d="M184.571 136.82L184.556 142.838L185.095 142.84L185.109 136.821L184.571 136.82Z" fill="#FFA412"/>
<path d="M180.03 136.809L180.015 142.828L180.554 142.829L180.568 136.81L180.03 136.809Z" fill="#FFA412"/>
<path d="M208.852 136.866L208.839 142.885L209.377 142.886L209.391 136.867L208.852 136.866Z" fill="#FFA412"/>
<path d="M209.978 136.88L209.963 142.899L210.501 142.9L210.516 136.881L209.978 136.88Z" fill="#FFA412"/>
<path d="M210.801 136.878L210.79 142.897L211.126 142.897C211.195 142.897 211.262 142.89 211.329 142.877L211.339 136.9C211.274 136.886 211.206 136.879 211.137 136.879L210.801 136.878Z" fill="#FFA412"/>
<path d="M212.077 142.321L212.086 137.459C211.956 137.239 211.769 137.065 211.549 136.968L211.538 142.81C211.758 142.713 211.946 142.541 212.077 142.321Z" fill="#FFA412"/>
<path d="M200.694 130.849L200.68 136.867L201.218 136.868L201.233 130.85L200.694 130.849Z" fill="#FFA412"/>
<path d="M199.038 130.841L198.499 130.84L198.488 136.858L198.621 136.859L198.611 142.729L198.478 142.729L198.467 148.747L199.005 148.749L199.016 142.869L199.149 142.869L199.16 136.85L199.027 136.85L199.038 130.841Z" fill="#FFA412"/>
<path d="M195.138 136.841L195.078 136.841L195.068 142.859L195.127 142.86L195.116 148.739L195.655 148.741L195.666 142.722L195.606 142.722L195.617 136.851L195.677 136.852L195.687 130.833L195.149 130.832L195.138 136.841Z" fill="#FFA412"/>
<path d="M191.615 130.827L191.601 136.846L192.139 136.847L192.154 130.828L191.615 130.827Z" fill="#FFA412"/>
<path d="M186.184 130.814L186.169 136.833L186.708 136.834L186.722 130.815L186.184 130.814Z" fill="#FFA412"/>
<path d="M181.09 130.795L181.074 136.814L181.613 136.816L181.628 130.797L181.09 130.795Z" fill="#FFA412"/>
<path d="M176.55 130.787L176.537 136.805L177.076 136.807L177.088 130.788L176.55 130.787Z" fill="#FFA412"/>
<path d="M205.382 130.849L205.366 136.867L205.905 136.869L205.921 130.85L205.382 130.849Z" fill="#FFA412"/>
<path d="M208.077 130.95L208.066 136.792C208.286 136.696 208.474 136.523 208.605 136.304L208.614 131.442C208.484 131.221 208.296 131.048 208.077 130.95Z" fill="#FFA412"/>
<path d="M223.862 146.997L227.207 147.591C227.474 147.639 227.708 147.754 227.893 147.913C228.086 148.08 228.224 148.295 228.281 148.528C228.299 148.599 228.309 148.673 228.31 148.746C228.312 148.814 228.307 148.881 228.295 148.949L219.985 195.612C219.878 196.214 219.245 196.613 218.561 196.523C218.539 196.52 218.517 196.516 218.495 196.512L215.15 195.918C215.128 195.914 215.106 195.909 215.084 195.905C214.411 195.754 213.954 195.161 214.062 194.56L222.372 147.897C222.377 147.867 222.384 147.837 222.392 147.808C222.395 147.796 222.399 147.783 222.403 147.771C222.407 147.757 222.412 147.743 222.417 147.73C222.42 147.721 222.424 147.711 222.428 147.701C222.455 147.633 222.49 147.567 222.531 147.506C222.537 147.497 222.543 147.489 222.55 147.479C222.556 147.471 222.563 147.462 222.569 147.453C222.583 147.436 222.597 147.419 222.611 147.402C222.619 147.392 222.628 147.382 222.637 147.373C222.645 147.364 222.653 147.356 222.662 147.348C222.677 147.332 222.693 147.317 222.709 147.302C222.729 147.285 222.749 147.268 222.769 147.252C222.784 147.24 222.801 147.228 222.817 147.216C222.818 147.215 222.819 147.214 222.821 147.214C222.832 147.206 222.843 147.198 222.855 147.19C222.89 147.167 222.928 147.145 222.966 147.126C222.977 147.119 222.988 147.114 223 147.109C223.011 147.103 223.023 147.098 223.035 147.092C223.059 147.082 223.083 147.071 223.108 147.062C223.335 146.977 223.595 146.949 223.862 146.997Z" fill="#FFB93E"/>
<path d="M224.416 170.734L219.963 195.733C219.868 196.271 219.245 196.616 218.561 196.523C218.539 196.52 218.517 196.516 218.495 196.512L215.15 195.918C215.128 195.914 215.106 195.909 215.084 195.905C214.41 195.757 213.944 195.218 214.04 194.681L217.945 172.752C217.996 172.751 218.046 172.749 218.097 172.748C219.892 172.689 222.367 172.281 224.416 170.734Z" fill="#FFA412"/>
<path d="M221.549 152.45L221.454 152.98L227.377 154.037L227.471 153.507L221.549 152.45Z" fill="#FFA412"/>
<path d="M221.23 154.242L221.136 154.773L227.058 155.827L227.153 155.297L221.23 154.242Z" fill="#FFA412"/>
<path d="M220.85 156.382L220.755 156.912L226.678 157.968L226.772 157.437L220.85 156.382Z" fill="#FFA412"/>
<path d="M220.262 159.681L220.167 160.212L226.09 161.267L226.185 160.737L220.262 159.681Z" fill="#FFA412"/>
<path d="M219.637 163.184L219.543 163.714L225.466 164.769L225.56 164.238L219.637 163.184Z" fill="#FFA412"/>
<path d="M218.709 168.534L218.615 169.064L224.538 170.121L224.632 169.59L218.709 168.534Z" fill="#FFA412"/>
<path d="M217.792 173.542L217.698 174.072L223.621 175.127L223.715 174.596L217.792 173.542Z" fill="#FFA412"/>
<path d="M217.004 178.027L216.909 178.557L222.832 179.615L222.926 179.084L217.004 178.027Z" fill="#FFA412"/>
<path d="M221.857 150.725L221.762 151.256L227.685 152.311L227.78 151.781L221.857 150.725Z" fill="#FFA412"/>
<path d="M222.08 149.609L221.985 150.139L227.908 151.195L228.002 150.665L222.08 149.609Z" fill="#FFA412"/>
<path d="M222.252 148.506L222.158 149.037L228.08 150.092L228.175 149.562L222.252 148.506Z" fill="#FFA412"/>
<path d="M222.313 148.228L228.236 149.281L228.295 148.949C228.307 148.881 228.312 148.814 228.31 148.747L222.428 147.701C222.403 147.764 222.384 147.829 222.372 147.897L222.313 148.228Z" fill="#FFA412"/>
<path d="M222.531 147.507L228.28 148.528C228.223 148.295 228.086 148.08 227.892 147.912L223.108 147.062C222.868 147.152 222.665 147.307 222.531 147.507Z" fill="#FFA412"/>
<path d="M336.777 196.516H316.418C315.327 195.59 317.173 193.488 319.102 193.346C319.939 193.283 320.999 193.458 322.209 193.714C322.489 189.992 324.089 173.256 330.119 173.928C336.899 174.681 330.119 181.298 328.202 185.216C326.783 188.118 325.285 192.279 324.601 194.243C325.151 194.362 325.721 194.479 326.303 194.586C327.201 191.826 330.545 182.541 334.797 183.082C339.79 183.715 337.783 187.438 334.244 189.648C331.648 191.273 328.461 193.583 326.946 194.699C328.229 194.908 329.568 195.049 330.927 195.018C334.415 194.935 336.117 195.963 336.777 196.516Z" fill="#82B378"/>
<path d="M71.3163 195.84C70.5078 194.569 68.074 191.271 64.8331 191.708C61.3016 192.183 68.7333 194.513 71.0085 195.85C70.5033 195.857 70.0687 195.816 69.7497 195.702C68.2287 195.16 65.6237 196.2 64.7908 196.565H79.2718C79.1715 196.218 78.9107 195.653 78.2362 195.24C77.9984 195.095 77.5203 195.074 76.9037 195.122C77.7646 194.106 78.3625 190.862 75.9656 191.697C74.2145 192.307 74.2192 194.289 74.3911 195.461C74.0185 195.52 73.6406 195.579 73.2675 195.633C72.5464 191.956 69.9966 181.183 64.8279 180.896C59.5881 180.604 69.2712 192.069 72.4951 195.735C72.0821 195.785 71.6844 195.823 71.3163 195.84Z" fill="#82B378"/>
<path d="M214.905 104.337C223.048 96.1894 223.048 82.98 214.905 74.8327C206.761 66.6853 193.557 66.6854 185.414 74.8327C177.27 82.98 177.27 96.1894 185.414 104.337C193.557 112.484 206.761 112.484 214.905 104.337Z" fill="#E2810E"/>
<path d="M218.732 95.7585C221.658 84.6142 214.999 73.2075 203.86 70.2809C192.72 67.3543 181.319 74.0159 178.393 85.1602C175.468 96.3044 182.127 107.711 193.266 110.638C204.405 113.564 215.807 106.903 218.732 95.7585Z" fill="#FFB93E"/>
<path d="M200.053 82.695L201.566 81.8217L201.768 79.2193L191.461 85.17L191.259 87.7724L196.253 84.8893C197.415 84.2181 198.807 84.3159 199.842 85.0199L193.263 88.8187L193.06 91.4211L201.144 86.754C201.622 88.2313 201.018 89.8957 199.612 90.7078L194.736 93.523L195.965 95.6593L203.852 100.255L206.545 98.7002L198.438 93.8699L200.631 92.6039C200.65 92.5939 200.67 92.5826 200.688 92.5719C200.703 92.5635 200.717 92.5552 200.73 92.5464C203.144 91.1261 204.09 88.1662 203.041 85.6587L203.596 85.3383L203.798 82.7359L201.834 83.8698C201.317 83.358 200.711 82.963 200.053 82.695Z" fill="#FFA412"/>
<path d="M198.719 109.683C192.015 109.684 185.507 106.132 182.048 99.8547C179.598 95.4083 179.026 90.2733 180.436 85.396C181.846 80.5189 185.071 76.4828 189.515 74.0318C193.959 71.5805 199.092 71.008 203.967 72.4188C208.842 73.8298 212.876 77.0556 215.327 81.502C220.384 90.6809 217.035 102.265 207.86 107.325C204.959 108.924 201.818 109.683 198.719 109.683ZM198.662 72.7955C195.685 72.7955 192.741 73.5472 190.062 75.0247C185.883 77.3297 182.851 81.1246 181.525 85.7111C180.198 90.2974 180.737 95.126 183.041 99.307C186.293 105.209 192.414 108.549 198.717 108.549C201.632 108.55 204.585 107.836 207.313 106.332C215.94 101.574 219.09 90.6803 214.334 82.0492C212.03 77.868 208.236 74.8346 203.652 73.5081C202.006 73.0316 200.329 72.7955 198.662 72.7955Z" fill="#FFA412"/>
<path d="M219.32 78.3559C218.447 77.7397 216.469 76.3839 216.366 76.6859C216.292 76.9031 216.398 77.2723 216.635 77.6564C215.438 77.2093 214.224 76.9157 211.35 77.4679C210.775 77.5786 210.253 77.9056 209.937 78.3989C209.644 78.8551 209.534 79.4256 210.267 79.8819C211.733 80.794 211.308 80.2474 213.346 81.5757C215.384 82.9039 217.879 83.2429 219.37 82.3108L221.37 81.9771L221.618 78.6853C221.618 78.6853 220.478 78.5495 219.32 78.3559Z" fill="#FFB27D"/>
<path d="M271.74 50.746C271.74 50.746 267.024 56.3433 261.018 54.0019C261.018 54.0019 259.726 50.8759 259.708 48.5715C259.706 48.2878 259.702 48.0129 259.698 47.7517C259.666 45.1566 259.579 43.7006 259.579 43.7006C259.579 43.7006 259.58 43.6999 259.585 43.6993C259.858 43.5854 268.766 39.9266 268.758 40.2306C268.605 47.2487 271.74 50.746 271.74 50.746Z" fill="#FFB27D"/>
<path d="M267.864 41.9038C267.005 43.4968 264.057 46.613 259.698 47.7515C259.666 45.1564 259.579 43.7004 259.579 43.7004C259.579 43.7004 259.58 43.6997 259.585 43.6991C259.831 43.633 268.119 41.4344 267.864 41.9038Z" fill="#ED975D"/>
<path d="M257.713 43.4305C257.713 43.4305 267.73 45.7865 269.101 39.5228C270.471 33.2592 272.688 29.3448 266.35 27.5758C260.012 25.8066 258.242 27.9236 257.276 29.9029C256.31 31.8824 255.142 42.6563 257.713 43.4305Z" fill="#FFB27D"/>
<path d="M268.758 41.2298C268.895 41.3173 271.051 41.9798 275.133 33.8443C275.773 32.5672 276.21 29.8044 274.716 27.3633C273.223 24.9222 267.926 23.0028 263.526 22.1675C259.125 21.3323 258.069 23.8094 257.033 26.2991C255.945 28.9126 252.803 31.0642 252.803 31.0642C256.598 33.1848 261.168 30.1516 262.751 30.6506C264.335 31.1492 264.894 33.6459 265.013 34.4461C265.132 35.2464 265.314 35.9114 267.305 35.1967C269.297 34.4819 268.206 38.0194 267.887 38.6958C267.887 38.6958 267.616 40.4977 268.758 41.2298Z" fill="#A9453D"/>
<path d="M294.564 197.434H300.629C301.901 197.434 303.314 196.16 303.668 193.828C304.021 191.494 306.635 190.222 307.201 188.313C307.767 186.404 304.869 183.717 304.869 183.717L304.384 183.094L303.88 182.445L299.075 183.575C299.075 183.575 298.957 184.72 298.882 186.178C298.831 187.231 298.803 188.448 298.863 189.514C299.004 192.06 298.15 194.801 295.89 195.296C293.628 195.792 294.564 197.434 294.564 197.434Z" fill="#000008"/>
<path d="M252.337 197.434H268.416C268.57 197.403 268.686 197.37 268.757 197.334C269.831 196.797 269.494 192.685 269.365 191.415C269.341 191.179 269.323 191.041 269.323 191.041C269.323 191.041 263.669 186.517 262.891 189.981C262.866 190.089 262.838 190.196 262.808 190.3V190.302C261.826 193.543 257.439 195.015 254.905 195.425C252.968 195.74 252.466 196.869 252.337 197.434Z" fill="#000008"/>
<path d="M255.578 104.672C255.578 104.672 256.436 115.39 257.445 128.273C258.817 145.774 260.466 167.271 260.63 171.343C260.912 178.415 262.044 189.726 262.044 189.726C262.044 189.726 264.728 192.414 270.1 191.281C270.1 191.281 274.888 175.133 276.255 158.048C276.276 157.768 276.298 157.486 276.319 157.204C277.591 139.811 279.569 103.187 279.569 103.187L255.578 104.672Z" fill="#0D1326"/>
<path d="M255.578 104.672C255.578 104.672 256.436 115.39 257.445 128.273L276.255 158.048C276.276 157.768 276.298 157.486 276.319 157.204C277.591 139.811 279.569 103.187 279.569 103.187L255.578 104.672Z" fill="#000008"/>
<path d="M259.499 105.945C259.499 105.945 274.976 144.76 285.152 163.001C295.329 181.242 298.509 186.333 298.509 186.333C298.509 186.333 304.339 183.999 304.869 182.409C304.869 182.409 300.978 147.193 294.163 138.609C290.312 133.758 285.788 119.201 285.576 114.111C285.364 109.02 284.198 98.9451 284.198 98.9451L259.499 105.945Z" fill="#0D1326"/>
<path d="M294.794 98.8922L294.958 101.389C294.958 101.389 293.312 105.823 297.923 108.098C297.923 108.098 299.897 108.895 299.977 107.357C300.057 105.82 299.804 106.399 299.965 104.234C300.125 102.069 299.274 100.023 297.843 99.3343L296.669 97.9788L294.794 98.8922Z" fill="#FFB27D"/>
<path d="M296.595 100.71C294.882 101.26 294.608 101.136 294.608 101.136C294.608 101.136 286.27 85.9491 285.425 84.5587C284.581 83.1685 267.722 67.5286 267.722 67.5286L272.055 51.3662C272.055 51.3662 291.229 76.2067 293.3 79.7711C296.721 85.6613 298.726 99.3411 298.726 99.3411C298.726 99.3411 297.941 100.278 296.595 100.71Z" fill="#1E3D70"/>
<path d="M252.31 73.8739C252.37 77.193 252.563 80.9244 252.823 84.714C252.839 84.9387 252.855 85.1635 252.871 85.388C253.037 87.7358 253.218 90.089 253.424 92.3835C253.507 93.3034 253.596 94.2131 253.688 95.1064L253.702 95.2267C253.709 95.5611 253.75 95.9239 253.787 96.2545C254.632 104.85 255.518 111.64 255.683 111.744C255.879 111.875 256.1 111.941 256.342 111.912C258.595 111.629 265.317 112.14 270.821 110.943C275.465 109.962 279.463 108.105 283.7 105.6C284.262 105.267 285.545 104.386 285.44 103.728C285.338 103.004 285.148 101.959 284.908 100.644C284.073 96.0723 282.632 88.2082 282.14 79.0047C282.045 77.2904 281.905 75.5971 281.725 73.9324C281.253 69.5959 280.496 65.4772 279.481 61.8184C277.594 55.021 274.821 49.8159 271.342 47.7795C270.888 47.5247 268.442 49.0817 266.196 50.5235C264.122 51.8541 261.938 52.222 259.814 52.0363L257.944 54.1045C255.681 56.7372 253.27 60.242 252.613 65.2242C252.563 65.5921 252.52 65.9831 252.485 66.3988C252.303 68.4282 252.259 70.9972 252.31 73.8739Z" fill="#2A4E96"/>
<path d="M252.31 73.874C252.37 77.1931 252.563 80.9244 252.823 84.714C252.839 84.9388 252.855 85.1636 252.871 85.3881C265.74 77.3292 267.722 62.5828 267.722 62.5828C261.391 62.8605 256.362 64.3167 252.485 66.3989C252.303 68.4283 252.259 70.9972 252.31 73.874Z" fill="#1E3D70"/>
<path d="M219.795 80.2221C219.662 78.3124 220.65 77.9947 220.65 77.9947C220.65 77.9947 240.054 74.4768 241.703 73.9577C243.353 73.4386 257.457 58.7598 257.457 58.7598C257.457 58.7598 262.863 52.6602 267.29 54.0072C271.136 55.1777 272.64 58.1795 273.152 61.0393C273.762 64.4472 272.192 67.8761 269.242 69.6864C262.62 73.7495 249.364 81.7553 246.242 82.671C239.293 84.7092 220.624 82.8344 220.624 82.8344C220.624 82.8344 219.899 81.7218 219.795 80.2221Z" fill="#2A4E96"/>
<path opacity="0.2" d="M242.625 117.507V189.661C242.625 193.87 239.183 197.314 234.977 197.314H160.841C160.198 197.314 159.572 197.235 158.972 197.087C157.688 196.769 156.526 196.131 155.577 195.263C154.898 194.644 154.329 193.907 153.902 193.086C153.878 193.042 153.856 192.999 153.834 192.954C153.39 192.061 153.112 191.073 153.041 190.031C153.028 189.853 153.022 189.674 153.022 189.492V117.969C153.022 113.922 155.112 110.18 158.522 108.001C158.522 108.001 158.525 107.999 158.531 107.996C161.371 106.177 163.255 102.991 163.255 99.3663C163.255 98.2912 163.089 97.2565 162.782 96.2825H232.865C232.559 97.2565 232.393 98.2912 232.393 99.3663C232.393 102.841 234.123 105.913 236.769 107.763C236.77 107.763 236.77 107.764 236.771 107.764C236.948 107.887 237.128 108.006 237.312 108.116C237.314 108.118 237.313 108.118 237.313 108.118C240.597 110.118 242.625 113.661 242.625 117.507Z" fill="#ED9F4A"/>
<path opacity="0.2" d="M242.625 117.507V189.661C242.625 193.688 239.474 197.016 235.517 197.295C235.339 197.309 235.158 197.315 234.977 197.315H202.333C198.033 197.315 194.514 193.795 194.514 189.492V117.969C194.514 113.922 196.605 110.18 200.015 108.001C202.861 106.183 204.748 102.995 204.748 99.3663C204.748 98.2912 204.582 97.2565 204.275 96.2825H232.865C232.559 97.2565 232.393 98.2912 232.393 99.3663C232.393 102.215 233.555 104.791 235.431 106.645C235.998 107.207 236.629 107.702 237.314 108.118C240.597 110.118 242.625 113.661 242.625 117.507Z" fill="#ED9F4A"/>
<path opacity="0.6" d="M236.769 107.763C234.48 106.392 224.563 101.531 199.343 101.737C170.457 101.973 158.886 107.814 158.531 107.996C161.371 106.177 163.255 102.991 163.255 99.3663C163.255 98.2912 163.089 97.2565 162.782 96.2825H232.865C232.559 97.2565 232.393 98.2912 232.393 99.3663C232.393 102.841 234.123 105.913 236.769 107.763Z" fill="#ED9F4A"/>
<path d="M234.453 95.7779V99.0506C234.453 99.3736 234.19 99.6369 233.868 99.6369H161.781C161.458 99.6369 161.195 99.3736 161.195 99.0506V95.7779C161.195 95.4561 161.458 95.1917 161.781 95.1917H233.868C234.19 95.1917 234.453 95.4562 234.453 95.7779Z" fill="#5F1B16"/>
<path d="M234.453 95.7779V99.0506C234.453 99.3736 234.19 99.6369 233.868 99.6369H206.582C206.26 99.6369 205.996 99.3736 205.996 99.0506V95.7779C205.996 95.4561 206.26 95.1917 206.582 95.1917H233.868C234.19 95.1917 234.453 95.4562 234.453 95.7779Z" fill="#8B4742"/>
<path d="M186.357 111.982C186.357 111.982 184.499 114.599 182.796 114.636C181.092 114.672 178.501 113.422 178.501 113.422C178.501 113.422 176.937 109.935 177.998 108.571C177.998 108.571 179.061 108.104 180.174 108.929C180.365 109.071 180.559 109.25 180.75 109.48C181.02 109.805 181.323 109.99 181.644 110.087C182.86 110.457 184.302 109.587 184.842 110.427C185.157 110.915 185.499 111.282 185.781 111.539C186.115 111.837 186.357 111.982 186.357 111.982Z" fill="#F9DDBF"/>
<path d="M162.134 130.858C162.134 130.858 168.702 114.939 180.523 114.635C180.523 114.635 191.434 115.848 192.04 130.858H162.134Z" fill="#F9DDBF"/>
<path d="M177.284 115.121C177.284 115.121 182.022 116.176 183.484 115.556C183.484 115.556 183.705 113.574 181.71 113.852C180.344 114.042 179.454 113.385 178.931 113.119C178.191 112.742 177.087 114.292 177.284 115.121Z" fill="#F1A34F"/>
<path d="M181.408 112.134C181.104 112.361 180.174 108.928 180.174 108.928C180.365 109.071 180.559 109.25 180.75 109.48C181.02 109.805 181.323 109.99 181.644 110.087C181.647 110.187 181.702 111.912 181.408 112.134Z" fill="#E5C1A1"/>
<path d="M185.781 111.539C185.715 111.579 183.523 112.892 183.226 112.892C182.923 112.892 184.842 110.427 184.842 110.427C185.157 110.915 185.499 111.281 185.781 111.539Z" fill="#E5C1A1"/>
<path d="M168.55 126.411C168.429 126.307 173.198 119.386 174.511 119.335C175.825 119.285 178.775 120.852 180.912 121.054C183.048 121.256 185.12 120.65 185.524 121.913C185.928 123.176 187.039 127.656 186.357 128.373C185.675 129.09 171.172 128.652 168.55 126.411Z" fill="#E5C1A1"/>
<path opacity="0.5" d="M163.24 191.863C162.86 192.062 162.477 192.251 162.092 192.434C161.726 192.646 161.353 192.854 160.973 193.053C159.221 193.975 157.414 194.708 155.577 195.263C154.898 194.644 154.329 193.907 153.902 193.086C153.609 193.242 153.317 193.392 153.022 193.538V139.098C154.373 139.279 155.71 139.548 157.02 139.903C164.371 141.891 170.918 146.57 174.899 153.453C182.809 167.127 177.588 184.324 163.24 191.863Z" fill="#E2810E"/>
<path d="M168.211 151.308C160.301 136.953 142.257 131.731 127.908 139.644C113.559 147.557 108.34 165.61 116.249 179.965C124.159 194.32 142.203 199.542 156.552 191.629C170.901 183.716 176.121 165.664 168.211 151.308Z" fill="#E2810E"/>
<path d="M155.394 192.031C155.028 192.254 154.657 192.47 154.279 192.678C154.151 192.749 154.023 192.819 153.895 192.886C153.603 193.042 153.31 193.191 153.016 193.338C138.888 200.279 121.656 194.952 113.976 181.014C106.65 167.72 110.588 151.253 122.608 142.607C123.566 141.917 124.575 141.277 125.635 140.693C126.015 140.483 126.399 140.282 126.784 140.092C127.158 139.906 127.536 139.728 127.915 139.559C129.076 139.041 130.256 138.605 131.448 138.248C133.219 137.714 135.017 137.355 136.819 137.164C142.408 136.572 148.03 137.593 153.016 140.033C158.305 142.621 162.879 146.807 165.938 152.357C173.639 166.335 168.894 183.816 155.394 192.031Z" fill="#FFB93E"/>
<path d="M140.172 194.248C137.649 194.248 135.112 193.891 132.622 193.17C125.686 191.163 119.947 186.574 116.462 180.248C112.976 173.923 112.161 166.618 114.168 159.679C116.174 152.74 120.761 146.999 127.084 143.512C133.407 140.025 140.709 139.21 147.644 141.217C154.58 143.224 160.319 147.813 163.804 154.139C167.289 160.465 168.104 167.77 166.098 174.708C164.092 181.647 159.505 187.388 153.182 190.875C149.129 193.111 144.674 194.248 140.172 194.248ZM117.874 179.469C121.151 185.418 126.548 189.733 133.07 191.621C139.592 193.508 146.458 192.742 152.403 189.463C158.349 186.184 162.662 180.785 164.549 174.26C166.436 167.735 165.67 160.866 162.392 154.918C159.115 148.97 153.718 144.654 147.196 142.767C140.674 140.88 133.808 141.646 127.863 144.925C121.917 148.204 117.603 153.603 115.717 160.127C113.83 166.652 114.596 173.521 117.874 179.469Z" fill="#FFA412"/>
<path d="M139.758 154.775L141.987 153.488L142.285 149.653L127.096 158.423L126.798 162.258L134.157 158.009C135.87 157.02 137.921 157.164 139.447 158.201L129.751 163.8L129.453 167.635L141.366 160.757C142.07 162.934 141.18 165.387 139.107 166.584L131.921 170.733L133.733 173.881L145.356 180.654L149.325 178.363L137.378 171.244L140.609 169.378C140.638 169.363 140.667 169.347 140.694 169.331C140.715 169.319 140.737 169.306 140.756 169.293C144.313 167.2 145.708 162.838 144.162 159.143L144.98 158.671L145.278 154.835L142.383 156.506C141.62 155.752 140.727 155.17 139.758 154.775Z" fill="#FFA412"/>
<path d="M117.921 62.3972C118.011 62.0335 110.019 66.011 109.613 66.4607C105.865 70.6205 106.934 76.0486 109.079 76.1009C110.454 76.1341 110.188 78.4223 110.188 78.4223L125.512 71.9368C125.512 71.9368 123.667 61.1725 117.921 62.3972Z" fill="#0D1326"/>
<path d="M119.808 63.2368C119.808 63.2368 120.355 57.2646 113.685 57.2646C113.685 57.2646 115.707 57.8131 116.752 58.9102C116.752 58.9102 112.498 56.4113 107.868 60.2507C103.239 64.09 106.115 73.7191 104.707 75.5473C103.3 77.3756 97.8171 77.7414 98.4871 83.6529C99.1573 89.5641 115.887 96.9683 114.813 101.859C114.813 101.859 121.369 92.2174 116.681 87.8172C116.681 87.8172 118.966 89.9705 119.198 92.5302C119.198 92.5302 119.819 87.5327 116.64 85.9345C113.827 84.52 111.523 79.3467 111.767 78.4223C112.01 77.4977 119.808 63.2368 119.808 63.2368Z" fill="#0D1326"/>
<path d="M113.751 91.3344C112.723 86.3793 106.301 84.8429 103.262 88.8891C102.716 89.6169 102.331 90.4769 102.206 91.4924C101.512 97.1169 110.501 120.026 111.788 122.1C114.132 125.877 127.932 138.822 127.932 138.822L130.476 137.28C130.476 137.28 120.687 120.701 119.171 119.15C117.419 117.356 115.704 100.742 113.751 91.3344Z" fill="#ED985F"/>
<path d="M126.965 137.287C126.965 137.287 130.677 134.849 132.082 135.006C133.488 135.163 137.555 136.334 137.604 136.932C137.654 137.53 133.073 137.903 132.765 138.23C132.457 138.557 129.347 140.635 128.219 139.983C127.091 139.332 126.965 137.287 126.965 137.287Z" fill="#ED985F"/>
<path d="M101.073 192.374L97.7562 191.887C97.7562 191.887 86.6062 183.022 84.9457 166.481C84.7764 164.798 84.741 163.089 84.8665 161.367C84.8812 161.168 84.8591 160.97 84.7507 160.803C84.7507 160.801 84.7494 160.8 84.7471 160.798C84.3901 160.25 83.5019 158.879 82.2994 156.929C81.1142 155.008 79.0857 151.376 76.8537 147.3C72.8332 139.96 68.1525 131.182 66.5467 128.386C61.431 119.475 63.8968 113.483 63.8968 113.483C63.8968 113.483 78.1682 112.071 82.0789 108.649L83.4874 110.821C83.4874 110.821 86.5793 124.516 86.4334 124.579C86.5856 125.045 86.7402 125.519 86.8975 126.002C89.3378 133.537 92.1446 142.955 93.675 150.625C94.535 154.941 94.9907 158.701 94.746 161.263C94.6618 162.142 94.7641 163.493 94.9981 165.16C96.3795 174.989 101.073 192.374 101.073 192.374Z" fill="#0D1326"/>
<path d="M108.028 196.572H94.1933C94.1933 196.572 93.8615 194.462 94.5842 192.862C95.2765 191.326 96.2637 191.277 94.7102 188.87C95.5894 189.776 98.4155 190.15 100.416 189.881C100.661 190.279 101.996 192.945 102.814 193.534C103.718 194.184 107.75 193.952 108.028 196.572Z" fill="#300E0B"/>
<path d="M86.8973 126.002C85.6887 132.67 82.8341 143.768 76.8535 147.3C72.8331 139.96 68.1524 131.182 66.5466 128.386C61.4308 119.475 63.8967 113.483 63.8967 113.483C63.8967 113.483 78.168 112.071 82.0788 108.649L83.4873 110.821C83.4873 110.821 86.5792 124.516 86.4333 124.579C86.5853 125.045 86.7401 125.519 86.8973 126.002Z" fill="#040812"/>
<path d="M112.271 88.2605C112.271 88.2605 114.227 90.2954 115.121 92.7333C115.121 92.7333 112 101.698 104.707 102.822C104.707 102.822 110.477 88.2567 112.271 88.2605Z" fill="#E53232"/>
<path d="M77.1939 114.513L77.2409 111.924C72.0854 112.574 59.4645 105.76 59.4645 105.76C59.4645 105.76 54.0708 109.35 53.3326 119.599C52.9723 124.601 50.6923 145.758 50.4402 152.075C50.3482 154.365 50.3176 155.999 50.3073 156.652C50.3083 156.655 50.3082 156.657 50.3081 156.659C50.3049 156.858 50.2114 157.034 50.0887 157.191C49.022 158.548 48.0966 159.985 47.2952 161.475C39.4284 176.119 43.5423 196.016 43.5423 196.016L45.3693 195.551C45.3693 195.551 52.0209 174.925 56.3683 166.003C57.1063 164.489 57.7766 163.312 58.3373 162.631C59.9719 160.644 61.6955 157.271 63.3946 153.212C66.6062 145.537 69.724 135.41 71.9476 127.568C72.1047 127.596 77.1939 114.513 77.1939 114.513Z" fill="#0D1326"/>
<path d="M107.364 97.2349C98.9358 95.2997 104.32 83.4514 104.809 83.6598C105.976 83.4218 108.541 81.3705 110.835 77.3643L111.145 77.633L116.322 82.1736C116.322 82.1736 115.125 83.9394 114.119 85.669C113.332 87.0231 112.664 88.3574 112.77 88.8154C113.186 89.1435 109.612 97.7519 107.364 97.2349Z" fill="#FFB27D"/>
<path d="M116.322 82.1751C116.322 82.1751 115.125 83.9388 114.119 85.6705C110.9 83.6857 110.897 79.6996 111.145 77.6345L116.322 82.1751Z" fill="#ED985F"/>
<path d="M116.465 84.4491C116.465 84.4491 108.651 80.0988 111.433 75.2722C114.216 70.4453 115.082 66.6331 120.189 69.2064C125.296 71.7797 125.195 74.1761 124.657 76.0132C124.12 77.8502 118.57 85.4563 116.465 84.4491Z" fill="#FFB27D"/>
<path d="M125.978 73.198C125.62 71.0548 124.532 70.8502 123.773 70.9934C120.887 66.2189 116.172 68.0822 116.172 68.0822C113.654 71.2436 110.013 71.7832 110.013 71.7832C110.013 71.7832 110.92 73.4713 114.656 74.5161C115.797 74.8353 117.093 74.642 118.342 74.2212C115.75 75.6672 113.039 76.2212 113.039 76.2212C117.963 76.6719 122.647 72.1686 123.133 71.687C123.36 72.3849 123.759 73.8458 123.52 74.9139C123.196 76.3656 121.908 78.9947 122.695 79.3349C122.695 79.3349 126.514 76.412 125.978 73.198Z" fill="#0D1326"/>
<path d="M54.5445 196.572H40.7093C40.7093 196.572 40.3777 194.463 41.1002 192.862C41.7927 191.327 42.8772 190.629 42.6175 188.771C43.4967 189.676 44.9295 190.69 46.9297 190.421C47.1748 190.818 48.5117 192.946 49.3304 193.534C50.2344 194.184 54.266 193.953 54.5445 196.572Z" fill="#300E0B"/>
<path d="M108.356 106.628C106.576 107.25 104.077 107.59 101.521 107.868C97.8828 108.265 94.1267 108.537 92.1591 109.322C91.4417 109.608 90.9615 109.962 90.8117 110.414C89.9589 112.98 86.2005 116.938 86.2005 116.938C62.1096 115.841 59.4646 105.76 59.4646 105.76C75.6729 86.9046 103.117 81.4467 103.117 81.4467C103.117 81.4467 105.077 80.6153 110.014 84.54C113.308 87.1606 112.874 88.1661 112.874 88.1661C112.874 88.1661 113.594 104.8 108.356 106.628Z" fill="#F94646"/>
<path d="M101.521 107.868C97.8827 108.265 94.1266 108.537 92.159 109.322C91.3549 97.3015 97.025 88.26 97.025 88.26C97.025 88.26 100.724 103.319 101.521 107.868Z" fill="#E53232"/>
<path d="M105.265 85.9343C105.265 85.9343 96.1473 86.8355 95.4164 92.7626C94.6854 98.6895 104.158 122.831 105.514 125.017C107.984 128.996 122.526 142.638 122.526 142.638L125.207 141.013C125.207 141.013 114.892 123.543 113.294 121.908C110.787 119.341 108.352 87.9875 105.265 85.9343Z" fill="#FFB27D"/>
<path d="M95.6795 96.3285C95.7033 96.4633 104.094 99.0707 109.494 96.3285C109.494 96.3285 110.649 83.8639 104.203 84.5405C97.756 85.2169 93.9386 87.2482 93.7761 90.3361C93.6138 93.4238 95.6795 96.3285 95.6795 96.3285Z" fill="#F94646"/>
<path d="M121.698 140.905C121.698 140.905 124.968 137.9 126.38 137.829C127.793 137.757 131.995 138.257 132.141 138.839C132.286 139.421 127.824 140.528 127.574 140.901C127.323 141.273 124.587 143.825 123.369 143.364C122.151 142.903 121.698 140.905 121.698 140.905Z" fill="#FFB27D"/>
<path d="M375.169 197.513H0.425598C0.191475 197.513 0 197.322 0 197.087V196.942C0 196.708 0.19133 196.516 0.425598 196.516H375.169C375.403 196.516 375.594 196.708 375.594 196.942V197.087C375.594 197.322 375.403 197.513 375.169 197.513Z" fill="#2E3552"/>
</svg>
