<svg width="407" height="200" viewBox="0 0 407 200" fill="none" xmlns="http://www.w3.org/2000/svg">
<path d="M266.44 173.286C262.621 177.288 259.007 179.869 256.152 181.908C222.589 205.878 182.875 198.891 174.435 197.184C161.972 194.665 137.88 189.794 120.462 169.407C94.1098 138.561 98.2132 89.9658 118.654 57.8872C122.392 52.0194 142.142 19.4522 182.283 14.2294C206.576 11.0686 234.894 17.4436 255.401 34.5444C298.448 70.4406 295.383 142.957 266.44 173.286Z" fill="#D7D7D7"/>
<path d="M122.093 112.08C121.761 111.409 120.777 111.492 120.56 112.209C119.759 114.862 117.861 119.481 114.057 121.052C113.865 121.131 113.683 121.212 113.508 121.293C113.348 120.777 113.359 120.182 113.782 119.565C114.993 117.802 112.933 115.31 112.933 115.31C112.933 115.31 112.745 117.46 111.079 118.779C109.643 119.916 108.909 122.499 109.824 124.652C111.688 132.617 114.508 143.159 102.445 150.547C90.3826 157.936 74.1248 135.47 74.1248 135.47L81.8524 162.007C81.8524 162.007 94.4727 171.76 109.693 158.777C124.913 145.795 115.451 126.202 115.451 126.202C115.451 126.202 126.936 121.862 122.093 112.08Z" fill="url(#paint0_linear_14_3240)"/>
<path d="M72.902 96.7038C72.902 96.7038 76.6907 81.3248 58.896 85.0231C58.896 85.0231 50.3335 83.4281 49.7164 91.5295C49.7164 91.5295 44.096 95.0566 47.9959 102.166C47.9959 102.166 36.3503 95.3687 28.857 109.639C21.3638 123.91 25.9394 131.602 32.8053 133.823C32.8053 133.823 28.8149 139.261 31.3247 145.668C33.8344 152.076 42.6521 154.567 50.7531 147.022C50.7531 147.022 73.2502 150.505 73.1525 134.557C73.1525 134.557 83.7975 128.013 73.0673 114.597C62.3373 101.182 72.902 96.7038 72.902 96.7038Z" fill="url(#paint1_linear_14_3240)"/>
<path d="M73.0801 132.551C69.5447 131.404 59.2135 129.2 49.149 138.102C47.4464 139.608 46.7462 141.954 47.2928 144.161C49.7302 154.002 56.0467 182.877 49.657 195.178C49.657 195.178 55.9257 201.868 70.3711 198.452C71.4609 198.194 72.323 197.36 72.6169 196.279C74.1113 190.787 79.1338 173.447 85.0975 165.138C90.0281 158.267 78.0628 138.771 75.0321 134.06C74.5733 133.347 73.8863 132.812 73.0801 132.551Z" fill="url(#paint2_linear_14_3240)"/>
<path d="M63.6854 112.976C63.6854 112.976 58.0936 127.741 57.552 134.298C57.552 134.298 63.3084 137.071 68.8866 132.73C68.8866 132.73 69.7916 117.878 70.6815 115.234L63.6854 112.976Z" fill="url(#paint3_linear_14_3240)"/>
<path d="M71.4442 92.847C71.4442 92.847 84.778 112.411 76.4277 117.822C68.0775 123.233 58.585 109.33 58.585 109.33C58.585 109.33 55.6258 98.718 59.0442 95.2163C62.4624 91.7147 71.4442 92.847 71.4442 92.847Z" fill="url(#paint4_linear_14_3240)"/>
<path d="M65.1768 88.1031C65.1768 88.1031 71.4653 89.7415 72.2879 92.6216C73.1103 95.5017 63.2004 97.9354 60.4374 98.0039L57.957 109.497C57.957 109.497 51.6234 98.4928 54.3671 92.2796C57.1106 86.0662 65.1768 88.1031 65.1768 88.1031Z" fill="#130E46"/>
<path d="M61.284 107.972C61.284 107.972 56.0653 101.649 53.845 105.646C51.6248 109.643 58.509 112.833 60.9596 110.901L61.284 107.972Z" fill="url(#paint5_linear_14_3240)"/>
<path d="M47.7228 139.992C47.7228 139.992 30.6047 153.587 26.0096 172.582C21.4146 191.576 50.1016 194.243 50.1016 194.243C50.1016 194.243 54.0988 189.974 58.695 191.63C63.2911 193.286 59.2222 184.036 53.8037 183.94C48.3852 183.844 50.8 188.184 43.2126 184.542C35.8215 180.994 31.4389 170.432 50.8404 155C51.965 154.106 52.8722 152.953 53.4322 151.63C57.3401 142.396 54.5404 136.224 47.7228 139.992Z" fill="url(#paint6_linear_14_3240)"/>
<path d="M189.946 70.9721L189.775 70.8218L145.268 31.9674L145.599 31.588L189.934 70.2921L232.119 30.5339L232.465 30.9005L189.946 70.9721Z" fill="url(#paint7_linear_14_3240)"/>
<path d="M189.946 85.3876L189.442 85.3792L189.688 70.6281L189.442 29.6777L189.946 29.6748L190.192 70.6308L189.946 85.3876Z" fill="url(#paint8_linear_14_3240)"/>
<path d="M189.94 72.0253L168.305 32.4L168.747 32.1584L189.941 70.9749L211.174 32.1584L211.616 32.4L189.94 72.0253Z" fill="url(#paint9_linear_14_3240)"/>
<path d="M217.932 92.9423L189.847 75.0833L162.124 92.0102L161.861 91.5802L189.853 74.4895L189.985 74.5739L218.202 92.5172L217.932 92.9423Z" fill="url(#paint10_linear_14_3240)"/>
<path d="M233 31.7776L221.919 26.0472L211.091 33.1172L200.337 25.1171L189.94 33.1172L179.931 25.4891L168.567 32.9312L157.575 26.0472L144.618 32.8716C147.044 23.063 156.302 0 189.695 0C221.904 0 230.656 21.4481 233 31.7776Z" fill="url(#paint11_linear_14_3240)"/>
<path d="M157.575 26.0472C157.575 26.0472 165.6 0.992276 188.809 0C188.809 0 167.039 13.3957 168.567 32.9312C165.369 29.7332 157.575 26.0472 157.575 26.0472Z" fill="url(#paint12_linear_14_3240)"/>
<path d="M189.94 33.1172L189.695 0C189.695 0 178.727 14.6361 179.93 25.4891C185.618 31.1771 189.94 33.1172 189.94 33.1172Z" fill="url(#paint13_linear_14_3240)"/>
<path d="M189.695 0C189.695 0 200.19 13.5198 200.337 25.117L211.091 33.1172C211.091 33.1172 215.62 11.2872 189.695 0Z" fill="url(#paint14_linear_14_3240)"/>
<path d="M190.436 0.124023C190.436 0.124023 219.044 9.30256 221.919 26.0472L233 31.7776C233 31.7776 228.515 0.620199 190.436 0.124023Z" fill="url(#paint15_linear_14_3240)"/>
<path d="M225.172 54.8619L122.872 111.795L149.418 159.494L251.718 102.56L225.172 54.8619Z" fill="#7D97F4"/>
<path opacity="0.5" d="M225.115 68.072L240.303 95.365C238.106 96.5873 237.378 99.6233 238.732 102.056C238.775 102.133 238.881 102.316 238.884 102.314L156.31 148.264C156.314 148.262 156.215 148.075 156.172 147.998C154.818 145.565 151.93 144.567 149.696 145.81C149.663 145.828 149.614 145.836 149.614 145.836L134.768 119.157C138.534 117.062 137.495 114.366 136.141 111.934C136.098 111.857 136.057 111.86 136.053 111.862L218.628 65.9121C218.624 65.9142 218.629 65.9308 218.672 66.008C220.026 68.4405 222.919 69.2944 225.115 68.072Z" fill="white"/>
<path d="M187.268 124.204C196.752 124.204 204.44 116.515 204.44 107.031C204.44 97.5465 196.752 89.8579 187.268 89.8579C177.783 89.8579 170.095 97.5465 170.095 107.031C170.095 116.515 177.783 124.204 187.268 124.204Z" fill="url(#paint16_linear_14_3240)"/>
<path d="M191.383 117.997L190.5 116.411C188.809 117.265 186.956 117.785 185.511 117.923C184.994 117.972 184.524 117.624 184.4 117.121L183.981 115.419C183.827 114.794 184.26 114.185 184.899 114.114C186.321 113.956 187.957 113.546 189.492 112.692C191.085 111.806 191.973 110.605 191.357 109.497C190.801 108.498 189.552 108.415 187.007 109.053C183.367 109.947 180.332 109.832 178.784 107.051C177.387 104.539 178.156 101.6 181.057 99.3142L180.174 97.7273C179.89 97.2167 180.074 96.5725 180.584 96.2883L181.516 95.7695C182.027 95.4853 182.671 95.6689 182.955 96.1795L183.748 97.6043C185.313 96.8139 186.573 96.4556 187.63 96.2743C188.172 96.1814 188.691 96.5316 188.823 97.065L189.213 98.6382C189.363 99.2448 188.96 99.8471 188.342 99.9381C187.357 100.083 186.027 100.403 184.531 101.236C182.641 102.288 182.537 103.371 182.927 104.073C183.408 104.937 184.873 104.9 187.751 104.289C191.848 103.389 194.117 104.036 195.575 106.655C196.912 109.058 196.332 112.21 193.176 114.674L194.164 116.45C194.449 116.96 194.265 117.605 193.754 117.889L192.822 118.408C192.311 118.692 191.667 118.508 191.383 117.997Z" fill="white"/>
<path d="M132.02 122.422C131.999 122.404 131.98 122.382 131.966 122.357L126.989 113.413C126.959 113.359 126.951 113.295 126.968 113.235C126.985 113.176 127.025 113.126 127.08 113.095L152.341 99.0379C152.454 98.975 152.596 99.0157 152.659 99.1283C152.722 99.2412 152.681 99.3832 152.569 99.446L127.511 113.39L132.374 122.129C132.437 122.242 132.396 122.384 132.284 122.447C132.197 122.495 132.092 122.482 132.02 122.422Z" fill="url(#paint17_linear_14_3240)"/>
<path d="M222.149 115.627C222.128 115.609 222.109 115.587 222.095 115.562C222.032 115.449 222.073 115.307 222.185 115.244L246.929 101.475L241.717 92.1077C241.654 91.9947 241.694 91.8526 241.807 91.7899C241.92 91.7266 242.063 91.7671 242.125 91.8803L247.451 101.452C247.481 101.506 247.488 101.57 247.471 101.629C247.454 101.689 247.415 101.739 247.36 101.769L222.413 115.652C222.326 115.7 222.221 115.687 222.149 115.627Z" fill="white"/>
<path d="M240.909 61.2008L128.178 92.7876L143.002 145.695L255.734 114.108L240.909 61.2008Z" fill="#91B3FA"/>
<path opacity="0.5" d="M237.82 74.1351L246.247 104.211C243.826 104.889 242.46 107.79 243.211 110.47C243.235 110.555 243.246 110.529 243.348 110.873L152.353 136.368C152.26 136.021 152.271 136.041 152.247 135.956C151.496 133.275 148.887 131.576 146.426 132.266C146.39 132.276 146.309 132.215 146.309 132.215L138.072 102.816C142.222 101.654 141.837 98.7348 141.086 96.0542C141.063 95.9691 141.022 95.9067 141.017 95.908L232.012 70.4138C232.008 70.4151 232.009 70.4884 232.033 70.5736C232.784 73.254 235.4 74.8133 237.82 74.1351Z" fill="white"/>
<path d="M191.981 120.392C201.466 120.392 209.154 112.704 209.154 103.219C209.154 93.735 201.466 86.0464 191.981 86.0464C182.497 86.0464 174.808 93.735 174.808 103.219C174.808 112.704 182.497 120.392 191.981 120.392Z" fill="url(#paint18_linear_14_3240)"/>
<path d="M193.435 114.843L192.945 113.094C191.102 113.532 189.179 113.607 187.741 113.405C187.228 113.333 186.851 112.885 186.847 112.367L186.835 110.613C186.831 109.97 187.394 109.479 188.032 109.559C189.452 109.735 191.138 109.717 192.829 109.243C194.585 108.751 195.728 107.789 195.386 106.569C195.077 105.468 193.882 105.097 191.259 105.126C187.51 105.149 184.585 104.332 183.727 101.267C182.951 98.4994 184.383 95.8198 187.736 94.2707L187.246 92.5219C187.088 91.9593 187.417 91.3754 187.979 91.2177L189.007 90.9299C189.569 90.7722 190.153 91.1006 190.311 91.6633L190.751 93.2333C192.456 92.8283 193.765 92.7727 194.835 92.8421C195.384 92.8775 195.807 93.3389 195.812 93.8884L195.825 95.5092C195.83 96.1342 195.299 96.6262 194.676 96.5711C193.684 96.4832 192.317 96.4853 190.668 96.9472C188.585 97.5308 188.232 98.5605 188.449 99.3342C188.715 100.286 190.148 100.591 193.09 100.666C197.283 100.742 199.34 101.899 200.149 104.785C200.891 107.434 199.594 110.365 195.952 112.027L196.5 113.984C196.658 114.547 196.33 115.13 195.767 115.288L194.74 115.576C194.177 115.734 193.593 115.405 193.435 114.843Z" fill="white"/>
<path d="M135.055 105.498C135.038 105.475 135.025 105.45 135.017 105.421L132.159 95.2198C132.124 95.0954 132.196 94.9667 132.321 94.9318L159.812 87.2295C159.936 87.1946 160.066 87.2666 160.1 87.3912C160.135 87.5156 160.063 87.6444 159.938 87.6792L132.671 95.3186L135.467 105.295C135.501 105.419 135.429 105.548 135.305 105.583C135.209 105.61 135.111 105.573 135.055 105.498Z" fill="url(#paint19_linear_14_3240)"/>
<path d="M223.85 119.594C223.834 119.571 223.821 119.545 223.813 119.517C223.778 119.393 223.85 119.264 223.975 119.229L251.242 111.589L248.446 101.613C248.412 101.489 248.484 101.36 248.608 101.325C248.732 101.29 248.862 101.362 248.896 101.487L251.754 111.688C251.771 111.748 251.763 111.812 251.733 111.866C251.703 111.92 251.652 111.959 251.593 111.976L224.101 119.679C224.005 119.706 223.906 119.669 223.85 119.594Z" fill="white"/>
<path d="M256.181 129.537L139.17 125.66L140.99 70.7439L258 74.621L256.181 129.537Z" fill="url(#paint20_linear_14_3240)"/>
<path d="M251.153 86.0686L250.119 117.286C247.606 117.202 245.403 119.528 245.311 122.31C245.308 122.399 245.301 122.349 245.294 122.709L150.847 119.579C150.863 119.22 150.866 119.269 150.869 119.181C150.961 116.399 149.013 114.007 146.458 113.922C146.421 113.921 146.388 113.853 146.388 113.853L147.399 83.3387C151.706 83.4814 152.194 80.5547 152.286 77.7724C152.289 77.684 152.243 77.5847 152.239 77.5845L246.686 80.714C246.681 80.7138 246.686 80.8119 246.683 80.9002C246.591 83.6825 248.641 85.9855 251.153 86.0686Z" fill="#BDD0FB"/>
<path d="M198.623 117.149C208.108 117.149 215.796 109.46 215.796 99.9759C215.796 90.4916 208.108 82.803 198.623 82.803C189.139 82.803 181.45 90.4916 181.45 99.9759C181.45 109.46 189.139 117.149 198.623 117.149Z" fill="url(#paint21_linear_14_3240)"/>
<path d="M196.506 111.497L196.566 109.682C194.676 109.544 192.82 109.035 191.51 108.409C191.042 108.186 190.818 107.645 190.971 107.15L191.488 105.475C191.678 104.86 192.363 104.562 192.947 104.83C194.248 105.426 195.861 105.917 197.616 105.976C199.439 106.036 200.818 105.463 200.86 104.197C200.898 103.054 199.87 102.34 197.36 101.576C193.779 100.468 191.237 98.8072 191.343 95.6259C191.438 92.7532 193.611 90.63 197.275 90.164L197.335 88.3489C197.354 87.7649 197.843 87.3071 198.427 87.3265L199.494 87.3619C200.078 87.3813 200.535 87.8703 200.516 88.4544L200.462 90.0839C202.21 90.212 203.475 90.5537 204.474 90.9425C204.986 91.1417 205.251 91.7093 205.09 92.2346L204.614 93.784C204.431 94.3814 203.775 94.6903 203.198 94.45C202.279 94.0671 200.975 93.6568 199.263 93.6C197.101 93.5284 196.454 94.4036 196.427 95.2067C196.395 96.1951 197.669 96.9175 200.451 97.8755C204.427 99.2131 206.039 100.936 205.94 103.932C205.849 106.681 203.728 109.084 199.754 109.571L199.687 111.602C199.668 112.186 199.179 112.644 198.595 112.625L197.528 112.59C196.944 112.57 196.486 112.081 196.506 111.497Z" fill="white"/>
<path d="M143.39 84.9825C143.359 84.9416 143.342 84.8903 143.344 84.835L143.694 74.2468C143.697 74.185 143.723 74.1264 143.768 74.0841C143.813 74.0417 143.874 74.019 143.936 74.0211L172.829 74.9785C172.958 74.9832 173.059 75.091 173.055 75.2198C173.051 75.3486 172.943 75.4497 172.814 75.4455L144.153 74.4959L143.81 84.8506C143.806 84.9795 143.698 85.0805 143.569 85.0763C143.496 85.0739 143.431 85.0374 143.39 84.9825Z" fill="#BDD0FB"/>
<path d="M224.162 125.208C224.132 125.167 224.114 125.116 224.116 125.061C224.12 124.932 224.228 124.831 224.357 124.835L252.659 125.773L253.001 115.418C253.006 115.289 253.114 115.188 253.243 115.193C253.371 115.197 253.472 115.305 253.468 115.434L253.117 126.022C253.115 126.084 253.089 126.143 253.044 126.185C252.998 126.227 252.938 126.25 252.876 126.248L224.342 125.302C224.268 125.3 224.203 125.263 224.162 125.208Z" fill="white"/>
<path d="M168.377 100.564C168.288 103.249 166.04 105.354 163.354 105.265C160.669 105.176 158.565 102.927 158.654 100.242C158.743 97.5567 160.992 95.4521 163.677 95.541C166.362 95.6301 168.466 97.8789 168.377 100.564Z" fill="url(#paint22_linear_14_3240)"/>
<path d="M236.664 107.691C239.35 107.691 241.528 105.513 241.528 102.827C241.528 100.14 239.35 97.9622 236.664 97.9622C233.977 97.9622 231.799 100.14 231.799 102.827C231.799 105.513 233.977 107.691 236.664 107.691Z" fill="url(#paint23_linear_14_3240)"/>
<path d="M181.947 149.709C187.747 149.709 192.448 145.008 192.448 139.209C192.448 133.41 187.747 128.709 181.947 128.709C176.148 128.709 171.447 133.41 171.447 139.209C171.447 145.008 176.148 149.709 181.947 149.709Z" fill="#E3AC59"/>
<path d="M181.948 149.36C187.554 149.36 192.099 144.815 192.099 139.209C192.099 133.602 187.554 129.058 181.948 129.058C176.341 129.058 171.797 133.602 171.797 139.209C171.797 144.815 176.341 149.36 181.948 149.36Z" fill="#FFCC00"/>
<path opacity="0.7" d="M173.869 134.754C173.818 134.751 173.767 134.736 173.72 134.707C173.558 134.611 173.506 134.403 173.602 134.242C175.492 131.072 178.95 129.264 182.629 129.523C183.216 129.564 183.8 129.659 184.365 129.803C184.546 129.849 184.656 130.034 184.61 130.216C184.563 130.398 184.379 130.509 184.196 130.46C183.671 130.327 183.127 130.239 182.581 130.2C179.16 129.96 175.943 131.642 174.185 134.589C174.117 134.703 173.993 134.763 173.869 134.754Z" fill="white"/>
<path opacity="0.78" d="M188.226 145.52C191.581 142.165 191.581 136.725 188.226 133.369C184.87 130.014 179.43 130.014 176.075 133.369C172.72 136.725 172.72 142.165 176.075 145.52C179.43 148.875 184.87 148.875 188.226 145.52Z" fill="#F3A100"/>
<path d="M211.149 135.03C220.614 135.03 228.286 127.358 228.286 117.893C228.286 108.429 220.614 100.757 211.149 100.757C201.685 100.757 194.013 108.429 194.013 117.893C194.013 127.358 201.685 135.03 211.149 135.03Z" fill="#E3AC59"/>
<path d="M211.149 134.46C220.299 134.46 227.716 127.043 227.716 117.893C227.716 108.744 220.299 101.327 211.149 101.327C201.999 101.327 194.582 108.744 194.582 117.893C194.582 127.043 201.999 134.46 211.149 134.46Z" fill="#FFCC00"/>
<path opacity="0.7" d="M197.982 110.388C197.933 110.384 197.885 110.37 197.841 110.344C197.69 110.254 197.641 110.058 197.731 109.908C200.769 104.812 206.33 101.905 212.244 102.32C213.187 102.387 214.126 102.538 215.035 102.771C215.205 102.814 215.308 102.988 215.264 103.158C215.221 103.328 215.047 103.433 214.877 103.387C214.006 103.164 213.104 103.019 212.199 102.955C206.526 102.556 201.192 105.345 198.277 110.233C198.214 110.34 198.098 110.396 197.982 110.388Z" fill="white"/>
<path opacity="0.78" d="M221.396 128.194C226.872 122.718 226.872 113.84 221.396 108.364C215.92 102.888 207.042 102.888 201.567 108.364C196.091 113.84 196.091 122.718 201.567 128.194C207.042 133.669 215.92 133.669 221.396 128.194Z" fill="#F3A100"/>
<path d="M211.726 113.108L212.884 112.44L213.038 110.449L205.153 115.001L204.998 116.992L208.819 114.787C209.708 114.273 210.773 114.348 211.565 114.887L206.531 117.793L206.377 119.784L212.561 116.213C212.927 117.343 212.465 118.617 211.389 119.238L207.658 121.392L208.599 123.026L214.632 126.542L216.693 125.352L210.491 121.657L212.168 120.689C212.183 120.681 212.198 120.672 212.212 120.664C212.223 120.658 212.234 120.651 212.244 120.645C214.091 119.558 214.815 117.294 214.012 115.375L214.437 115.13L214.592 113.139L213.089 114.007C212.693 113.615 212.229 113.313 211.726 113.108Z" fill="#FFF0B2" fill-opacity="0.8"/>
<path d="M182.098 136.86L182.712 136.505L182.794 135.449L178.612 137.864L178.53 138.92L180.556 137.75C181.027 137.477 181.592 137.517 182.012 137.803L179.343 139.344L179.261 140.4L182.54 138.506C182.734 139.106 182.489 139.781 181.919 140.111L179.94 141.253L180.439 142.12L183.639 143.984L184.732 143.353L181.442 141.394L182.332 140.88C182.34 140.876 182.348 140.871 182.355 140.867C182.361 140.863 182.367 140.86 182.372 140.857C183.352 140.28 183.736 139.079 183.31 138.062L183.535 137.932L183.617 136.876L182.82 137.336C182.61 137.128 182.364 136.968 182.098 136.86Z" fill="#FFF0B2" fill-opacity="0.8"/>
<path d="M220.254 174.537C229.992 174.537 237.887 166.642 237.887 156.903C237.887 147.165 229.992 139.27 220.254 139.27C210.515 139.27 202.62 147.165 202.62 156.903C202.62 166.642 210.515 174.537 220.254 174.537Z" fill="#E3AC59"/>
<path d="M220.253 173.95C229.668 173.95 237.3 166.318 237.3 156.903C237.3 147.488 229.668 139.856 220.253 139.856C210.839 139.856 203.206 147.488 203.206 156.903C203.206 166.318 210.839 173.95 220.253 173.95Z" fill="#FFCC00"/>
<path opacity="0.7" d="M206.705 149.171C206.657 149.168 206.609 149.153 206.565 149.127C206.414 149.037 206.364 148.841 206.454 148.691C209.579 143.45 215.297 140.461 221.379 140.888C222.35 140.957 223.315 141.112 224.25 141.352C224.42 141.395 224.523 141.568 224.479 141.739C224.436 141.909 224.263 142.013 224.092 141.968C223.194 141.739 222.267 141.589 221.334 141.523C215.494 141.113 210.002 143.984 207.001 149.016C206.937 149.123 206.821 149.179 206.705 149.171Z" fill="white"/>
<path opacity="0.78" d="M234.722 161.565C236.926 153.908 232.505 145.913 224.847 143.709C217.189 141.505 209.195 145.926 206.991 153.584C204.787 161.241 209.208 169.236 216.865 171.44C224.523 173.644 232.518 169.223 234.722 161.565Z" fill="#F3A100"/>
<path d="M220.666 151.531L221.697 150.936L221.835 149.163L214.812 153.217L214.675 154.99L218.077 153.026C218.869 152.569 219.817 152.635 220.523 153.115L216.04 155.703L215.902 157.476L221.409 154.297C221.735 155.303 221.324 156.437 220.365 156.99L217.043 158.908L217.881 160.364L223.254 163.495L225.089 162.436L219.566 159.145L221.06 158.282C221.073 158.275 221.086 158.268 221.099 158.26C221.109 158.255 221.118 158.249 221.127 158.243C222.772 157.275 223.417 155.259 222.702 153.55L223.08 153.332L223.218 151.559L221.88 152.332C221.527 151.983 221.114 151.714 220.666 151.531Z" fill="#FFF0B2" fill-opacity="0.8"/>
<path d="M244.279 143.257C252.068 143.257 258.382 136.943 258.382 129.155C258.382 121.366 252.068 115.052 244.279 115.052C236.491 115.052 230.177 121.366 230.177 129.155C230.177 136.943 236.491 143.257 244.279 143.257Z" fill="#E3AC59"/>
<path d="M244.279 142.788C251.809 142.788 257.913 136.684 257.913 129.155C257.913 121.625 251.809 115.521 244.279 115.521C236.75 115.521 230.646 121.625 230.646 129.155C230.646 136.684 236.75 142.788 244.279 142.788Z" fill="#FFCC00"/>
<path opacity="0.7" d="M233.437 123.063C233.385 123.06 233.333 123.044 233.284 123.015C233.12 122.917 233.066 122.704 233.164 122.539C235.681 118.318 240.288 115.909 245.186 116.254C245.967 116.309 246.745 116.434 247.499 116.627C247.684 116.674 247.797 116.863 247.749 117.049C247.702 117.235 247.514 117.35 247.327 117.3C246.613 117.118 245.877 116.999 245.138 116.947C240.502 116.621 236.142 118.9 233.761 122.895C233.691 123.011 233.564 123.072 233.437 123.063Z" fill="white"/>
<path opacity="0.78" d="M252.478 137.608C256.985 133.102 256.985 125.796 252.478 121.29C247.972 116.783 240.666 116.783 236.16 121.29C231.653 125.796 231.653 133.102 236.16 137.608C240.666 142.115 247.972 142.115 252.478 137.608Z" fill="#F3A100"/>
<path d="M243.853 124.875L244.66 124.408L244.768 123.019L239.265 126.196L239.157 127.585L241.824 126.046C242.444 125.688 243.187 125.74 243.74 126.116L240.227 128.144L240.119 129.534L244.435 127.042C244.69 127.83 244.368 128.719 243.617 129.153L241.014 130.656L241.67 131.796L245.881 134.25L247.319 133.42L242.99 130.841L244.161 130.165C244.171 130.16 244.182 130.154 244.192 130.148C244.2 130.143 244.207 130.139 244.214 130.134C245.503 129.376 246.008 127.796 245.448 126.457L245.744 126.286L245.852 124.896L244.804 125.502C244.527 125.229 244.204 125.018 243.853 124.875Z" fill="#FFF0B2" fill-opacity="0.8"/>
<path d="M362.027 196.452C362.027 196.452 375.647 157.635 354.7 119.189C354.7 119.189 334.743 116.866 309.644 133.653C307.787 134.895 307.712 137.266 309.122 138.999C314.392 145.48 325.403 162.53 325.702 192.147C325.729 194.826 327.505 197.188 330.077 197.933C335.72 199.567 346.645 201.174 362.027 196.452Z" fill="#F94646"/>
<path d="M325.63 106.395L335.908 120.913C336.874 122.279 336.694 124.144 335.485 125.299C333.387 127.305 329.762 129.817 325.384 128.898C323.952 128.597 322.757 127.61 322.159 126.274L316.304 113.177L325.63 106.395Z" fill="url(#paint24_linear_14_3240)"/>
<path d="M371.32 189.332C371.32 189.332 377.813 151.504 353.196 137.664L354.701 119.189C354.701 119.189 395.526 140.329 375.732 187.538L371.32 189.332Z" fill="#F94646"/>
<path d="M375.732 187.538C375.732 187.538 376.087 193.444 370.48 193.626C364.575 193.818 364.844 201.141 359.665 199.106C359.284 198.956 359.051 198.569 359.12 198.166C359.545 195.687 361.775 186.936 372.179 186.073L375.732 187.538Z" fill="url(#paint25_linear_14_3240)"/>
<path d="M308.605 134.957C306.178 139.844 293.223 163.284 265.682 168.635L264.316 172.534C264.316 172.534 300.024 179.37 318.193 149.908L309.533 134.929C309.323 134.566 308.792 134.581 308.605 134.957Z" fill="#F94646"/>
<path d="M266.208 170.899C267.006 169.266 265.864 167.301 264.047 167.28C263.958 167.279 263.865 167.28 263.77 167.284C260.724 167.409 257.633 166.951 256.489 166.174C256.11 165.917 255.572 165.991 255.333 166.382C255.019 166.893 255.272 167.756 258.164 169.004C258.164 169.004 251.784 171.518 246.63 169.091C241.605 166.726 248.897 179.32 264.133 173.207C264.899 172.9 265.519 172.309 265.881 171.568L266.208 170.899Z" fill="url(#paint26_linear_14_3240)"/>
<path d="M309.975 94.2279C309.975 94.2279 305.95 114.152 314.304 117.43C322.658 120.709 328.133 101.529 328.133 101.529C328.133 101.529 324.345 82.074 309.975 94.2279Z" fill="url(#paint27_linear_14_3240)"/>
<path d="M325.63 106.395C325.906 106.786 330.19 109.808 333.087 105.479C335.984 101.149 333.762 98.0257 329.724 97.4675C329.724 97.4675 332.311 96.0758 330.68 93.8617C329.05 91.6475 327.014 93.1734 327.014 93.1734C327.014 93.1734 326.923 77.8801 314.049 80.8258C301.175 83.7714 303.403 91.1555 304.353 93.3776C305.304 95.5996 311.452 98.8087 318.577 95.3814C318.577 95.3814 316.802 97.4005 318.731 99.7139C320.66 102.027 325.993 103.037 325.993 103.037L325.63 106.395Z" fill="url(#paint28_linear_14_3240)"/>
<path d="M322.815 106.62C322.815 106.62 324.091 100.465 327.25 102.544C331.32 105.222 324.459 108.566 324.459 108.566L322.815 106.62Z" fill="url(#paint29_linear_14_3240)"/>
<path d="M319.957 127.731C324.226 131.951 328.731 135.748 333.589 138.912C337.316 133.644 340.865 127.041 342.933 119.843L337.418 120.838L334.661 119.306C331.034 123.587 326.732 125.698 321.642 125.28L319.957 127.731Z" fill="#E4E8F1"/>
<path d="M327.272 128.994L326.621 133.858C328.981 135.807 331.314 137.565 333.59 138.912L336.462 134.547L331.713 128.42L327.272 128.994Z" fill="url(#paint30_linear_14_3240)"/>
<path d="M326.263 125.134L327.31 129.109C328.624 129.236 330.095 129 331.713 128.42L330.348 123.45C330.282 123.209 330.013 123.093 329.79 123.206C328.819 123.696 327.747 124.151 326.541 124.603C326.326 124.684 326.205 124.913 326.263 125.134Z" fill="url(#paint31_linear_14_3240)"/>
<path d="M405.895 199.528H0.460454C0.207157 199.528 0 199.32 0 199.067V198.91C0 198.656 0.207 198.449 0.460454 198.449H405.895C406.148 198.449 406.355 198.656 406.355 198.91V199.067C406.355 199.32 406.148 199.528 405.895 199.528Z" fill="#2E3552"/>
<defs>
<linearGradient id="paint0_linear_14_3240" x1="63.1241" y1="168.057" x2="113.863" y2="131.282" gradientUnits="userSpaceOnUse">
<stop stop-color="#FEBBBA"/>
<stop offset="1" stop-color="#FF928E"/>
</linearGradient>
<linearGradient id="paint1_linear_14_3240" x1="8.53624" y1="87.3741" x2="50.1008" y2="116.44" gradientUnits="userSpaceOnUse">
<stop stop-color="#0A0726"/>
<stop offset="1" stop-color="#171153"/>
</linearGradient>
<linearGradient id="paint2_linear_14_3240" x1="85.6016" y1="107.757" x2="54.0127" y2="182.78" gradientUnits="userSpaceOnUse">
<stop stop-color="#DC4FFF"/>
<stop offset="1" stop-color="#E24084"/>
</linearGradient>
<linearGradient id="paint3_linear_14_3240" x1="71.4151" y1="141.986" x2="63.4458" y2="123.183" gradientUnits="userSpaceOnUse">
<stop stop-color="#FEBBBA"/>
<stop offset="1" stop-color="#FF928E"/>
</linearGradient>
<linearGradient id="paint4_linear_14_3240" x1="72.8512" y1="96.7535" x2="55.0216" y2="133.207" gradientUnits="userSpaceOnUse">
<stop stop-color="#FEBBBA"/>
<stop offset="1" stop-color="#FF928E"/>
</linearGradient>
<linearGradient id="paint5_linear_14_3240" x1="64.9294" y1="92.8782" x2="47.0998" y2="129.331" gradientUnits="userSpaceOnUse">
<stop stop-color="#FEBBBA"/>
<stop offset="1" stop-color="#FF928E"/>
</linearGradient>
<linearGradient id="paint6_linear_14_3240" x1="37.7574" y1="140.615" x2="43.8089" y2="186.699" gradientUnits="userSpaceOnUse">
<stop stop-color="#FEBBBA"/>
<stop offset="1" stop-color="#FF928E"/>
</linearGradient>
<linearGradient id="paint7_linear_14_3240" x1="192.14" y1="19.5352" x2="178.83" y2="67.9139" gradientUnits="userSpaceOnUse">
<stop stop-color="#2B3582"/>
<stop offset="1" stop-color="#150E42"/>
</linearGradient>
<linearGradient id="paint8_linear_14_3240" x1="196.837" y1="31.5705" x2="182.555" y2="83.4844" gradientUnits="userSpaceOnUse">
<stop stop-color="#2B3582"/>
<stop offset="1" stop-color="#150E42"/>
</linearGradient>
<linearGradient id="paint9_linear_14_3240" x1="191.515" y1="26.75" x2="179.825" y2="69.2424" gradientUnits="userSpaceOnUse">
<stop stop-color="#2B3582"/>
<stop offset="1" stop-color="#150E42"/>
</linearGradient>
<linearGradient id="paint10_linear_14_3240" x1="161.861" y1="83.7159" x2="218.202" y2="83.7159" gradientUnits="userSpaceOnUse">
<stop stop-color="#2B3582"/>
<stop offset="1" stop-color="#150E42"/>
</linearGradient>
<linearGradient id="paint11_linear_14_3240" x1="135.443" y1="-11.5282" x2="272.734" y2="84.256" gradientUnits="userSpaceOnUse">
<stop stop-color="#E1473D"/>
<stop offset="1" stop-color="#E9605A"/>
</linearGradient>
<linearGradient id="paint12_linear_14_3240" x1="173.351" y1="5.63154" x2="173.847" y2="-17.4389" gradientUnits="userSpaceOnUse">
<stop stop-color="#FF928E"/>
<stop offset="1" stop-color="#FE7062"/>
</linearGradient>
<linearGradient id="paint13_linear_14_3240" x1="187.555" y1="17.3386" x2="179.741" y2="45.7425" gradientUnits="userSpaceOnUse">
<stop stop-color="#FF928E"/>
<stop offset="1" stop-color="#FE7062"/>
</linearGradient>
<linearGradient id="paint14_linear_14_3240" x1="200.097" y1="17.6327" x2="193.659" y2="41.0359" gradientUnits="userSpaceOnUse">
<stop stop-color="#FF928E"/>
<stop offset="1" stop-color="#FE7062"/>
</linearGradient>
<linearGradient id="paint15_linear_14_3240" x1="211.74" y1="15.8708" x2="206.543" y2="34.7623" gradientUnits="userSpaceOnUse">
<stop stop-color="#FF928E"/>
<stop offset="1" stop-color="#FE7062"/>
</linearGradient>
<linearGradient id="paint16_linear_14_3240" x1="182.198" y1="95.9831" x2="245.549" y2="234.032" gradientUnits="userSpaceOnUse">
<stop stop-color="#50E7B7"/>
<stop offset="0.9964" stop-color="#323992"/>
</linearGradient>
<linearGradient id="paint17_linear_14_3240" x1="126.96" y1="110.742" x2="152.689" y2="110.742" gradientUnits="userSpaceOnUse">
<stop stop-color="#DAE3FE"/>
<stop offset="1" stop-color="#E9EFFD"/>
</linearGradient>
<linearGradient id="paint18_linear_14_3240" x1="189.619" y1="91.2957" x2="219.139" y2="240.29" gradientUnits="userSpaceOnUse">
<stop stop-color="#50E7B7"/>
<stop offset="0.9964" stop-color="#323992"/>
</linearGradient>
<linearGradient id="paint19_linear_14_3240" x1="132.15" y1="96.4062" x2="160.109" y2="96.4062" gradientUnits="userSpaceOnUse">
<stop stop-color="#DAE3FE"/>
<stop offset="1" stop-color="#E9EFFD"/>
</linearGradient>
<linearGradient id="paint20_linear_14_3240" x1="139.17" y1="100.14" x2="258" y2="100.14" gradientUnits="userSpaceOnUse">
<stop stop-color="#4F52FF"/>
<stop offset="1" stop-color="#4042E2"/>
</linearGradient>
<linearGradient id="paint21_linear_14_3240" x1="181.45" y1="99.976" x2="215.796" y2="99.976" gradientUnits="userSpaceOnUse">
<stop stop-color="#4F52FF"/>
<stop offset="1" stop-color="#4042E2"/>
</linearGradient>
<linearGradient id="paint22_linear_14_3240" x1="158.651" y1="100.403" x2="168.38" y2="100.403" gradientUnits="userSpaceOnUse">
<stop stop-color="#4F52FF"/>
<stop offset="1" stop-color="#4042E2"/>
</linearGradient>
<linearGradient id="paint23_linear_14_3240" x1="231.799" y1="102.827" x2="241.528" y2="102.827" gradientUnits="userSpaceOnUse">
<stop stop-color="#4F52FF"/>
<stop offset="1" stop-color="#4042E2"/>
</linearGradient>
<linearGradient id="paint24_linear_14_3240" x1="336.903" y1="118.666" x2="315.986" y2="116.856" gradientUnits="userSpaceOnUse">
<stop stop-color="#A22B25"/>
<stop offset="1" stop-color="#C0423C"/>
</linearGradient>
<linearGradient id="paint25_linear_14_3240" x1="375.264" y1="193.51" x2="359.637" y2="192.158" gradientUnits="userSpaceOnUse">
<stop stop-color="#A22B25"/>
<stop offset="1" stop-color="#C0423C"/>
</linearGradient>
<linearGradient id="paint26_linear_14_3240" x1="266.338" y1="171.386" x2="245.028" y2="169.542" gradientUnits="userSpaceOnUse">
<stop stop-color="#A22B25"/>
<stop offset="1" stop-color="#C0423C"/>
</linearGradient>
<linearGradient id="paint27_linear_14_3240" x1="116.105" y1="-695.918" x2="123.79" y2="-665.521" gradientUnits="userSpaceOnUse">
<stop stop-color="#A22B25"/>
<stop offset="1" stop-color="#C0423C"/>
</linearGradient>
<linearGradient id="paint28_linear_14_3240" x1="293.984" y1="81.6384" x2="311.978" y2="99.6817" gradientUnits="userSpaceOnUse">
<stop stop-color="#0A0726"/>
<stop offset="1" stop-color="#171153"/>
</linearGradient>
<linearGradient id="paint29_linear_14_3240" x1="122.655" y1="-697.576" x2="130.34" y2="-667.18" gradientUnits="userSpaceOnUse">
<stop stop-color="#A22B25"/>
<stop offset="1" stop-color="#C0423C"/>
</linearGradient>
<linearGradient id="paint30_linear_14_3240" x1="333.79" y1="140.238" x2="330.038" y2="130.167" gradientUnits="userSpaceOnUse">
<stop stop-color="#09005D"/>
<stop offset="1" stop-color="#1A0F91"/>
</linearGradient>
<linearGradient id="paint31_linear_14_3240" x1="329.19" y1="129.451" x2="328.769" y2="123.975" gradientUnits="userSpaceOnUse">
<stop stop-color="#09005D"/>
<stop offset="1" stop-color="#1A0F91"/>
</linearGradient>
</defs>
</svg>
