<svg width="376" height="252" viewBox="0 0 376 252" fill="none" xmlns="http://www.w3.org/2000/svg">
<path d="M318.408 178.493H50.5337C50.5337 178.493 65.5935 172.654 81.9563 156.759C98.3183 140.864 104.764 136.886 124.865 133.146C144.968 129.406 141.695 117.251 166.005 114.913C190.315 112.575 205.742 101.356 211.352 96.2134C216.962 91.071 242.207 97.9801 247.816 118.602C253.427 139.223 264.646 132.243 276.334 147.186C288.02 162.131 315.135 158.39 318.408 178.493Z" fill="#5E732F"/>
<path d="M244.928 193.336H337.961C337.961 193.336 349.016 154.019 343.178 149.962C337.341 145.906 332.305 162.365 326.761 142.541C321.217 122.719 316.877 98.4529 299.095 101.731C281.312 105.009 279.735 155.174 267.437 157.288C255.137 159.402 242.897 178.602 244.928 193.336Z" fill="#79943C"/>
<path d="M236.136 193.336H330.855" stroke="#292E4A" stroke-miterlimit="10"/>
<path d="M31.7456 47.2052H138.664C138.664 47.2052 122.904 42.6354 120.283 36.9581C117.663 31.2808 115.809 27.7719 110.568 27.3351C105.328 26.8984 102.91 27.7719 98.1145 20.5667C93.319 13.3615 86.3314 10.5225 80.4365 12.488C74.5408 14.4526 69.9555 31.7029 60.5672 33.6676C51.1781 35.6331 48.1215 33.886 45.064 35.6331C42.0074 37.3794 34.5838 46.5501 31.7456 47.2052Z" fill="#A6B1ED"/>
<path d="M234.158 45.5873H342.098C342.098 45.5873 344.712 35.0531 338.059 31.7756C331.407 28.4982 329.981 34.5844 324.042 30.6052C318.102 26.6251 325.943 2.74711 315.252 0.172249C304.561 -2.40261 290.702 24.7528 277.912 24.0502C265.122 23.3476 261.084 21.7093 256.332 25.4546C251.581 29.2 239.068 44.8847 234.158 45.5873Z" fill="#A6B1ED"/>
<path d="M277.414 33.0173H214.468V113.548H277.414V33.0173Z" fill="#2A4E96"/>
<path d="M223.769 47.5569H260.355" stroke="white" stroke-width="0.9773" stroke-miterlimit="10"/>
<path d="M223.769 54.9067H268.114" stroke="white" stroke-width="0.9773" stroke-miterlimit="10"/>
<path d="M223.769 62.2576H268.114" stroke="white" stroke-width="0.9773" stroke-miterlimit="10"/>
<path d="M223.769 69.6077H268.114" stroke="white" stroke-width="0.9773" stroke-miterlimit="10"/>
<path d="M223.769 76.9585H268.114" stroke="white" stroke-width="0.9773" stroke-miterlimit="10"/>
<path d="M223.769 84.3083H268.114" stroke="white" stroke-width="0.9773" stroke-miterlimit="10"/>
<path d="M223.769 91.6582H268.114" stroke="white" stroke-width="0.9773" stroke-miterlimit="10"/>
<path d="M223.769 99.009H268.114" stroke="white" stroke-width="0.9773" stroke-miterlimit="10"/>
<path d="M202.245 98.4822V81.5763L191.644 81.8888C190.955 79.3605 189.951 76.964 188.679 74.7392L196.399 67.4612L184.445 55.5063L177.167 63.2259C174.942 61.9541 172.545 60.9505 170.017 60.2609L170.33 49.6597H153.424L153.736 60.2609C151.208 60.9505 148.811 61.9541 146.587 63.2259L139.309 55.5063L127.354 67.4612L135.074 74.7392C133.802 76.964 132.799 79.3614 132.109 81.8888L121.508 81.5763V98.4822L132.109 98.1698C132.799 100.698 133.802 103.095 135.074 105.319L127.354 112.597L139.309 124.552L146.587 116.832C148.811 118.104 151.209 119.107 153.736 119.797L153.424 130.398H170.33L170.017 119.797C172.545 119.107 174.942 118.104 177.167 116.832L184.445 124.552L196.399 112.597L188.679 105.319C189.951 103.095 190.955 100.697 191.644 98.1698L202.245 98.4822ZM161.875 100.519C156.082 100.519 151.385 95.8223 151.385 90.0289C151.385 84.2355 156.082 79.5389 161.875 79.5389C167.669 79.5389 172.365 84.2355 172.365 90.0289C172.365 95.8223 167.669 100.519 161.875 100.519Z" fill="#6470B5"/>
<path d="M161.875 68.9116C150.212 68.9116 140.758 78.3661 140.758 90.0291C140.758 101.692 150.212 111.147 161.875 111.147C173.538 111.147 182.993 101.692 182.993 90.0291C182.993 78.3661 173.538 68.9116 161.875 68.9116ZM161.875 100.519C156.082 100.519 151.385 95.8225 151.385 90.0291C151.385 84.2357 156.082 79.5391 161.875 79.5391C167.669 79.5391 172.365 84.2357 172.365 90.0291C172.365 95.8225 167.669 100.519 161.875 100.519Z" fill="#292E4A"/>
<path d="M205.337 32.2368V21.9537L198.89 22.1435C198.47 20.6058 197.86 19.1482 197.086 17.7945L201.782 13.3679L194.51 6.09642L190.084 10.7922C188.73 10.0184 187.272 9.40825 185.735 8.98865L185.924 2.54004H175.641L175.831 8.98865C174.293 9.40825 172.836 10.0184 171.482 10.7922L167.056 6.09642L159.784 13.3679L164.48 17.7945C163.706 19.1482 163.096 20.6058 162.676 22.1435L156.229 21.9537V32.2368L162.676 32.0471C163.096 33.5848 163.706 35.0424 164.48 36.396L159.784 40.8227L167.056 48.0941L171.482 43.3984C172.836 44.1721 174.293 44.7823 175.831 45.2019L175.641 51.6497H185.924L185.735 45.2019C187.272 44.7823 188.73 44.1721 190.084 43.3984L194.51 48.0941L201.782 40.8227L197.086 36.396C197.86 35.0424 198.47 33.5848 198.89 32.0471L205.337 32.2368ZM180.782 33.476C177.258 33.476 174.401 30.6198 174.401 27.0953C174.401 23.5708 177.258 20.7146 180.782 20.7146C184.307 20.7146 187.163 23.5716 187.163 27.0953C187.163 30.619 184.307 33.476 180.782 33.476Z" fill="#A6B1ED"/>
<path d="M184.197 165.455C183.194 169.128 181.259 173.849 180.801 178.05C180.344 182.251 188.14 184.637 189.151 182.528C189.283 182.252 187.512 180.79 188.986 176.888C190.755 172.206 191.658 170.2 190.828 166.955C190.198 164.491 184.815 163.191 184.197 165.455Z" fill="#CC9B74"/>
<path d="M246.498 100.979C246.498 100.979 234.182 107.336 226.235 106.542C218.289 105.747 198.821 103.321 191.668 110.594C184.516 117.866 155.91 153.028 157.3 155.61C158.691 158.193 190.477 183.423 197.23 181.237C203.985 179.052 233.824 148.657 241.353 144.088C248.881 139.519 260.131 133.956 260.131 133.956L246.498 100.979Z" fill="#CC9B74"/>
<path d="M123.407 93.3464C123.407 93.3464 144.784 104.753 153.923 105.349C163.061 105.945 179.107 104.554 190.652 107.733C202.197 110.912 192.305 116.474 196.357 120.447C200.409 124.421 228.996 141.038 233.386 143.889C237.777 146.74 238.949 150.479 235.969 153.045C232.989 155.61 229.413 154.816 223.85 151.637C218.287 148.459 207.759 140.91 207.163 142.499C206.566 144.089 225.042 155.638 227.624 157.81C230.206 159.981 230.604 163.557 226.432 165.742C222.261 167.927 218.685 168.126 215.109 165.742C211.533 163.358 199.415 154.418 198.024 155.809C196.633 157.199 204.381 161.372 209.347 165.095C213.981 168.569 217.492 169.715 217.89 172.496C218.287 175.277 213.952 180.218 206.765 177.86C202.527 176.469 191.27 168.125 189.548 169.317C187.827 170.509 205.971 177.793 205.706 180.707C205.441 183.62 201.6 188.488 190.651 183.223C183.97 180.011 143.327 151.438 139.089 148.259C134.851 145.081 99.0225 126.209 99.0225 126.209L123.407 93.3464Z" fill="#F9CCA9"/>
<path d="M209.944 132.366C209.944 132.366 208.554 138.46 203.786 141.175C204.283 144.782 201.601 151.835 195.84 153.777C195.343 157.808 191.881 164.362 187.794 165.741" stroke="#CC9B74" stroke-width="0.9715" stroke-miterlimit="10" stroke-linecap="round" stroke-linejoin="round"/>
<path d="M164.253 112.501C164.142 110.777 172.332 109.985 177.895 108.131C183.457 106.276 193.125 103.309 201.072 103.667C209.018 104.025 218.679 106.087 225.304 106.446C231.93 106.806 227.03 114.223 220.673 116.077C214.316 117.931 200.385 122.699 196.358 120.447C192.331 118.195 188.755 117.269 182.531 117.799C176.305 118.328 164.518 116.606 164.253 112.501Z" fill="#CC9B74"/>
<path d="M328.681 133.919C339.862 129.572 340.565 104.538 330.25 78.0015C319.936 51.4654 302.51 33.4768 291.329 37.8229C280.148 42.169 279.445 67.2039 289.759 93.74C300.074 120.276 317.499 138.265 328.681 133.919Z" fill="#292E4A"/>
<path d="M317.121 116.424L334.305 108.726" stroke="#6470B5" stroke-width="0.9715" stroke-miterlimit="10"/>
<path d="M254.812 92.8665C254.812 92.8665 248.82 95.2 246.448 95.946C244.826 96.4556 242.913 97.1819 241.864 97.59C241.434 97.7577 241.235 98.2485 241.424 98.6697C242.972 102.139 249.286 116.304 250.817 119.911C252.565 124.031 257.308 136.889 257.933 137.639C258.557 138.388 272.664 132.77 272.664 132.77L254.812 92.8665Z" fill="#292E4A"/>
<path d="M251.795 91.2788L308.081 59.2607C308.081 59.2607 313.644 66.8095 313.246 74.8555C312.849 82.9007 320.2 87.2718 320.001 101.177C319.91 107.534 324.967 113.295 324.967 113.295L271.33 136.538L251.795 91.2788Z" fill="#6470B5"/>
<path d="M314.306 55.2871L251.795 91.2787" stroke="white" stroke-width="0.9715" stroke-miterlimit="10"/>
<path d="M260.131 110.593L290.334 96.7402" stroke="#292E4A" stroke-width="0.9715" stroke-miterlimit="10"/>
<path d="M269.343 100.979C269.343 102.679 267.964 104.058 266.263 104.058C264.563 104.058 263.184 102.68 263.184 100.979C263.184 99.2781 264.563 97.8999 266.263 97.8999C267.964 97.8991 269.343 99.2781 269.343 100.979Z" fill="white"/>
<path d="M265.672 100.159C265.672 100.328 265.534 100.465 265.365 100.465C265.196 100.465 265.059 100.328 265.059 100.159C265.059 99.9907 265.197 99.8533 265.365 99.8533C265.535 99.8533 265.672 99.9899 265.672 100.159Z" fill="#292E4A"/>
<path d="M267.468 100.159C267.468 100.328 267.331 100.465 267.161 100.465C266.992 100.465 266.855 100.328 266.855 100.159C266.855 99.9907 266.993 99.8533 267.161 99.8533C267.33 99.8533 267.468 99.9899 267.468 100.159Z" fill="#292E4A"/>
<path d="M265.672 101.798C265.672 101.967 265.534 102.104 265.365 102.104C265.196 102.104 265.059 101.967 265.059 101.798C265.059 101.629 265.197 101.492 265.365 101.492C265.535 101.491 265.672 101.629 265.672 101.798Z" fill="#292E4A"/>
<path d="M267.468 101.798C267.468 101.967 267.331 102.104 267.161 102.104C266.992 102.104 266.855 101.967 266.855 101.798C266.855 101.629 266.993 101.492 267.161 101.492C267.33 101.492 267.468 101.629 267.468 101.798Z" fill="#292E4A"/>
<path d="M278.312 99.0255C280.013 99.0255 281.392 97.6468 281.392 95.946C281.392 94.2452 280.013 92.8665 278.312 92.8665C276.612 92.8665 275.233 94.2452 275.233 95.946C275.233 97.6468 276.612 99.0255 278.312 99.0255Z" fill="white"/>
<path d="M277.72 95.1265C277.72 95.2958 277.583 95.4324 277.413 95.4324C277.244 95.4324 277.107 95.295 277.107 95.1265C277.107 94.9571 277.245 94.8206 277.413 94.8206C277.583 94.8206 277.72 94.9571 277.72 95.1265Z" fill="#292E4A"/>
<path d="M279.517 95.1265C279.517 95.2958 279.379 95.4324 279.211 95.4324C279.041 95.4324 278.905 95.295 278.905 95.1265C278.905 94.9571 279.042 94.8206 279.211 94.8206C279.38 94.8206 279.517 94.9571 279.517 95.1265Z" fill="#292E4A"/>
<path d="M277.72 96.7654C277.72 96.9347 277.583 97.0713 277.413 97.0713C277.244 97.0713 277.107 96.9339 277.107 96.7654C277.107 96.5969 277.245 96.4595 277.413 96.4595C277.583 96.4587 277.72 96.5961 277.72 96.7654Z" fill="#292E4A"/>
<path d="M279.517 96.7654C279.517 96.9347 279.379 97.0713 279.211 97.0713C279.041 97.0713 278.905 96.9339 278.905 96.7654C278.905 96.5969 279.042 96.4595 279.211 96.4595C279.38 96.4587 279.517 96.5961 279.517 96.7654Z" fill="#292E4A"/>
<path d="M90.6736 93.719C100.988 67.1829 100.285 42.148 89.104 37.8019C77.9227 33.4558 60.497 51.4444 50.1827 77.9805C39.8683 104.517 40.5711 129.552 51.7523 133.898C62.9336 138.244 80.3592 120.255 90.6736 93.719Z" fill="#292E4A"/>
<path d="M63.2944 116.424L46.1104 108.726" stroke="#FF7700" stroke-width="0.9715" stroke-miterlimit="10" stroke-linecap="round" stroke-linejoin="round"/>
<path d="M125.907 92.1875C125.907 92.1875 131.429 95.2834 133.693 96.3099C135.049 96.925 137.105 97.8681 138.152 98.2762C138.582 98.4439 138.781 98.9347 138.593 99.3559C137.045 102.826 131.128 116.304 129.598 119.911C127.85 124.031 120.908 138.704 120.284 139.453C119.66 140.202 107.751 132.769 107.751 132.769L125.907 92.1875Z" fill="#995417"/>
<path d="M128.62 91.2788L72.3333 59.2607C72.3333 59.2607 71.8107 69.5913 63.8644 74.094C56.8564 78.0651 49.7869 86.3221 55.447 99.0255C59.0721 107.161 55.447 113.296 55.447 113.296L109.085 136.539L128.62 91.2788Z" fill="#E53232"/>
<path d="M66.1089 55.2871L128.62 91.2787" stroke="#E53232" stroke-width="0.9715" stroke-miterlimit="10" stroke-linecap="round" stroke-linejoin="round"/>
<path d="M120.284 110.593L90.0801 96.7402" stroke="#995417" stroke-width="0.9715" stroke-miterlimit="10"/>
<path d="M111.072 100.979C111.072 102.679 112.45 104.058 114.151 104.058C115.852 104.058 117.231 102.68 117.231 100.979C117.231 99.2781 115.853 97.8999 114.151 97.8999C112.451 97.8991 111.072 99.2781 111.072 100.979Z" fill="white"/>
<path d="M114.742 100.159C114.742 100.328 114.88 100.465 115.048 100.465C115.217 100.465 115.354 100.328 115.354 100.159C115.354 99.9907 115.217 99.8533 115.048 99.8533C114.88 99.8533 114.742 99.9899 114.742 100.159Z" fill="#292E4A"/>
<path d="M112.946 100.159C112.946 100.328 113.084 100.465 113.252 100.465C113.421 100.465 113.558 100.328 113.558 100.159C113.558 99.9907 113.421 99.8533 113.252 99.8533C113.084 99.8533 112.946 99.9899 112.946 100.159Z" fill="#292E4A"/>
<path d="M114.742 101.798C114.742 101.967 114.88 102.104 115.048 102.104C115.217 102.104 115.354 101.967 115.354 101.798C115.354 101.629 115.217 101.492 115.048 101.492C114.88 101.491 114.742 101.629 114.742 101.798Z" fill="#292E4A"/>
<path d="M112.946 101.798C112.946 101.967 113.084 102.104 113.252 102.104C113.421 102.104 113.558 101.967 113.558 101.798C113.558 101.629 113.421 101.492 113.252 101.492C113.084 101.492 112.946 101.629 112.946 101.798Z" fill="#292E4A"/>
<path d="M102.103 99.0255C103.804 99.0255 105.182 97.6468 105.182 95.946C105.182 94.2452 103.804 92.8665 102.103 92.8665C100.402 92.8665 99.0234 94.2452 99.0234 95.946C99.0234 97.6468 100.402 99.0255 102.103 99.0255Z" fill="white"/>
<path d="M102.694 95.1265C102.694 95.2958 102.832 95.4324 103 95.4324C103.17 95.4324 103.306 95.295 103.306 95.1265C103.306 94.9571 103.169 94.8206 103 94.8206C102.832 94.8206 102.694 94.9571 102.694 95.1265Z" fill="#292E4A"/>
<path d="M100.898 95.1265C100.898 95.2958 101.035 95.4324 101.204 95.4324C101.373 95.4324 101.51 95.295 101.51 95.1265C101.51 94.9571 101.372 94.8206 101.204 94.8206C101.035 94.8206 100.898 94.9571 100.898 95.1265Z" fill="#292E4A"/>
<path d="M102.694 96.7654C102.694 96.9347 102.832 97.0713 103 97.0713C103.17 97.0713 103.306 96.9339 103.306 96.7654C103.306 96.5969 103.169 96.4595 103 96.4595C102.832 96.4587 102.694 96.5961 102.694 96.7654Z" fill="#292E4A"/>
<path d="M100.898 96.7654C100.898 96.9347 101.035 97.0713 101.204 97.0713C101.373 97.0713 101.51 96.9339 101.51 96.7654C101.51 96.5969 101.372 96.4595 101.204 96.4595C101.035 96.4587 100.898 96.5961 100.898 96.7654Z" fill="#292E4A"/>
<path d="M142.056 151.324C142.056 147.084 145.764 133.578 149.34 133.975C152.916 134.373 155.167 137.021 154.77 141.392C154.373 145.762 150.268 154.901 151.062 156.358C151.856 157.815 154.108 158.212 152.916 159.006C151.724 159.8 142.056 157.681 142.056 151.324Z" fill="#CC9B74"/>
<path d="M156.704 163.887C155.381 161.593 155.248 157.398 156.704 153.027C158.161 148.657 162.028 138.754 163.326 138.459C166.24 137.797 169.816 140.578 170.743 144.286C171.669 147.995 163.407 164.177 164.601 165.368C165.794 166.56 166.563 166.942 166.264 167.505C165.172 169.565 158.691 167.331 156.704 163.887Z" fill="#CC9B74"/>
<path d="M169.025 171.399C168.694 169.118 172.455 154.445 175.137 153.848C177.819 153.252 180.845 156.499 181.243 159.678C181.64 162.856 177.356 173.643 177.936 174.581C178.458 175.426 179.65 176.022 179.556 176.412C178.878 179.248 169.753 176.412 169.025 171.399Z" fill="#CC9B74"/>
<path d="M272.678 205.642H337.235C337.235 205.642 348.877 175.34 348.524 165.463C348.171 155.586 342.879 158.398 346.054 145.174C349.23 131.95 354.521 109.708 344.996 108.306C335.471 106.903 317.127 152.058 308.307 154.88C299.489 157.702 291.022 163.346 283.613 176.751C276.206 190.157 272.678 205.642 272.678 205.642Z" fill="#8EAD46"/>
<path d="M346.056 108.571C346.056 108.571 328.257 168.604 308.847 205.641" stroke="#525730" stroke-miterlimit="10"/>
<path d="M319.957 140.699C319.957 140.699 311.595 174.535 302.356 205.642" stroke="#525730" stroke-miterlimit="10"/>
<path d="M345.359 148.591C345.359 148.591 328.269 187.417 316.351 205.642" stroke="#525730" stroke-miterlimit="10"/>
<path d="M256.446 205.642H347.622" stroke="#292E4A" stroke-miterlimit="10"/>
<path d="M315.648 251.381C321.785 251.381 326.76 249.412 326.76 246.984C326.76 244.556 321.785 242.588 315.648 242.588C309.51 242.588 304.535 244.556 304.535 246.984C304.535 249.412 309.51 251.381 315.648 251.381Z" fill="#C3C4C9"/>
<path d="M273.936 251.381C280.073 251.381 285.049 249.412 285.049 246.984C285.049 244.556 280.073 242.588 273.936 242.588C267.799 242.588 262.824 244.556 262.824 246.984C262.824 249.412 267.799 251.381 273.936 251.381Z" fill="#C3C4C9"/>
<path d="M288.22 154.792H280.658C280.328 154.792 280.033 154.589 279.915 154.281L275.05 141.624C274.928 141.306 275.162 140.966 275.501 140.966H283.064C283.394 140.966 283.689 141.169 283.807 141.476L288.672 154.135C288.794 154.451 288.56 154.792 288.22 154.792Z" fill="#CC9B74"/>
<path d="M316.795 240.593L319.358 243.39C319.358 243.39 315.202 246.846 314.153 247.157C313.105 247.468 311.085 247.157 309.997 247.157C308.91 247.157 311.668 246.225 312.561 245.293C313.454 244.36 314.231 240.593 314.231 240.593H316.795Z" fill="#6470B5"/>
<path d="M277.898 240.697C277.898 240.697 280.17 246.984 277.607 246.984C276.616 246.984 271.955 246.984 270.849 246.984C269.742 246.984 263.509 243.376 264.149 242.668C264.79 241.961 268.052 242.82 269.101 242.77C270.149 242.719 272.422 242.517 273.47 241.606C274.519 240.696 274.461 240.343 274.461 240.343L277.898 240.697Z" fill="#6470B5"/>
<path d="M288.924 178.062C288.924 178.062 278.073 214.183 272.83 241.098H278.762C278.762 241.098 292.054 204.628 294.793 199.735L296.178 216.047C296.178 216.047 307.436 234.806 313.727 241.098H317.922C317.922 241.098 306.386 219.542 305.688 211.153C304.988 202.763 305.221 197.054 305.455 192.277C305.688 187.501 307.319 181.208 304.872 178.062H288.924Z" fill="#3F4152"/>
<path d="M317.922 241.099C317.922 241.099 314.438 234.587 311.184 227.329L311.184 227.329C308.64 224.861 304.756 221.524 301.61 219.893C298.464 218.262 296.178 216.048 296.178 216.048C296.178 216.048 307.436 234.807 313.727 241.099H317.922Z" fill="#2D2F3B"/>
<path d="M272.674 160.527C272.674 160.527 270.305 159.109 269.062 158.604C267.819 158.099 265.567 157.051 264.596 156.973C263.625 156.895 262.848 157.09 263.431 157.711C264.013 158.332 266.072 160.003 266.305 160.527C266.538 161.051 264.557 160.43 264.169 160.78C263.78 161.129 264.946 161.828 265.761 161.944C266.577 162.061 268.092 161.867 269.102 162.1C270.111 162.333 272.674 163.343 272.674 163.343V160.527Z" fill="#F9C8A2"/>
<path d="M294.792 149.769C294.792 149.769 290.54 155.983 289.899 157.09C289.258 158.197 288.123 160.409 287.103 161.984C286.791 162.465 285.937 164.023 285.239 164.081C284.539 164.139 271.897 159.595 271.897 159.595L270.849 163.44C270.849 163.44 273.354 164.431 274.985 165.304C276.616 166.178 280.345 167.984 281.685 168.508C283.024 169.033 287.976 170.956 289.142 170.139C290.307 169.324 294.427 162.333 294.427 162.333L294.792 149.769Z" fill="#495285"/>
<path d="M281.413 152.779C281.413 152.779 281.374 148.933 280.986 148.156C280.598 147.379 279.355 143.923 279.005 144.078C278.656 144.234 279.51 146.564 279.005 146.681C278.5 146.797 276.208 142.991 275.704 143.03C275.199 143.068 275.588 148.622 276.597 149.768C277.606 150.914 278.888 152.118 278.927 152.351C278.966 152.584 279.82 155.07 279.82 155.07L281.413 152.779Z" fill="#F9C8A2"/>
<path d="M297.83 132.818C297.83 132.818 296.618 139.404 296.829 140.617C297.04 141.829 299.147 141.723 299.832 142.882C300.517 144.041 300.359 147.361 300.359 147.361H306.155C306.155 147.361 305.681 143.356 305.892 141.881C306.103 140.406 307.472 134.663 305.892 133.082C304.311 131.502 298.62 131.923 297.83 132.818Z" fill="#F9C8A2"/>
<path d="M295.266 132.485C295.761 134.965 301.097 133.96 302.08 134.522C303.063 135.084 302.782 137.613 303.133 138.245C303.485 138.878 303.977 137.332 304.819 137.894C305.662 138.456 305.24 140.282 304.257 140.282C305.03 141.476 305.24 142.67 305.873 142.53C306.505 142.389 307.629 139.521 307.699 137.513C307.769 135.504 306.856 134.099 307.137 132.905C307.418 131.711 305.311 130.517 303.555 130.517C301.798 130.518 294.703 129.675 295.266 132.485Z" fill="#995417"/>
<path d="M298.347 147.361C298.347 147.361 297.57 146.526 299.201 146.215C300.832 145.904 307.513 146.04 307.823 146.787C308.134 147.535 307.046 148.079 307.823 149.399C308.6 150.72 308.793 156.157 307.881 161.206C306.969 166.255 304.949 172.08 305.493 174.178C306.037 176.275 307.202 179.305 305.105 179.305C303.007 179.305 292.443 179.305 290.113 179.305C287.782 179.305 288.015 178.45 288.559 176.275C289.103 174.101 289.181 173.168 289.181 173.168C289.181 173.168 287.084 174.333 286.229 172.547C285.374 170.76 278.461 153.982 278.772 153.438C279.083 152.894 280.947 151.574 281.491 152.039C282.035 152.505 287.816 162.11 288.792 162.681C289.492 163.089 291.996 160.525 291.996 160.525C291.996 160.525 293.672 153.775 293.918 152.253C294.268 150.099 295.783 147.361 298.347 147.361Z" fill="#6470B5"/>
<path d="M291.997 160.527C291.997 160.527 294.385 157.963 295.434 157.148C296.482 156.332 298.754 154.293 299.395 153.478C300.036 152.662 298.929 153.362 297.997 153.944C297.065 154.526 295.373 156.194 294.588 156.817C293.803 157.439 292.437 158.729 292.437 158.729L291.997 160.527Z" fill="#495285"/>
<path d="M289.18 173.169C289.18 173.169 291.821 170.945 292.462 170.338C293.102 169.731 296.132 167.459 297.239 166.527C298.346 165.595 300.898 163.148 301.603 162.682C302.308 162.216 302.949 160.643 303.357 161.109C303.765 161.576 302.355 163.673 301.603 164.139C300.851 164.605 296.366 168.217 295.2 169.266C294.035 170.314 288.924 174.687 288.924 174.687L289.18 173.169Z" fill="#495285"/>
<path d="M294.792 199.735C294.792 199.735 296.366 194.259 297.764 192.86C299.161 191.462 300.327 189.248 300.56 188.432C301.842 189.714 299.278 191.462 298.463 194.083C297.647 196.705 295.108 203.451 295.108 203.451L294.792 199.735Z" fill="#2D2F3B"/>
<path d="M355.258 64.3041C347.648 67.09 345.39 69.3483 342.605 76.9576C339.819 69.3475 337.56 67.0892 329.951 64.3041C337.561 61.5182 339.82 59.2599 342.605 51.6506C345.391 59.2607 347.649 61.5182 355.258 64.3041Z" fill="#FFD817"/>
<path d="M46.1102 64.3041C38.5001 67.09 36.2418 69.3483 33.4567 76.9576C30.6708 69.3475 28.4125 67.0892 20.8032 64.3041C28.4133 61.5182 30.6716 59.2599 33.4567 51.6506C36.2426 59.2607 38.5009 61.5182 46.1102 64.3041Z" fill="#FFD817"/>
<path d="M347.785 94.8205C344.67 95.9607 343.745 96.8857 342.605 100.001C341.464 96.8857 340.539 95.9607 337.424 94.8205C340.539 93.6803 341.464 92.7552 342.605 89.6396C343.745 92.7552 344.67 93.6794 347.785 94.8205Z" fill="#FFD817"/>
<path d="M116.252 67.4384C113.137 68.5786 112.212 69.5037 111.071 72.6192C109.931 69.5037 109.006 68.5786 105.891 67.4384C109.006 66.2982 109.931 65.3731 111.071 62.2576C112.212 65.3731 113.137 66.2974 116.252 67.4384Z" fill="#FFD817"/>
<path d="M56.8113 24.2074C53.6958 25.3476 52.7707 26.2727 51.6305 29.3882C50.4903 26.2727 49.5652 25.3476 46.4497 24.2074C49.5652 23.0672 50.4903 22.1421 51.6305 19.0266C52.7715 22.1429 53.6958 23.0672 56.8113 24.2074Z" fill="#FFD817"/>
<path d="M122.383 196.134C122.383 196.134 113.752 187.743 112.553 177.913C111.354 168.083 111.354 157.774 102.963 156.815C94.5713 155.856 97.2084 172.159 94.092 172.398C90.9749 172.638 89.5369 128.285 77.07 127.565C64.603 126.846 67.1214 146.017 68.9184 156.335C70.0414 162.781 70.3416 165.948 66.737 165.948C60.672 165.948 61.0065 148.183 58.8488 133.798C56.6911 119.413 52.6153 108.385 37.0312 108.385C21.4471 108.385 30.5581 129.962 35.5924 139.073C40.6268 148.183 46.8603 158.973 41.3466 160.411C35.8321 161.849 31.7563 146.985 22.6462 147.944C13.536 148.902 9.69988 165.925 18.5704 175.035C27.4409 184.145 4.66467 178.632 5.86376 196.133H122.383V196.134Z" fill="#79943C"/>
<path d="M39.687 108.024C39.687 108.024 56.251 161.725 62.451 196.134" stroke="#525730" stroke-width="0.8793" stroke-miterlimit="10"/>
<path d="M18.6685 149.579C18.6685 149.579 29.8644 174.591 52.1613 196.133" stroke="#525730" stroke-width="0.8793" stroke-miterlimit="10"/>
<path d="M74.6021 127.713C74.6021 127.713 82.2686 160.206 80.6409 196.134" stroke="#525730" stroke-width="0.8793" stroke-miterlimit="10"/>
<path d="M104.611 157.706C104.611 157.706 103.361 175.669 100.627 196.133" stroke="#525730" stroke-width="0.8793" stroke-miterlimit="10"/>
<path d="M0 196.191H132.218" stroke="#292E4A" stroke-width="0.8793" stroke-miterlimit="10"/>
<path d="M47.2194 251.381C53.3567 251.381 58.3319 249.412 58.3319 246.984C58.3319 244.556 53.3567 242.588 47.2194 242.588C41.0822 242.588 36.1069 244.556 36.1069 246.984C36.1069 249.412 41.0822 251.381 47.2194 251.381Z" fill="#C3C4C9"/>
<path d="M29.8234 251.381C35.9607 251.381 40.9359 249.412 40.9359 246.984C40.9359 244.556 35.9607 242.588 29.8234 242.588C23.6862 242.588 18.7109 244.556 18.7109 246.984C18.7109 249.412 23.6862 251.381 29.8234 251.381Z" fill="#C3C4C9"/>
<path d="M32.6929 145.401L37.3698 144.504C37.3698 144.504 41.5536 146.969 42.1981 151.535C42.8418 156.102 43.8626 177.573 43.8626 177.573L33.9811 177.096L32.6929 145.401Z" fill="white"/>
<path d="M45.851 235.795C45.851 235.795 45.9508 240.038 47.2554 242.032C48.56 244.026 51.8317 245.559 51.8317 245.559C51.8317 245.559 54.8483 246.02 54.2348 246.786C53.6214 247.553 41.6076 246.786 40.4829 246.786C39.3582 246.786 41.1986 243.617 41.4546 242.645C41.7106 241.673 41.6591 235.795 41.6591 235.795H45.851Z" fill="#A83E63"/>
<path d="M31.048 235.795C31.048 235.795 29.7794 240.038 31.084 242.032C32.3886 244.026 35.6604 245.559 35.6604 245.559C35.6604 245.559 38.6769 246.02 38.0635 246.786C37.45 247.553 25.4362 246.786 24.3115 246.786C23.1868 246.786 25.0272 243.617 25.2832 242.645C25.5392 241.673 26.8569 235.795 26.8569 235.795H31.048Z" fill="#A83E63"/>
<path d="M27.8522 175.648H46.6132C46.6132 175.648 49.8146 199.619 49.1259 212.433C48.438 225.248 46.9772 237.108 46.9772 237.108H40.1221L41.2124 212.706L38.5369 194.712C38.5369 194.712 38.5369 217.477 32.2151 237.108H25.7231L29.9887 211.206L27.8522 175.648Z" fill="#3F4152"/>
<path d="M38.5379 186.77C37.6693 186.77 38.5379 194.711 38.5379 194.711L41.2134 212.705C42.9171 205.31 39.4066 186.77 38.5379 186.77Z" fill="#2D2F3B"/>
<path d="M41.0316 216.762L40.1221 237.107H46.9772C46.9772 237.107 47.4107 233.582 47.917 228.304L41.0316 216.762Z" fill="#2D2F3B"/>
<path d="M59.855 157.699C59.855 157.699 61.1162 156.609 61.2185 156.268C61.3207 155.927 61.1841 155.178 62.6842 154.325C64.1835 153.473 64.8657 153.44 64.8313 153.678C64.7969 153.916 62.9909 154.563 63.4678 154.87C63.9447 155.177 66.4672 155.109 66.7052 154.972C66.944 154.836 68.409 153.78 68.75 154.189C69.0911 154.598 67.9664 155.961 67.591 156.506C67.2164 157.052 64.6939 158.449 62.5133 158.585C60.3318 158.722 60.0938 159.675 60.0938 159.675L59.855 157.699Z" fill="#CC9B74"/>
<path d="M36.9869 144.817C36.9869 144.817 39.2363 145.703 40.3266 148.77C41.4169 151.837 41.9232 154.795 41.6214 157.699C41.3195 160.604 41.8872 166.56 42.1972 170.036C42.5072 173.512 41.6892 179.034 43.1206 179.238C44.552 179.442 46.1879 179.579 47.0058 178.557C47.8238 177.534 47.0058 171.059 47.0058 171.059C47.0058 171.059 61.5242 159.744 61.6608 159.199C61.7974 158.653 60.8428 156.745 60.2294 156.881C59.6159 157.018 47.1424 163.493 47.1424 163.493C47.1424 163.493 46.9248 158.244 46.1813 155.518C45.4378 152.792 42.7117 146.744 41.3482 145.985C39.9847 145.226 36.5771 144.271 36.5771 144.271L36.9869 144.817Z" fill="#DC5181"/>
<path d="M47.0069 171.059C47.0069 171.059 52.7512 166.583 57.047 163.125C56.2054 161.66 50.0749 165.431 49.1261 165.129C48.1103 164.806 49.1719 162.443 49.733 162.154C48.2109 162.94 47.1426 163.494 47.1426 163.494C47.2621 165.447 46.8703 169.389 47.0069 171.059Z" fill="#A83E63"/>
<path d="M48.1371 164.043L43.3489 165.003C42.9514 165.083 42.6071 164.72 42.7069 164.328L45.6964 152.541C45.7561 152.306 45.9459 152.126 46.1839 152.078L50.9721 151.118C51.3696 151.039 51.714 151.4 51.6142 151.794L48.6246 163.58C48.5641 163.816 48.3752 163.996 48.1371 164.043Z" fill="#6470B5"/>
<path d="M47.2178 153.657C47.1246 154.027 46.8498 154.276 46.6036 154.214C46.3574 154.152 46.233 153.802 46.3255 153.433C46.4187 153.063 46.6935 152.814 46.9397 152.876C47.1859 152.938 47.3103 153.287 47.2178 153.657Z" fill="#292E4A"/>
<path d="M38.2139 162.982C38.2139 162.982 39.5774 162.301 40.0886 161.892C40.5998 161.483 42.8835 158.723 43.5992 158.484C44.3148 158.245 45.8828 157.666 46.1552 158.484C46.4276 159.302 44.5872 159.817 44.4514 160.088C44.3148 160.358 45.3716 160.052 45.406 160.29C45.4403 160.529 44.5537 160.664 44.2813 161.04C44.0089 161.414 43.0201 164.311 41.3506 164.277C39.6804 164.243 38.2155 165.129 38.2155 165.129V162.982H38.2139Z" fill="#CC9B74"/>
<path d="M43.7005 132.019C44.0416 132.684 43.8027 134.627 43.3594 135.717C42.9161 136.808 42.7116 138.921 42.7116 138.921C42.7116 138.921 41.4847 138.989 41.2123 139.602C40.94 140.216 40.3944 141.92 39.2354 142.056C38.0764 142.193 37.5995 142.431 37.5995 142.431L37.2249 145.805C37.2249 145.805 34.5666 146.588 32.6919 144.885C32.6919 144.885 33.4632 141.055 33.5205 139.289C33.5777 137.523 34.1576 131.559 37.0539 130.536C39.9519 129.515 43.7005 132.019 43.7005 132.019Z" fill="#F9C8A2"/>
<path d="M32.6931 144.272C32.6931 144.272 35.6238 146.385 36.2372 149.043C36.8507 151.701 37.8731 155.859 37.123 158.245C36.373 160.631 36.5775 163.084 36.5775 163.084L39.0313 161.925L39.3724 165.402L37.123 166.697C37.123 166.697 36.9864 171.127 37.123 173.717C37.2596 176.307 37.5999 179.033 36.373 179.647C35.1461 180.26 26.8988 180.192 26.0122 179.101C25.1264 178.011 26.5578 172.285 26.5578 172.285C26.5578 172.285 23.4226 173.989 21.6502 172.831C19.8777 171.672 20.6956 167.447 21.6502 164.379C22.6047 161.312 24.854 153.337 25.4675 150.542C26.0809 147.748 29.2848 145.226 32.6931 144.272Z" fill="#DC5181"/>
<path d="M30.3749 154.155C30.3749 154.155 28.1935 163.629 28.0577 164.721C26.6942 165.334 25.127 166.084 26.1495 166.015C27.1719 165.947 34.8425 163.904 36.5781 163.085V161.413C36.5781 161.413 31.3294 163.835 30.3757 163.221C29.4212 162.608 30.3078 161.249 30.4436 160.088C30.5794 158.926 30.3749 154.155 30.3749 154.155Z" fill="#A83E63"/>
<path d="M32.8631 170.36C34.8572 169.236 35.7774 167.293 35.7774 167.293L26.5585 172.286C26.5585 172.286 25.1271 178.011 26.0129 179.101C26.2591 179.404 27.0827 179.626 28.1567 179.778C27.3412 177.492 30.8706 171.485 32.8631 170.36Z" fill="#A83E63"/>
<path d="M35.9089 127.813C35.6316 125.661 33.7209 123.994 31.4004 123.994C28.8894 123.994 26.8535 125.945 26.8535 128.35C26.8535 130.756 28.8894 132.707 31.4004 132.707C31.8609 132.707 32.3051 132.639 32.7238 132.518C32.6036 133.492 32.5848 134.505 32.5055 135.496C32.301 138.052 33.5091 139.53 33.5091 139.53C33.5091 139.53 35.1809 135.717 37.4131 135.546C38.2842 135.48 38.64 132.734 40.2758 132.734C41.9117 132.734 43.7014 132.019 43.7014 132.019C42.018 128.267 38.3398 127.034 35.9089 127.813Z" fill="#292E4A"/>
<path d="M130.283 181.168L128.017 188.522" stroke="white" stroke-width="0.9715" stroke-miterlimit="10"/>
<path d="M169.294 235.356H76.4281L64.9517 178.613H157.818L169.294 235.356Z" fill="#292E4A"/>
<path d="M164.388 230.351H82.2719L72.8198 183.618H154.936L164.388 230.351Z" fill="#FFD817"/>
<path d="M79.1723 235.356H76.4281L64.9517 178.613H67.6958L79.1723 235.356Z" fill="#6470B5"/>
<path d="M99.3677 230.351L113.772 183.618" stroke="white" stroke-width="0.9005" stroke-miterlimit="10"/>
<path d="M127.294 183.618L112.889 230.351" stroke="white" stroke-width="0.9005" stroke-miterlimit="10"/>
<path d="M128.006 195.045L117.123 230.351" stroke="white" stroke-width="0.9005" stroke-miterlimit="10"/>
<path d="M223.396 235.356H76.4282V240.548H223.396V235.356Z" fill="#6470B5"/>
<path d="M223.395 235.356H130.727V240.548H223.395V235.356Z" fill="#292E4A"/>
<path d="M76.4282 235.356H223.396" stroke="#6470B5" stroke-width="0.9005" stroke-miterlimit="10" stroke-linecap="round" stroke-linejoin="round"/>
<path d="M102.119 230.648H135.85L143.817 220.648L150.597 225.648L172.97 200.307L178.734 205.392L181.615 185.561L163.14 192.849L166.699 195.731L148.902 212.003L136.019 201.833L102.119 230.648Z" fill="#FFA200"/>
<path d="M68.8135 240.344H236.136" stroke="#292E4A" stroke-miterlimit="10"/>
<path d="M216.591 193.338C217.768 193.626 218.832 194.039 219.787 194.573C220.74 195.109 221.557 195.711 222.238 196.377C222.917 197.044 223.453 197.743 223.845 198.475C224.237 199.208 224.446 199.914 224.473 200.593C224.473 200.827 224.387 201.031 224.217 201.2C224.047 201.371 223.858 201.455 223.649 201.455H218.512C218.146 201.455 217.851 201.402 217.63 201.298C217.407 201.193 217.179 201.037 216.943 200.827C216.866 200.749 216.741 200.618 216.571 200.435C216.401 200.252 216.16 200.063 215.846 199.866C215.532 199.671 215.14 199.501 214.67 199.357C214.198 199.214 213.623 199.141 212.944 199.141C212.447 199.141 211.969 199.174 211.512 199.24C211.055 199.305 210.65 199.41 210.297 199.553C209.944 199.697 209.656 199.901 209.434 200.161C209.211 200.423 209.101 200.749 209.101 201.141C209.101 201.532 209.225 201.86 209.473 202.121C209.721 202.383 210.14 202.625 210.728 202.847C211.316 203.069 212.093 203.285 213.061 203.494C214.028 203.703 215.231 203.952 216.668 204.239C218.105 204.527 219.36 204.893 220.432 205.337C221.504 205.782 222.399 206.337 223.118 207.003C223.837 207.669 224.373 208.454 224.726 209.355C225.079 210.257 225.255 211.322 225.255 212.551C225.255 213.649 225.046 214.655 224.627 215.571C224.209 216.486 223.621 217.295 222.863 218.001C222.105 218.707 221.189 219.295 220.119 219.766C219.046 220.235 217.87 220.576 216.589 220.785V223.57C216.589 223.857 216.485 224.105 216.275 224.314C216.066 224.524 215.818 224.629 215.531 224.629H210.393C210.106 224.629 209.858 224.524 209.649 224.314C209.439 224.105 209.335 223.857 209.335 223.57V220.668C208.08 220.381 206.949 219.969 205.943 219.433C204.937 218.898 204.074 218.29 203.356 217.61C202.636 216.931 202.081 216.192 201.69 215.395C201.297 214.598 201.088 213.793 201.062 212.983C201.062 212.748 201.147 212.545 201.316 212.376C201.486 212.206 201.675 212.12 201.884 212.12H207.021C207.387 212.12 207.675 212.166 207.884 212.257C208.093 212.35 208.303 212.487 208.512 212.669C208.616 212.774 208.773 212.944 208.982 213.179C209.191 213.414 209.472 213.656 209.825 213.905C210.178 214.153 210.622 214.368 211.159 214.552C211.694 214.735 212.355 214.826 213.139 214.826C214.524 214.826 215.681 214.676 216.609 214.374C217.536 214.074 218.001 213.531 218.001 212.747C218.001 212.355 217.83 212.028 217.491 211.766C217.151 211.506 216.642 211.263 215.961 211.041C215.282 210.82 214.413 210.603 213.353 210.394C212.295 210.185 211.046 209.923 209.609 209.609C206.915 209.034 204.949 208.074 203.708 206.727C202.466 205.382 201.846 203.584 201.846 201.336C201.846 200.421 202.014 199.538 202.355 198.689C202.695 197.84 203.185 197.062 203.825 196.356C204.466 195.65 205.25 195.037 206.179 194.514C207.105 193.99 208.158 193.586 209.335 193.298V190.396C209.335 190.109 209.439 189.861 209.649 189.651C209.858 189.443 210.106 189.338 210.393 189.338H215.531C215.818 189.338 216.066 189.443 216.275 189.651C216.485 189.861 216.589 190.109 216.589 190.396V193.338H216.591Z" fill="#FFA200"/>
<path d="M375.574 251.223H0.426058C0.191682 251.223 0 251.143 0 251.045V250.984C0 250.886 0.191536 250.806 0.426058 250.806H375.574C375.808 250.806 376 250.886 376 250.984V251.045C376 251.143 375.808 251.223 375.574 251.223Z" fill="#2E3552"/>
</svg>
