<svg width="98" height="55" viewBox="0 0 98 55" fill="none" xmlns="http://www.w3.org/2000/svg">
<circle cx="4.76389" cy="4.76389" r="4.76389" fill="#EFEFEF"/>
<circle cx="75.5417" cy="4.76389" r="4.76389" fill="#EFEFEF"/>
<circle cx="4.76389" cy="19.7361" r="4.76389" fill="#EFEFEF"/>
<circle cx="75.5417" cy="19.7361" r="4.76389" fill="#EFEFEF"/>
<circle cx="4.76389" cy="34.7082" r="4.76389" fill="#EFEFEF"/>
<circle cx="75.5417" cy="34.7082" r="4.76389" fill="#EFEFEF"/>
<circle cx="4.76389" cy="49.6806" r="4.76389" fill="#EFEFEF"/>
<circle cx="75.5417" cy="49.6806" r="4.76389" fill="#EFEFEF"/>
<circle cx="22.4583" cy="4.76389" r="4.76389" fill="#EFEFEF"/>
<circle cx="93.2361" cy="4.76389" r="4.76389" fill="#EFEFEF"/>
<circle cx="22.4583" cy="19.7361" r="4.76389" fill="#EFEFEF"/>
<circle cx="93.2361" cy="19.7361" r="4.76389" fill="#EFEFEF"/>
<circle cx="22.4583" cy="34.7082" r="4.76389" fill="#EFEFEF"/>
<circle cx="93.2361" cy="34.7082" r="4.76389" fill="#EFEFEF"/>
<circle cx="22.4583" cy="49.6806" r="4.76389" fill="#EFEFEF"/>
<circle cx="93.2361" cy="49.6806" r="4.76389" fill="#EFEFEF"/>
<circle cx="40.1528" cy="4.76389" r="4.76389" fill="#EFEFEF"/>
<circle cx="40.1528" cy="19.7361" r="4.76389" fill="#EFEFEF"/>
<circle cx="40.1528" cy="34.7082" r="4.76389" fill="#EFEFEF"/>
<circle cx="40.1528" cy="49.6806" r="4.76389" fill="#EFEFEF"/>
<circle cx="57.8472" cy="4.76389" r="4.76389" fill="#EFEFEF"/>
<circle cx="57.8472" cy="19.7361" r="4.76389" fill="#EFEFEF"/>
<circle cx="57.8472" cy="34.7082" r="4.76389" fill="#EFEFEF"/>
<circle cx="57.8472" cy="49.6806" r="4.76389" fill="#EFEFEF"/>
</svg>
